<?xml version="1.0" encoding="UTF-8"?><svg id="Layer_1" xmlns="http://www.w3.org/2000/svg" viewBox="0 0 286.14 77.36"><defs><style>.cls-1{fill:#015363;}.cls-2{fill:#72d6c3;}.cls-3{fill:#5aa0e5;}.cls-4{fill:#aaa;}.cls-5{fill:#26757f;}.cls-6{fill:#3c7fcc;}.cls-7{fill:#36b8a0;}</style></defs><g><rect class="cls-2" x="10.13" y="47.16" width="2.35" height="16.14"/><path class="cls-2" d="M22.31,51.59c-1.23,0-2.48,.4-3.76,1.2l-.21-.88h-1.98v11.39h2.31v-8.46c.97-.75,1.98-1.13,3.04-1.13,1.46,0,2.19,.67,2.19,2.01v7.58h2.31v-8.05c0-2.44-1.3-3.67-3.9-3.67h0Z"/><path class="cls-2" d="M39,46.01h-2.31v6.02c-.78-.29-1.71-.44-2.77-.44-1.31,0-2.52,.29-3.64,.88-.4,.63-.73,1.45-.98,2.47s-.38,2.06-.38,3.14c0,1.83,.41,3.22,1.22,4.16,.81,.95,1.99,1.42,3.53,1.42,1.18,0,2.27-.35,3.25-1.04,.05,.15,.13,.38,.25,.69h2.28l.09-.21c-.37-.89-.55-1.82-.55-2.79v-14.29h.01Zm-2.31,14.81c-.83,.52-1.68,.78-2.54,.78-1.95,0-2.93-1.26-2.93-3.78,0-1.37,.21-2.64,.65-3.83,.68-.26,1.39-.39,2.14-.39,1.03,0,1.92,.16,2.67,.48v6.73h0Z"/><polygon class="cls-2" points="42.48 48.38 44.26 50.13 46.01 48.38 44.26 46.61 42.48 48.38"/><rect class="cls-2" x="43.1" y="51.91" width="2.31" height="11.39"/><polygon class="cls-2" points="52.69 61.18 49.77 51.91 47.3 51.91 51.1 63.3 54.1 63.3 58.2 51.91 55.92 51.91 52.69 61.18"/><polygon class="cls-2" points="59.33 48.38 61.11 50.13 62.86 48.38 61.11 46.61 59.33 48.38"/><rect class="cls-2" x="59.96" y="51.91" width="2.31" height="11.39"/><path class="cls-2" d="M75.13,46.01h-2.31v6.02c-.78-.29-1.71-.44-2.77-.44-1.31,0-2.52,.29-3.64,.88-.4,.63-.73,1.45-.98,2.47s-.38,2.06-.38,3.14c0,1.83,.41,3.22,1.22,4.16,.81,.95,1.99,1.42,3.53,1.42,1.18,0,2.27-.35,3.25-1.04,.05,.15,.13,.38,.25,.69h2.28l.09-.21c-.37-.89-.55-1.82-.55-2.79v-14.29h.01Zm-2.31,14.81c-.83,.52-1.68,.78-2.54,.78-1.95,0-2.93-1.26-2.93-3.78,0-1.37,.21-2.64,.65-3.83,.68-.26,1.39-.39,2.14-.39,1.03,0,1.92,.16,2.67,.48v6.73h0Z"/><path class="cls-2" d="M86.7,60.39c-.97,.75-1.98,1.13-3.04,1.13-1.46,0-2.19-.68-2.19-2.03v-7.59h-2.31v8.05c0,2.46,1.3,3.69,3.9,3.69,1.25,0,2.51-.42,3.78-1.25l.18,.9h1.98v-11.39h-2.31v8.48h.01Z"/><path class="cls-2" d="M101.04,55.76c0-1.52-.34-2.59-1.01-3.22-.68-.62-1.76-.93-3.25-.93-1.35,0-2.81,.22-4.38,.67v1.96l.16,.09c1.49-.45,2.77-.67,3.85-.67,.81,0,1.42,.19,1.82,.56,.4,.38,.6,1,.6,1.88v.81c-2.64,.06-4.8,.31-6.46,.74-.45,.85-.67,1.71-.67,2.61,0,1.08,.34,1.91,1.03,2.5,.68,.59,1.65,.89,2.89,.89s2.4-.37,3.41-1.11c.08,.28,.17,.53,.28,.76h2.21l.09-.21c-.38-.85-.58-1.76-.58-2.74v-4.59h0Zm-2.21,5.3c-.95,.54-1.87,.81-2.74,.81-1.48,0-2.21-.63-2.21-1.89,0-.42,.08-.81,.25-1.18,1.21-.21,2.78-.36,4.7-.44v2.7h0Z"/><rect class="cls-2" x="104.38" y="46.01" width="2.31" height="17.29"/></g><g><rect class="cls-2" x="17.85" y="39.51" width="2.11" height="2.43"/><rect class="cls-2" x="14.15" y="39.51" width="2.11" height="2.43"/><rect class="cls-2" x="61.86" y="32.76" width="2.11" height="2.43"/><path class="cls-2" d="M61.86,28.41h-12.58v-6.13c0-1.17-.27-2.16-.8-2.97s-1.29-1.43-2.27-1.85-2.16-.63-3.52-.63c-.83,0-1.68,.07-2.56,.2-.88,.14-1.69,.29-2.43,.47l.24,1.73c.97-.14,1.9-.26,2.78-.34s1.56-.12,2.02-.12c1.49,0,2.61,.29,3.33,.88s1.09,1.46,1.09,2.63v6.13H24.05c-.38,0-.71-.02-1-.05-.29-.04-.55-.1-.78-.2-.23-.1-.48-.23-.73-.39l-1.19,1.59c.61,.4,1.23,.66,1.85,.78,.62,.13,1.24,.19,1.85,.19h1.57v.32c0,1.46-.36,2.56-1.07,3.32s-1.75,1.13-3.12,1.13h-7.64c-1.04,0-1.97-.18-2.77-.53s-1.43-.84-1.88-1.46c-.45-.62-.67-1.34-.67-2.15,0-.42,.06-1.12,.18-2.11s.27-2.09,.47-3.29l-2.08-.3c-.13,.77-.24,1.53-.34,2.28-.1,.75-.18,1.42-.24,2.01s-.09,1.07-.09,1.43c0,.88,.19,1.69,.57,2.43s.9,1.37,1.58,1.9c.67,.53,1.46,.94,2.36,1.24,.9,.3,1.87,.45,2.92,.45h7.64c1.35,0,2.49-.27,3.42-.81s1.63-1.29,2.12-2.24c.49-.95,.73-2.05,.73-3.29v-.35H63.97v-13.5h-2.11v11.6Z"/><path class="cls-2" d="M68.96,30.76c0,1.13-.26,2.02-.78,2.66s-1.21,.96-2.05,.96c-.16,0-.35,0-.57-.04-.22-.03-.45-.05-.7-.07l-.24,1.92c.25,.02,.51,.04,.77,.07,.26,.03,.51,.04,.74,.04,.97,0,1.83-.23,2.56-.69,.74-.46,1.32-1.11,1.74-1.94,.42-.84,.63-1.81,.63-2.9v-13.93h-2.11v13.93h0Z"/><rect class="cls-2" x="86.75" y="32.76" width="2.11" height="2.43"/><rect class="cls-2" x="90.45" y="32.76" width="2.11" height="2.43"/><rect class="cls-2" x="101.19" y="11.97" width="2.11" height="2.43"/><path class="cls-2" d="M100.16,28.41c-1.23-1.2-1.86-2.67-1.86-4.43,0-1.03,.21-1.93,.63-2.71s1.01-1.4,1.77-1.85c.76-.45,1.61-.67,2.56-.67,.41,0,.85,.04,1.31,.13s.91,.22,1.36,.38l.73-1.81c-.56-.2-1.14-.35-1.74-.46-.6-.11-1.17-.16-1.69-.16-.99,0-1.92,.18-2.78,.53s-1.61,.85-2.24,1.5-1.13,1.41-1.49,2.28-.54,1.82-.54,2.85c0,1.21,.26,2.34,.77,3.42,.17,.35,.37,.69,.59,1.01h-6.87v-11.58h-2.11v2.65h-5.83v-2.65h-2.11v13.93c0,1.13-.26,2.02-.78,2.66s-1.21,.96-2.05,.96c-.16,0-.35,0-.57-.04-.22-.03-.45-.05-.7-.07l-.24,1.92c.25,.02,.51,.04,.77,.07,.26,.03,.51,.04,.74,.04,.97,0,1.83-.23,2.56-.69,.74-.46,1.32-1.11,1.74-1.94,.42-.84,.63-1.81,.63-2.9v-9.34h5.83v8.91h18.41v-1.92h-6.84l.04-.02Z"/></g><g><path class="cls-4" d="M157.95,26.91c-.6-.47-1.19-.86-1.74-1.16-.56-.3-1.32-.66-2.3-1.09-1.66-.76-2.73-1.28-3.2-1.57-.48-.29-.71-.59-.71-.93,1.09-.29,2.33-.43,3.7-.43s2.97,.19,4.77,.57l.25-.11v-5.31c-1.4-.45-2.9-.68-4.49-.68-2.68,0-5.1,.57-7.26,1.71-.93,1.69-1.39,3.38-1.39,5.09,0,1.26,.4,2.29,1.21,3.08,.81,.8,2.03,1.55,3.67,2.26,2.92,1.28,4.51,2.2,4.77,2.74-2.14,.81-4.81,1.21-8.01,1.21s-5.52-.52-7.01-1.57c-1.5-1.04-2.24-2.69-2.24-4.95,0-1.26,.24-2.66,.71-4.2l-.25-.25-3.88,.75c-.67,1.64-1,3.51-1,5.63,0,3.25,1.09,5.75,3.26,7.49,2.17,1.75,5.18,2.62,9.03,2.62,2.47,0,4.86-.3,7.17-.91,2.31-.6,4.23-1.36,5.75-2.26,.62-1.47,.93-2.88,.93-4.24,0-.74-.14-1.39-.41-1.96s-.71-1.09-1.32-1.57v.04Z"/><polygon class="cls-4" points="191.01 12.85 187.94 9.14 183.92 12.45 187.05 16.16 191.01 12.85"/><path class="cls-4" d="M185.31,28.8h-6.48c-.19-1.99-.58-3.82-1.17-5.47-.59-1.65-1.47-3.04-2.62-4.18s-2.47-1.71-3.97-1.71c-1.83,0-3.51,1.07-5.04,3.2-1.53,2.14-2.62,4.88-3.26,8.22,1.31,1.54,2.94,2.8,4.91,3.76s4.15,1.56,6.55,1.8c-.24,1.07-.72,1.82-1.44,2.24-.72,.43-1.79,.64-3.19,.64-1.8,0-3.67-.3-5.59-.89l-.32,.28,.57,4.7c1.71,.78,3.32,1.17,4.84,1.17,5.46,0,8.65-2.69,9.58-8.08h11.61v-15.74h-4.98v10.06Zm-17.84-2.17c.38-1.09,.85-1.93,1.42-2.53,.57-.59,1.1-.89,1.6-.89,.9,0,1.69,.49,2.37,1.48,.68,.98,1.14,2.34,1.41,4.08-2.78-.17-5.04-.88-6.8-2.14h0Z"/></g><g><path class="cls-4" d="M147.04,56.09c0,1.29,.05,2.41,.14,3.34l-.14,.02c-.23-.51-.82-1.5-1.77-2.97l-6.32-9.5h-2.33v16.14h2.14v-9.08c0-1.18-.04-2.29-.12-3.32l.14-.02c.31,.68,.9,1.67,1.77,2.97l6.32,9.45h2.33v-16.14h-2.17v9.11h0Z"/><path class="cls-4" d="M161.43,55.59c0-1.52-.34-2.59-1.01-3.22-.68-.62-1.76-.93-3.25-.93-1.35,0-2.81,.22-4.38,.67v1.96l.16,.09c1.49-.45,2.77-.67,3.85-.67,.81,0,1.42,.19,1.82,.56,.4,.38,.6,1,.6,1.88v.81c-2.64,.06-4.8,.31-6.46,.74-.45,.85-.67,1.71-.67,2.61,0,1.08,.34,1.91,1.03,2.5,.68,.59,1.65,.89,2.89,.89s2.4-.37,3.41-1.11c.08,.28,.17,.53,.28,.76h2.21l.09-.21c-.38-.85-.58-1.76-.58-2.74v-4.59h0Zm-2.21,5.3c-.95,.54-1.87,.81-2.74,.81-1.48,0-2.21-.63-2.21-1.89,0-.42,.08-.81,.25-1.18,1.21-.21,2.78-.36,4.7-.44v2.7h0Z"/><polygon class="cls-4" points="175.88 60.89 173.46 51.73 170.58 51.73 168.02 60.89 165.58 51.73 163.11 51.73 166.36 63.12 169.36 63.12 171.8 54.32 174.2 63.12 177.31 63.12 180.73 51.73 178.44 51.73 175.88 60.89"/><path class="cls-4" d="M190.82,60.17v-4.59c0-1.52-.34-2.59-1.01-3.22-.68-.62-1.76-.93-3.25-.93-1.35,0-2.81,.22-4.38,.67v1.96l.16,.09c1.49-.45,2.77-.67,3.85-.67,.81,0,1.42,.19,1.82,.56,.4,.38,.6,1,.6,1.88v.81c-2.64,.06-4.8,.31-6.46,.74-.45,.85-.67,1.71-.67,2.61,0,1.08,.34,1.91,1.03,2.5,.68,.59,1.65,.89,2.89,.89s2.4-.37,3.41-1.11c.08,.28,.17,.53,.28,.76h2.21l.09-.21c-.38-.85-.58-1.76-.58-2.74h0Zm-2.21,.71c-.95,.54-1.87,.81-2.74,.81-1.48,0-2.21-.63-2.21-1.89,0-.42,.08-.81,.25-1.18,1.21-.21,2.78-.36,4.7-.44v2.7h0Z"/></g><rect class="cls-2" x="117.8" y="5.92" width="3.86" height="65.07"/><g><path class="cls-3" d="M275.4,46.95l-1.12,8.31c-.1,.76-.6,1.4-1.31,1.7l-26.41,10.95c-.47,.19-.99,.22-1.47,.07h0c-1.47-.46-1.99-2.27-.99-3.44l18.48-21.72c.54-.63,1.4-.9,2.2-.68l9.06,2.46c1.04,.28,1.71,1.29,1.56,2.36Z"/><path class="cls-6" d="M255.22,30.39l4.83,8.08c.39,.65,.35,1.48-.09,2.09l-18.14,24.91c-.42,.58-1.12,.87-1.83,.76h0c-1.21-.19-1.92-1.45-1.47-2.59l13.31-32.99c.59-1.45,2.59-1.61,3.39-.26Z"/><path class="cls-2" d="M250.24,24.78l-13.32,40.66c-.16,.49-.65,.78-1.16,.68h0c-.5-.09-.86-.54-.83-1.05l2.27-45.13c.03-.58,.54-1.02,1.12-.96l6.68,.64c.62,.06,1.2,.33,1.63,.77l3.36,3.35c.27,.27,.37,.67,.25,1.04Z"/><path class="cls-7" d="M233.58,65.02l.35-46.66c0-.36-.16-.69-.45-.91l-7.56-5.64c-.8-.59-1.92,.07-1.78,1.05l7.21,52.3c.08,.58,.59,1,1.17,.97h0c.59-.03,1.06-.52,1.06-1.11Z"/><path class="cls-5" d="M230.66,66.99l-10-57.8c-.06-.34-.32-.62-.66-.69l-5.91-1.32c-.21-.05-.42-.01-.6,.09l-5.2,2.88c-.37,.21-.54,.66-.39,1.05l21.12,56.24c.23,.61,1.04,.75,1.46,.25h0c.16-.19,.23-.45,.19-.7Z"/><path class="cls-1" d="M225.18,64.15h0s-.06-.06-.08-.1l-24.41-38.99c-.21-.34-.32-.73-.31-1.14l.15-4.79c.02-.58,.39-1.09,.94-1.28l4.64-.97c.57-.12,1.14,.19,1.36,.72l18.62,45.93c.23,.56-.48,1.03-.9,.6Z"/></g></svg>