<?xml version="1.0" encoding="UTF-8"?><svg id="Logo_3" xmlns="http://www.w3.org/2000/svg" xmlns:xlink="http://www.w3.org/1999/xlink" viewBox="0 0 80.02 109.28"><defs><style>.cls-1{fill:#00b6a1;}.cls-2{fill:#085566;}.cls-3{clip-path:url(#clippath);}.cls-4{fill:none;}</style><clipPath id="clippath"><rect class="cls-4" x="-218.17" y="3.74" width="294.95" height="107.21"/></clipPath></defs><g class="cls-3"><g id="Group_3"><path id="Path_33" class="cls-2" d="M69.26,22.21h-.4c-4.49,0-8.12,3.65-8.11,8.14l.04,36.96c.06,5.79-2.2,11.36-6.26,15.48-3.28,3.35-7.63,5.45-12.3,5.93-7.47,.77-14.8-2.4-19.35-8.36-2.73-3.6-4.18-8.01-4.1-12.52l-.04-37.9c0-4.25-3.44-7.69-7.69-7.7-4.46-.01-8.08,3.59-8.1,8.04,0,.02,0,.04,0,.06l.04,37.52c-.16,9.8,3.73,19.22,10.76,26.05,6.82,7.02,16.24,10.91,26.02,10.74,9.79,.16,19.2-3.74,26.01-10.78,7.02-6.83,10.9-16.27,10.72-26.06l-.04-38.35c0-3.99-3.23-7.22-7.22-7.23"/><path id="Path_34" class="cls-1" d="M76.78,29.69c0,4.4-3.55,7.97-7.95,7.98-4.4,0-7.97-3.55-7.98-7.95s3.55-7.97,7.95-7.98c2.12,0,4.15,.83,5.64,2.33,1.49,1.49,2.33,3.52,2.34,5.63"/><path id="Path_38" class="cls-2" d="M37.38,23.71c5.51,0,9.99-4.46,9.99-9.98,0-5.51-4.46-9.99-9.98-9.99-5.51,0-9.99,4.46-9.99,9.98h0c0,5.52,4.46,9.99,9.97,9.99"/></g></g></svg>