<?xml version="1.0" encoding="UTF-8"?><svg id="Layer_1" xmlns="http://www.w3.org/2000/svg" viewBox="0 0 1216.5 995.5"><defs><style>.cls-1{fill:#fff;}.cls-2{fill:#72d6c3;}.cls-3{fill:#5aa0e5;}.cls-4{fill:#26757f;}.cls-5{fill:#3c7fcc;}.cls-6{fill:#36b8a0;}</style></defs><path class="cls-3" d="M728.71,979c-3.66,0-7.33-.55-10.87-1.67-11.63-3.65-20.59-12.83-23.97-24.55-3.38-11.71-.68-24.25,7.22-33.54l290.92-342.07c9.06-10.65,23.64-15.17,37.13-11.5l142.6,38.75c17.48,4.75,28.84,21.87,26.43,39.83l-2.43-.33,2.43,.33-17.61,130.83c-1.72,12.75-10.16,23.73-22.05,28.66l-415.9,172.49c-4.43,1.84-9.16,2.76-13.9,2.76Zm290.99-409.68c-9.08,0-17.92,3.94-23.95,11.03l-290.92,342.07c-6.83,8.03-9.16,18.87-6.24,29,2.92,10.13,10.67,18.06,20.73,21.22,7.02,2.2,14.62,1.87,21.41-.95l415.9-172.49c10.28-4.26,17.58-13.76,19.06-24.78l17.61-130.83c2.09-15.53-7.73-30.33-22.85-34.44l-142.6-38.75c-2.69-.73-5.44-1.09-8.16-1.09Z"/><path class="cls-5" d="M642.8,950.23c-1.67,0-3.36-.13-5.05-.39-9.81-1.53-18.24-7.36-23.14-15.99-4.9-8.63-5.58-18.86-1.86-28.06l209.55-519.42c4.63-11.47,15.16-19.19,27.49-20.14,12.33-.96,23.93,5.04,30.27,15.65l76.03,127.22c6.66,11.15,6.03,25.13-1.62,35.63l-285.57,392.2c-6.16,8.47-15.85,13.31-26.09,13.31Zm209.64-579.21c-.75,0-1.51,.03-2.28,.09-10.62,.82-19.33,7.21-23.32,17.09l-209.55,519.42c-3.15,7.81-2.57,16.48,1.58,23.81,4.15,7.32,11.31,12.27,19.63,13.57,10.21,1.6,20.33-2.6,26.42-10.96l285.57-392.2c6.48-8.9,7.02-20.77,1.37-30.23l-76.03-127.22c-5.07-8.48-13.7-13.37-23.4-13.37Z"/><path class="cls-2" d="M574.51,948.64c-1.12,0-2.26-.1-3.39-.31-9.06-1.7-15.54-9.92-15.07-19.12l35.74-710.58c.26-5.1,2.52-9.74,6.39-13.08,3.86-3.34,8.78-4.9,13.86-4.42l105.24,10.08c10.26,.98,19.94,5.53,27.24,12.82l52.83,52.7c4.97,4.96,6.7,12.19,4.52,18.86l-209.75,640.29c-2.52,7.69-9.75,12.74-17.61,12.74Zm35.72-742.68c-3.25,0-6.36,1.15-8.85,3.31-2.84,2.45-4.5,5.86-4.69,9.61l-35.74,710.58c-.34,6.76,4.42,12.8,11.08,14.05,6.68,1.25,13.31-2.67,15.43-9.13l209.75-640.29c1.61-4.91,.33-10.22-3.32-13.86l-52.83-52.7c-6.5-6.48-15.11-10.53-24.24-11.41l-105.24-10.08c-.45-.04-.89-.06-1.33-.06Z"/><path class="cls-6" d="M519.62,948.4c-9.91,0-18.56-7.44-19.92-17.35L386.2,107.55c-1.13-8.17,2.59-15.86,9.69-20.05,7.11-4.2,15.63-3.74,22.24,1.2l118.99,88.81c5.1,3.81,8.12,9.89,8.08,16.26l-5.49,734.7c-.08,10.61-8.44,19.37-19.04,19.92-.35,.02-.7,.03-1.04,.03ZM406.14,89.57c-2.65,0-5.31,.71-7.75,2.15-5.37,3.17-8.18,8.98-7.33,15.16l113.5,823.5c1.07,7.76,8.03,13.51,15.85,13.1,8.01-.42,14.33-7.04,14.39-15.06l5.49-734.7c.04-4.82-2.25-9.41-6.1-12.29l-118.99-88.81c-2.73-2.03-5.88-3.06-9.06-3.06Z"/><path class="cls-4" d="M477.96,977.84c-.93,0-1.86-.08-2.8-.24-5.65-.98-10.22-4.77-12.24-10.13L130.41,81.95c-2.77-7.37,.34-15.8,7.23-19.61L219.55,16.99c3.42-1.9,7.41-2.47,11.22-1.62l93.07,20.74c6.35,1.42,11.17,6.47,12.28,12.88l157.52,910.12c.81,4.68-.48,9.43-3.55,13.06-3.09,3.65-7.49,5.67-12.14,5.67ZM227.29,19.89c-1.86,0-3.71,.47-5.36,1.39l-81.92,45.35c-4.77,2.64-6.93,8.49-5.01,13.59L467.51,965.74c1.4,3.72,4.57,6.35,8.48,7.02,3.92,.69,7.79-.73,10.35-3.76,2.12-2.51,3.02-5.81,2.46-9.05L331.29,49.83c-.77-4.44-4.11-7.95-8.51-8.93l-93.07-20.74c-.8-.18-1.61-.27-2.42-.27Z"/><path class="cls-1" d="M411.11,919.76c-2.63,0-5.39-.96-7.76-3.33-.59-.59-1.12-1.26-1.57-1.97L17.45,300.53c-3.62-5.78-5.42-12.44-5.21-19.26l2.36-75.47c.31-10.05,6.9-19.03,16.4-22.34l.31-.09,73.02-15.2c10.11-2.1,20.25,3.31,24.13,12.88L421.6,904.34c2.37,5.84-.39,10.99-4.18,13.5-1.77,1.17-3.99,1.92-6.31,1.92ZM32.47,188.16c-7.51,2.69-12.71,9.82-12.96,17.8l-2.36,75.47c-.18,5.84,1.36,11.55,4.46,16.5L405.94,911.85c.25,.4,.55,.77,.88,1.1h0c2.67,2.67,5.92,2.1,7.88,.79,1.97-1.3,3.76-4.07,2.34-7.57L123.91,182.91c-2.99-7.37-10.8-11.55-18.58-9.92l-72.86,15.17Z"/></svg>