<?xml version="1.0" encoding="UTF-8"?>
<svg id="SVGDoc" width="75" height="51" xmlns="http://www.w3.org/2000/svg" version="1.1"
     xmlns:xlink="http://www.w3.org/1999/xlink" xmlns:avocode="https://avocode.com/" viewBox="0 0 75 51">
    <defs></defs>
    <desc>Generated with Avocode.</desc>
    <g>
        <g>
            <title>Layer 1</title>
            <g>
                <title>Rectangle 153</title>
                <path d="M43.74316,2.46875v0v-0.8418v0h0.83167v0v0.8418v0z" fill="#ffffff" fill-opacity="1"></path>
            </g>
            <g>
                <title>Rectangle 154</title>
                <path d="M61.10864,12.82129v0v-0.82129v0h0.89136v0v0.82129v0z" fill="#ffffff" fill-opacity="1"></path>
            </g>
            <g>
                <title>Path 530</title>
                <path d="M71.26636,11.1001c0.20044,-0.1001 0.37244,-0.23682 0.49829,-0.41797c0.1333,-0.2041 0.23535,-0.43262 0.23535,-0.68213c0.08569,-0.27881 0.11218,-0.57178 0.11011,-0.86572v-5.83545v0h-0.83801v0v5.83545c0.00317,0.2002 -0.01013,0.40039 -0.03967,0.59863c-0.01477,0.13867 -0.05713,0.26709 -0.12463,0.39551c-0.05261,0.09619 -0.10779,0.17188 -0.23779,0.21484c-0.12598,0.0498 -0.26099,0.07275 -0.39636,0.06787h-0.19812c-0.07678,-0.01367 -0.15247,-0.03223 -0.27551,-0.05664l-0.17187,0.80762c0.17188,0.06006 0.45007,0.09033 0.67957,0.09033c0.26074,0.01025 0.49231,-0.04004 0.75867,-0.14648"
                      fill="#ffffff" fill-opacity="1"></path>
            </g>
            <g>
                <title>Path 531</title>
                <path d="M68.39673,1.82275v0h-1.12512v0v-0.19287c-0.00574,-0.08643 0.01807,-0.17236 0.06763,-0.24365c0.03369,-0.05078 0.12366,-0.07373 0.25305,-0.07373h0.56262v0v-0.5835v0h-0.56262c-0.26685,-0.0166 -0.52942,0.07275 -0.73132,0.271c-0.18408,0.20361 -0.27478,0.4917 -0.25305,0.78271v0.68604v0h1.82263v0z"
                      fill="#ffffff" fill-opacity="1"></path>
            </g>
            <g>
                <title>Rectangle 155</title>
                <path d="M59.44275,12.82129v0v-0.82129v0h0.83154v0v0.82129v0z" fill="#ffffff" fill-opacity="1"></path>
            </g>
            <g>
                <title>Rectangle 156</title>
                <path d="M45.42468,2.46875v0v-0.8418v0h0.83167v0v0.8418v0z" fill="#ffffff" fill-opacity="1"></path>
            </g>
            <g>
                <title>Path 532</title>
                <path d="M64.62854,8.29297c0.37146,0.2373 0.72461,0.4082 1.12952,0.50244c0.43396,0.1084 0.87988,0.20459 1.32715,0.20459h0.22021v0l0.28235,-0.61133v0v0.81348c0.0343,0.35547 -0.10693,0.70508 -0.3783,0.9375c-0.31287,0.20361 -0.68347,0.30078 -1.05603,0.27637c-0.23145,0.00244 -0.46252,-0.02002 -0.68909,-0.06738c-0.24243,-0.06348 -0.46436,-0.14893 -0.70581,-0.25439l-0.28809,0.80176c0.27649,0.104 0.52954,0.19531 0.84717,0.26563c0.24377,0.06055 0.49414,0.09082 0.74536,0.09033c0.64526,0.06201 1.28772,-0.14209 1.77893,-0.56494c0.38623,-0.4248 0.58911,-0.98486 0.5647,-1.55859v-5.82812v0h-1.33838c-0.47742,-0.00732 -0.95276,0.06543 -1.40613,0.21484c-0.40356,0.13037 -0.77905,0.33545 -1.10693,0.60449c-0.29639,0.24854 -0.55518,0.55908 -0.7002,0.88037c-0.16919,0.38086 -0.2561,0.76709 -0.25415,1.1582c-0.0105,0.4375 0.08447,0.8418 0.27673,1.26465c0.17908,0.34326 0.4364,0.63916 0.75098,0.86426M64.62854,5.3335c0.12451,-0.24951 0.29956,-0.4707 0.51392,-0.64941c0.21338,-0.18115 0.4585,-0.3208 0.7229,-0.41211c0.26257,-0.0957 0.53931,-0.14746 0.81885,-0.15234h1.3158v0l-0.44043,0.23682v0v3.74414v0h-0.84717c-0.29846,0.00146 -0.59546,-0.04248 -0.88098,-0.10059c-0.26428,-0.11133 -0.51123,-0.2417 -0.72852,-0.41309c-0.20776,-0.16455 -0.37415,-0.37549 -0.4856,-0.58691c-0.12317,-0.28809 -0.18506,-0.57178 -0.18079,-0.85889c-0.00415,-0.28613 0.06177,-0.56934 0.19202,-0.82471"
                      fill="#ffffff" fill-opacity="1"></path>
            </g>
            <g>
                <title>Path 533</title>
                <path d="M41,7.15771c0,-0.81055 0.2572,-1.59912 0.81763,-2.15771c0.56042,-0.61377 1.33533,-0.94629 2.18237,-0.94824h1.91785v0l-0.51392,0.25391v0v4.69434c-0.00208,0.30518 0.02441,0.60059 0.07898,0.89063c0.0271,0.10938 0.07068,0.28418 0.12988,0.41797h-1.61279c-0.81763,-0.00537 -1.59595,-0.30859 -2.15894,-0.93115c-0.56311,-0.58984 -0.84106,-1.37744 -0.84106,-2.19727zM44,11.1333v0h1.71448v0v-0.62695c0,0.02832 0.03394,0.06201 0.0509,0.08496c0.12366,0.18408 0.29553,0.33057 0.49695,0.40869c0.2384,0.11865 0.4967,0.16846 0.73767,0.16162h15.26685v0v-7.86133v0h-0.83582v0v7.03125v0h-14.43103c-0.08545,0.00586 -0.21814,-0.01514 -0.34241,-0.0625c-0.10022,-0.04639 -0.18323,-0.12354 -0.23718,-0.26904c-0.06738,-0.07373 -0.11145,-0.20752 -0.12988,-0.34619c-0.02466,-0.20068 -0.03601,-0.40234 -0.03381,-0.65381v-5.69971v0h-2.25671c-1,-0.01514 -2,0.39258 -2.78076,1.13037c-0.73462,0.73779 -1.13818,1.74219 -1.11816,2.7832v0c-0.02466,1.03516 0.37317,2.03564 1.10205,2.78613c0.72876,0.71973 1.72559,1.12646 2.79688,1.11084"
                      fill="#ffffff" fill-opacity="1"></path>
            </g>
            <g>
                <title>Path 534</title>
                <path d="M35.94336,9.06396v0l0.36182,0.93604v0l-5.30518,-6.71289v0h-0.83301v0v7.83447v0h0.83301v0v-5.90674v0l-0.46008,-1.14209v0l5.55603,7.04883v0h0.71216v0v-7.83447v0h-0.86475v0z"
                      fill="#ffffff" fill-opacity="1"></path>
            </g>
            <g>
                <title>Path 535</title>
                <path d="M47.83594,23.6167v0l4.81372,-4.6167v0v-3.11914v0h-12.87048v0v3.58008v0h6.59912v0l2.45203,-1.56982v0l-6.11316,6.10889v0l0.6554,2.70508v0h1.74011c2.33911,0 3.729,0.86963 3.729,2.4165v0.05127c0,1.41162 -1.13,2.30908 -2.69507,2.30908c-1.93225,0 -3.29382,-0.81299 -4.599,-2.2583l-2.88147,2.77637c1.83667,2.146 4.57581,3.35645 7.42395,3.24805c4.24878,0 6.85901,-2.63086 6.85901,-6.24805v0c0,-3.56543 -2.53113,-4.92041 -5.08484,-5.35547"
                      fill="#ffffff" fill-opacity="1"></path>
            </g>
            <g>
                <title>Path 536</title>
                <path d="M27.79724,7.22217c0.03699,0.83691 -0.26953,1.65283 -0.84851,2.2583c-0.57886,0.60596 -1.38013,0.94873 -2.2179,0.94922c-0.84338,-0.00391 -1.64893,-0.3501 -2.2323,-0.95898c-0.58337,-0.60889 -0.89465,-1.4707 -0.86255,-2.271v0c-0.03528,-0.83789 0.27246,-1.65332 0.85229,-2.25879c0.57983,-0.60547 1.38159,-0.94092 2.21985,-0.94092c0.84241,0 1.64648,0.34424 2.22864,1c0.58215,0.56152 0.89258,1.38037 0.86047,2.22217zM24.73083,3.15039c-1.07507,-0.01562 -2.11011,0.40723 -2.8667,1.17139c-0.75647,0.76367 -1.16919,1.80273 -1.14294,2.87793v0c-0.0199,1.06689 0.39246,2.09668 1.14343,2.85498c0.75085,0.7583 1.77637,1.18066 2.84351,1.17139c1.07507,0.01563 2.11023,-0.40723 2.8667,-1.1709c0.75647,-0.76416 1.16919,-1.80322 1.14294,-2.87842v0c0.0199,-1.06689 -0.39246,-2.09668 -1.14343,-2.85498c-0.75085,-0.7583 -1.77637,-1.18066 -2.84351,-1.17139"
                      fill="#ffffff" fill-opacity="1"></path>
            </g>
            <g>
                <title>Path 537</title>
                <path d="M69.88464,25.43262c0,3.25879 -2.33801,5.91846 -5.70947,5.91846c-3.37146,0 -5.76587,-2.71631 -5.76587,-5.97461v-0.05078c0,-3.25879 2.33801,-5.91846 5.70947,-5.91846c3.37146,0 5.76587,2.71045 5.76587,5.96924zM64.17517,15.5498c-5.87317,0 -10.17517,4.4502 -10.17517,9.82666v0.05615c0,5.39893 4.22852,9.77002 10.10181,9.77002c5.89819,0 10.16516,-4.42187 10.16516,-9.82617v-0.05078c0,-5.40479 -4.26697,-9.77588 -10.0918,-9.77588"
                      fill="#ffffff" fill-opacity="1"></path>
            </g>
            <g>
                <title>Rectangle 157</title>
                <path d="M18.31323,11.12158v0v-7.83447v0h0.88318v0v7.83447v0z" fill="#ffffff" fill-opacity="1"></path>
            </g>
            <g>
                <title>Path 538</title>
                <path d="M4.1073,32.7124v0l0.80725,-0.62109v0l4.1604,-3.20801c3.38708,-2.604 5.00159,-4.17969 5.00159,-7.34277v-0.05664c0,-3.55859 -2.61365,-5.86279 -6.55396,-5.86279c-3.38708,0 -5.22168,1.37891 -7.09583,3.95361l2.93542,2.36084c1.41125,-1.76758 2.42175,-2.56982 3.8894,-2.56982c1.46777,0 2.55725,0.87012 2.55725,2.47412c0,1.604 -0.92578,2.60938 -3.29102,4.54688l-6.33386,5.18506v0v3.31543v0h14.07886v0v-3.61475v0h-7.26282v0z"
                      fill="#ffffff" fill-opacity="1"></path>
            </g>
            <g>
                <title>Path 539</title>
                <path d="M4.15417,11.16357v0l3.37048,-7.87646v0h-0.9541v0l-2.66479,6.41406v0l0.09424,0.85791v0l-0.22974,-0.55908v0l-2.30347,-5.5498v0l-0.4668,-1.16309v0h-1v0l3.36938,7.87646v0z"
                      fill="#ffffff" fill-opacity="1"></path>
            </g>
            <g>
                <title>Rectangle 158</title>
                <path d="M8.72961,11.12158v0v-7.83447v0h0.8833v0v7.83447v0z" fill="#ffffff" fill-opacity="1"></path>
            </g>
            <g>
                <title>Path 540</title>
                <path d="M14.29724,6.78125c-1.72205,-0.37305 -2.12854,-0.78125 -2.12854,-1.52637v-0.00586c0,-0.70117 0.64929,-1.24902 1.69385,-1.24902c0.83118,0 1.63354,0.29004 2.25903,0.83691l0.49634,-0.71826c-0.77075,-0.646 -1.75061,-0.98779 -2.75537,-0.96143c-1.4906,0.01709 -2.56909,0.92188 -2.56909,2.15381v0c0,1.28906 0.82434,1.87158 2.63123,2.26172c1.64307,0.3501 2.07532,0.76318 2.07532,1.48682v0c0,0.77441 -0.73157,1.33398 -1.78735,1.33398c-1.01196,0.00342 -1.98193,-0.39355 -2.68762,-1.13086l-0.52502,0.65039c0.82642,0.81445 2,1.26221 3.16174,1.24951c1.55847,0 2.67639,-0.87061 2.67639,-2.1626v0c0,-1.24658 -0.83813,-1.88525 -2.55212,-2.26416"
                      fill="#ffffff" fill-opacity="1"></path>
            </g>
            <g>
                <title>Path 541</title>
                <path d="M25.64441,14.30518v0l0.96655,0.92383v0l-0.927,0.96875v0l-0.96667,-0.9292v0z" fill="#28316f"
                      fill-opacity="1"></path>
            </g>
            <g>
                <title>Path 542</title>
                <path d="M27.84595,15.26855v0l0.96655,0.9292v0l0.92712,-0.96875v0l-0.96667,-0.92383v0z" fill="#ffffff"
                      fill-opacity="1"></path>
            </g>
            <g>
                <title>Path 543</title>
                <path d="M26.49048,16.47852v0l0.75317,0.71631v0l0.75635,-0.74463v0l-0.78467,-0.72168v0z" fill="#d4d404"
                      fill-opacity="1"></path>
            </g>
            <g transform="rotate(-46.20012283325195 30.0804443359375 16.9482421875)">
                <title>Rectangle 159</title>
                <path d="M29.54199,17.35156v0v-1.04834v0h1.03821v0v1.04834v0z" fill="#74b02e" fill-opacity="1"></path>
            </g>
            <g transform="rotate(-46.20012283325195 26.2816162109375 17.8798828125)">
                <title>Rectangle 160</title>
                <path d="M25.76099,18.00635v0v-1.03809v0h1.03821v0v1.03809v0z" fill="#d4d404" fill-opacity="1"></path>
            </g>
            <g transform="rotate(-46.20012283325195 28.7220458984375 17.92236328125)">
                <title>Rectangle 161</title>
                <path d="M28.22205,18.14014v0v-1.03809v0h1v0v1.03809v0z" fill="#27afba" fill-opacity="1"></path>
            </g>
            <g>
                <title>Path 544</title>
                <path d="M26.79541,18.57129v0l0.53271,0.49951v0l0.50427,-0.52197v0l-0.52698,-0.54883v0z" fill="#74b02e"
                      fill-opacity="1"></path>
            </g>
            <g>
                <title>Path 545</title>
                <path d="M28.78894,19v0l0.5271,0.47168v0l0.50989,-0.52197v0l-0.52698,-0.50488v0z" fill="#59ab4c"
                      fill-opacity="1"></path>
            </g>
            <g transform="rotate(-10.390172958374023 33.9801025390625 15.5224609375)">
                <title>Rectangle 162</title>
                <path d="M33.25708,16.47607v0v-1.66064v0h1.67188v0v1.66064v0z" fill="#2882c5" fill-opacity="1"></path>
            </g>
            <g transform="rotate(-10.390172958374023 31.96484375 15.96337890625)">
                <title>Rectangle 163</title>
                <path d="M31.07568,16.80371v0v-1.3252v0h1.33691v0v1.3252v0z" fill="#213466" fill-opacity="1"></path>
            </g>
            <g transform="rotate(-10.390172958374023 34.0045166015625 18.0576171875)">
                <title>Rectangle 164</title>
                <path d="M33.65698,18.73535v0v-1.33594v0h1.34753v0v1.33594v0z" fill="#27afba" fill-opacity="1"></path>
            </g>
            <g transform="rotate(-10.400062561035156 31.990966796875 18.0625)">
                <title>Rectangle 165</title>
                <path d="M31.81506,18.66357v0v-1.03809v0h1.03821v0v1.03809v0z" fill="#d4d404" fill-opacity="1"></path>
            </g>
            <g transform="rotate(-10.400062561035156 34.001708984375 20.0595703125)">
                <title>Rectangle 166</title>
                <path d="M33.81543,20.60205v0v-1.03809v0h1.03821v0v1.03809v0z" fill="#ffffff" fill-opacity="1"></path>
            </g>
            <g transform="rotate(-10.369725227355957 30.99658203125 18.4638671875)">
                <title>Rectangle 167</title>
                <path d="M30.27869,18.96387v0v-1v0h1.03821v0v1v0z" fill="#27afba" fill-opacity="1"></path>
            </g>
            <g>
                <title>Path 546</title>
                <path d="M32.0531,19.42285v0l0.18555,1.02979v0l1.02283,-0.18799v0l-0.18542,-1.0293v0z" fill="#74b02e"
                      fill-opacity="1"></path>
            </g>
            <g transform="rotate(-10.380282402038574 31.0323486328125 20.02880859375)">
                <title>Rectangle 168</title>
                <path d="M30.84448,20.22754v0v-0.72705v0h0.72839v0v0.72705v0z" fill="#ffffff" fill-opacity="1"></path>
            </g>
            <g transform="rotate(-10.380282402038574 32.5325927734375 21.50732421875)">
                <title>Rectangle 169</title>
                <path d="M32.22485,21.69434v0v-0.68701v0h0.72839v0v0.68701v0z" fill="#59ab4c" fill-opacity="1"></path>
            </g>
            <g>
                <title>Path 547</title>
                <path d="M38,20.31982v0l-0.69617,1.50439v0l1.50745,0.71289v0l0.71143,-1.53711v0z" fill="#28316f"
                      fill-opacity="1"></path>
            </g>
            <g>
                <title>Path 548</title>
                <path d="M35.87793,19.625v0l-0.57751,1.20898v0l1.21155,0.5791v0l0.57751,-1.20898v0z" fill="#27afba"
                      fill-opacity="1"></path>
            </g>
            <g transform="rotate(-64.52989959716797 37.1175537109375 23.64599609375)">
                <title>Rectangle 170</title>
                <path d="M36.62842,24.29199v0v-1.33691v0h1.33557v0v1.33691v0z" fill="#74b02e" fill-opacity="1"></path>
            </g>
            <g>
                <title>Path 549</title>
                <path d="M35.28455,21.68652v0l-0.44727,0.93945v0l0.93994,0.44727v0l0.44727,-0.93945v0z" fill="#d4d404"
                      fill-opacity="1"></path>
            </g>
            <g>
                <title>Path 550</title>
                <path d="M35.75757,24.42529v0l-0.44592,0.93994v0l0.94263,0.44727v0l0.44592,-0.93994v0z" fill="#d4d404"
                      fill-opacity="1"></path>
            </g>
            <g>
                <title>Path 551</title>
                <path d="M33.79797,21.12744v0l-0.45154,0.93652v0l0.9425,0.45166v0l0.44592,-0.94238v0z" fill="#2882c5"
                      fill-opacity="1"></path>
            </g>
            <g>
                <title>Path 552</title>
                <path d="M34.52075,23.30127v0l-0.45154,0.93311v0l0.93079,0.44434v0l0.45776,-0.93311v0z" fill="#ffffff"
                      fill-opacity="1"></path>
            </g>
            <g transform="rotate(-64.51990509033203 33.423828125 23.12939453125)">
                <title>Rectangle 171</title>
                <path d="M33.11902,23.62061v0v-0.72852v0h0.73706v0v0.72852v0z" fill="#74b02e" fill-opacity="1"></path>
            </g>
            <g transform="rotate(-64.55988311767578 33.7724609375 24.91015625)">
                <title>Rectangle 172</title>
                <path d="M33.22327,25.41211v0v-0.72852v0h0.72705v0v0.72852v0z" fill="#27afba" fill-opacity="1"></path>
            </g>
            <g>
                <title>Path 553</title>
                <path d="M38.8208,27.50879v0l-1.45911,0.79736v0l0.79993,1.45898v0l1.45923,-0.76514v0z" fill="#2882c5"
                      fill-opacity="1"></path>
            </g>
            <g>
                <title>Path 554</title>
                <path d="M37.49902,25.6958v0l-1.17078,0.64502v0l0.67175,1.1709v0l1.1438,-0.64502v0z" fill="#27afba"
                      fill-opacity="1"></path>
            </g>
            <g>
                <title>Path 555</title>
                <path d="M36.56519,28.67773v0l-1.18018,0.64453v0l0.61499,1.1709v0l1.21204,-0.64453v0z" fill="#27afba"
                      fill-opacity="1"></path>
            </g>
            <g>
                <title>Path 556</title>
                <path d="M35.81335,27v0l-0.90967,0.52637v0l0.49976,0.91016v0l0.90405,-0.50293v0z" fill="#28316f"
                      fill-opacity="1"></path>
            </g>
            <g>
                <title>Path 557</title>
                <path d="M34.59717,29.51904v0l-0.91321,0.48096v0l0.50171,0.93262v0l0.91321,-0.49756v0z" fill="#59ab4c"
                      fill-opacity="1"></path>
            </g>
            <g>
                <title>Path 558</title>
                <path d="M34.92603,25.70166v0l-0.92603,0.50293v0l0.51453,0.91064v0l0.91321,-0.49756v0z" fill="#213466"
                      fill-opacity="1"></path>
            </g>
            <g>
                <title>Path 559</title>
                <path d="M34.24548,27.88721v0l-0.91602,0.49902v0l0.5033,0.91309v0l0.9104,-0.49902v0z" fill="#d4d404"
                      fill-opacity="1"></path>
            </g>
            <g>
                <title>Path 560</title>
                <path d="M33.71606,26.68994v0l-0.64636,0.31006v0l0.35718,0.6875v0l0.64075,-0.35693v0z" fill="#ffffff"
                      fill-opacity="1"></path>
            </g>
            <g transform="rotate(-28.699716567993164 32.5281982421875 29.04150390625)">
                <title>Rectangle 173</title>
                <path d="M32.25513,29.36719v0v-0.72705v0h0.77307v0v0.72705v0z" fill="#27afba" fill-opacity="1"></path>
            </g>
            <g transform="rotate(-82.96991729736328 34.3157958984375 34.36181640625)">
                <title>Rectangle 174</title>
                <path d="M33.31812,35.23096v0v-1.67236v0h1.66064v0v1.67236v0z" fill="#74b02e" fill-opacity="1"></path>
            </g>
            <g transform="rotate(-82.96011352539062 34.35546875 32.1357421875)">
                <title>Rectangle 175</title>
                <path d="M33.69543,32.95361v0v-1.33643v0h1.33557v0v1.33643v0z" fill="#213466" fill-opacity="1"></path>
            </g>
            <g transform="rotate(-82.96011352539062 31.97607421875 34.0126953125)">
                <title>Rectangle 176</title>
                <path d="M31.30908,34.70215v0v-1.33691v0h1.32556v0v1.33691v0z" fill="#27afba" fill-opacity="1"></path>
            </g>
            <g transform="rotate(-82.96991729736328 32.4085693359375 32.1162109375)">
                <title>Rectangle 177</title>
                <path d="M31.90857,32.74316v0v-1.03857v0h1v0v1.03857v0z" fill="#74b02e" fill-opacity="1"></path>
            </g>
            <g transform="rotate(-82.96991729736328 29.6346435546875 33.447265625)">
                <title>Rectangle 178</title>
                <path d="M29.18152,34.44727v0v-1.09521v0h1.03821v0v1.09521v0z" fill="#ffffff" fill-opacity="1"></path>
            </g>
            <g transform="rotate(-82.93994140625 32.6103515625 30.119140625)">
                <title>Rectangle 179</title>
                <path d="M31.6759,30.61914v0v-1v0h1.04822v0v1v0z" fill="#ffffff" fill-opacity="1"></path>
            </g>
            <g transform="rotate(-82.93994140625 30.89013671875 31.6552734375)">
                <title>Rectangle 180</title>
                <path d="M30.11584,32.06787v0v-1.03857v0h1.04834v0v1.03857v0z" fill="#74b02e" fill-opacity="1"></path>
            </g>
            <g transform="rotate(-82.99010467529297 31.1953125 30.67138671875)">
                <title>Rectangle 181</title>
                <path d="M31.02405,31.02051v0v-0.73877v0h0.72705v0v0.73877v0z" fill="#ffffff" fill-opacity="1"></path>
            </g>
            <g transform="rotate(-82.99010467529297 29.5244140625 31.2392578125)">
                <title>Rectangle 182</title>
                <path d="M29.02441,31.46631v0v-0.72705v0h0.73132v0v0.72705v0z" fill="#ffffff" fill-opacity="1"></path>
            </g>
            <g>
                <title>Path 561</title>
                <path d="M28.68225,36.84326v0l-1.22278,-1.12891v0l-1.12708,1.21924v0l1.21716,1.12939v0z" fill="#d4d404"
                      fill-opacity="1"></path>
            </g>
            <g>
                <title>Path 562</title>
                <path d="M28.46643,13.55957v0l-1.22241,-1.13477v0l-1.13757,1.21924v0l1.22241,1.12939v0z" fill="#74b02e"
                      fill-opacity="1"></path>
            </g>
            <g>
                <title>Path 563</title>
                <path d="M30,35v0l-1,-0.88965v0l-0.90002,0.9751v0l0.9751,0.91455v0z" fill="#27afba"
                      fill-opacity="1"></path>
            </g>
            <g>
                <title>Path 564</title>
                <path d="M26.8595,35.0708v0l-0.98364,-0.90381v0l-0.87585,0.97705v0l0.94934,0.85596v0z" fill="#74b02e"
                      fill-opacity="1"></path>
            </g>
            <g>
                <title>Path 565</title>
                <path d="M28.18994,33.83301v0l-0.75916,-0.70508v0l-0.70874,0.76123v0l0.75928,0.70508v0z" fill="#2882c5"
                      fill-opacity="1"></path>
            </g>
            <g transform="rotate(-47.16032409667969 24.904296875 33.2802734375)">
                <title>Rectangle 183</title>
                <path d="M24.0863,33.78027v0v-1v0h1.03821v0v1v0z" fill="#d4d404" fill-opacity="1"></path>
            </g>
            <g>
                <title>Path 566</title>
                <path d="M29.18127,32.58496v0l-0.76147,-0.70508v0l-0.70508,0.76123v0l0.76147,0.70508v0z" fill="#d4d404"
                      fill-opacity="1"></path>
            </g>
            <g>
                <title>Path 567</title>
                <path d="M26.87854,32.62451v0l-0.7616,-0.70508v0l-0.70508,0.76123v0l0.76147,0.70508v0z" fill="#ffffff"
                      fill-opacity="1"></path>
            </g>
            <g>
                <title>Path 568</title>
                <path d="M27.85498,31.74316v0l-0.53833,-0.49023v0l-0.49854,0.52979v0l0.53821,0.49561v0z" fill="#213466"
                      fill-opacity="1"></path>
            </g>
            <g>
                <title>Path 569</title>
                <path d="M25.85583,31.38428v0l-0.53833,-0.49854v0l-0.49854,0.53857v0l0.53821,0.49854v0z" fill="#ffffff"
                      fill-opacity="1"></path>
            </g>
            <g transform="rotate(-11.32004451751709 20.5390625 35.0146484375)">
                <title>Rectangle 184</title>
                <path d="M19.79614,35.65479v0v-1.64014v0h1.672v0v1.64014v0z" fill="#2882c5" fill-opacity="1"></path>
            </g>
            <g transform="rotate(-11.330045700073242 22.9541015625 33.98828125)">
                <title>Rectangle 185</title>
                <path d="M22.2085,34.88232v0v-1.33545v0h1.33691v0v1.33545v0z" fill="#27afba" fill-opacity="1"></path>
            </g>
            <g transform="rotate(-11.339933395385742 20.0196533203125 32.5673828125)">
                <title>Rectangle 186</title>
                <path d="M19.69702,33.16992v0v-1.33545v0h1.32263v0v1.33545v0z" fill="#74b02e" fill-opacity="1"></path>
            </g>
            <g transform="rotate(-11.32004451751709 21.9415283203125 32.0693359375)">
                <title>Rectangle 187</title>
                <path d="M21.74219,32.9209v0v-1.03857v0h1.03833v0v1.03857v0z" fill="#d4d404" fill-opacity="1"></path>
            </g>
            <g transform="rotate(-11.32004451751709 24.0169677734375 31.96875)">
                <title>Rectangle 188</title>
                <path d="M23.34497,32.39258v0v-1.04834v0h1.03821v0v1.04834v0z" fill="#28316f" fill-opacity="1"></path>
            </g>
            <g transform="rotate(-11.32004451751709 22.0819091796875 30.9853515625)">
                <title>Rectangle 189</title>
                <path d="M21.52893,31.08838v0v-1.03809v0h1.03821v0v1.03809v0z" fill="#2882c5" fill-opacity="1"></path>
            </g>
            <g transform="rotate(-11.53462028503418 23.509521484375 30.5078125)">
                <title>Rectangle 190</title>
                <path d="M23.19202,30.82324v0v-0.72705v0h0.72864v0v0.72705v0z" fill="#74b02e" fill-opacity="1"></path>
            </g>
            <g transform="rotate(-11.53462028503418 22.003662109375 29.02685546875)">
                <title>Rectangle 191</title>
                <path d="M21.77527,29.38525v0v-0.72754v0h0.72864v0v0.72754v0z" fill="#ffffff" fill-opacity="1"></path>
            </g>
            <g>
                <title>Path 570</title>
                <path d="M16.62207,30.18213v0l0.68835,-1.50537v0l-1.51782,-0.67676v0l-0.68835,1.49414v0z" fill="#27afba"
                      fill-opacity="1"></path>
            </g>
            <g transform="rotate(-65.48011779785156 18.49169921875 29.90869140625)">
                <title>Rectangle 192</title>
                <path d="M17.75061,30.53906v0v-1.33691v0h1.33557v0v1.33691v0z" fill="#d4d404" fill-opacity="1"></path>
            </g>
            <g transform="rotate(-65.44986724853516 17.21630859375 27.35595703125)">
                <title>Rectangle 193</title>
                <path d="M16.93713,28.03662v0v-1.33691v0h1.33557v0v1.33691v0z" fill="#2882c5" fill-opacity="1"></path>
            </g>
            <g transform="rotate(-65.4901351928711 18.953125 28.107421875)">
                <title>Rectangle 194</title>
                <path d="M18.49011,28.71387v0v-1.03809v0h1.03821v0v1.03809v0z" fill="#27afba" fill-opacity="1"></path>
            </g>
            <g>
                <title>Path 571</title>
                <path d="M20.59204,31.13672v0l0.40796,-0.94482v0l-0.92114,-0.42969v0l-0.4342,0.94434v0z" fill="#ffffff"
                      fill-opacity="1"></path>
            </g>
            <g transform="rotate(-65.46987915039062 18.41259765625 24.7861328125)">
                <title>Rectangle 195</title>
                <path d="M17.4126,25.65576v0v-1.03857v0h1.0542v0v1.03857v0z" fill="#28316f" fill-opacity="1"></path>
            </g>
            <g>
                <title>Path 572</title>
                <path d="M20.82043,29.30664v0l0.43164,-0.94434v0l-0.95422,-0.43018v0l-0.43164,0.94482v0z" fill="#59ab4c"
                      fill-opacity="1"></path>
            </g>
            <g transform="rotate(-65.46987915039062 19.4638671875 26.0869140625)">
                <title>Rectangle 196</title>
                <path d="M18.74426,27.08691v0v-1.05859v0h1.03821v0v1.05859v0z" fill="#d4d404" fill-opacity="1"></path>
            </g>
            <g transform="rotate(-65.46987915039062 20.736328125 27.20068359375)">
                <title>Rectangle 197</title>
                <path d="M20.39136,27.87061v0v-0.72803v0h0.73718v0v0.72803v0z" fill="#213466" fill-opacity="1"></path>
            </g>
            <g>
                <title>Path 573</title>
                <path d="M20.91504,25.77783v0l0.30225,-0.66064v0l-0.66052,-0.30225v0l-0.30225,0.66064v0z" fill="#74b02e"
                      fill-opacity="1"></path>
            </g>
            <g>
                <title>Path 574</title>
                <path d="M15.68164,23v0l1.4458,-0.80811v0l-0.82458,-1.44287v0l-1.4458,0.82031v0z" fill="#27afba"
                      fill-opacity="1"></path>
            </g>
            <g>
                <title>Path 575</title>
                <path d="M17,24.80762v0l1.20313,-0.66797v0l-0.66382,-1.13965v0l-1.16321,0.6416v0z" fill="#74b02e"
                      fill-opacity="1"></path>
            </g>
            <g>
                <title>Path 576</title>
                <path d="M17.92139,21.80908v0l1.15955,-0.66211v0l-0.66418,-1.14697v0l-1.15393,0.64893v0z" fill="#213466"
                      fill-opacity="1"></path>
            </g>
            <g>
                <title>Path 577</title>
                <path d="M18.7019,23.4458v0l0.90198,-0.51318v0l-0.51294,-0.93262v0l-0.90198,0.54395v0z" fill="#2882c5"
                      fill-opacity="1"></path>
            </g>
            <g>
                <title>Path 578</title>
                <path d="M19.89063,20.92725v0l0.89929,-0.51318v0l-0.51709,-0.90186v0l-0.89929,0.48779v0z" fill="#74b02e"
                      fill-opacity="1"></path>
            </g>
            <g>
                <title>Path 579</title>
                <path d="M19.60754,24.76025v0l0.90564,-0.5166v0l-0.51318,-0.9082v0l-0.91309,0.5166v0z" fill="#27afba"
                      fill-opacity="1"></path>
            </g>
            <g>
                <title>Path 580</title>
                <path d="M20.25708,22.55908v0l0.90552,-0.55908v0l-0.51501,-0.85596v0l-0.91125,0.51318v0z" fill="#d4d404"
                      fill-opacity="1"></path>
            </g>
            <g transform="rotate(-29.66983413696289 20.8651123046875 23.00146484375)">
                <title>Rectangle 198</title>
                <path d="M20.4353,23.61621v0v-0.72705v0h0.73828v0v0.72705v0z" fill="#ffffff" fill-opacity="1"></path>
            </g>
            <g>
                <title>Path 581</title>
                <path d="M21.75598,22v0l0.63855,-0.40723v0l-0.39453,-0.59277v0l-0.61475,0.3208v0z" fill="#74b02e"
                      fill-opacity="1"></path>
            </g>
            <g transform="rotate(-83.9002456665039 20.119140625 15.982421875)">
                <title>Rectangle 199</title>
                <path d="M19.33875,16.74121v0v-1.67187v0h1.66064v0v1.67188v0z" fill="#74b02e" fill-opacity="1"></path>
            </g>
            <g transform="rotate(-83.85987854003906 19.63427734375 18.19384765625)">
                <title>Rectangle 200</title>
                <path d="M18.88989,19.19385v0v-1.36523v0h1.33557v0v1.36523v0z" fill="#ffffff" fill-opacity="1"></path>
            </g>
            <g transform="rotate(-83.85987854003906 22.52490234375 16.30712890625)">
                <title>Rectangle 201</title>
                <path d="M21.76917,16.86621v0v-1.33691v0h1.32556v0v1.33691v0z" fill="#27afba" fill-opacity="1"></path>
            </g>
            <g transform="rotate(-83.9197998046875 21.611328125 18.18701171875)">
                <title>Rectangle 202</title>
                <path d="M20.99854,19.01221v0v-1.03809v0h1.03821v0v1.03809v0z" fill="#d4d404" fill-opacity="1"></path>
            </g>
            <g transform="rotate(-83.88005065917969 24.35302734375 17.29296875)">
                <title>Rectangle 203</title>
                <path d="M24.17676,17.76465v0v-1.03809v0h1.03821v0v1.03809v0z" fill="#2882c5" fill-opacity="1"></path>
            </g>
            <g transform="rotate(-83.88005065917969 21.99267578125 19.7724609375)">
                <title>Rectangle 204</title>
                <path d="M21.34167,20.18066v0v-1.03857v0h1.03821v0v1.03857v0z" fill="#27afba" fill-opacity="1"></path>
            </g>
            <g transform="rotate(-83.88005065917969 23.72314453125 18.1923828125)">
                <title>Rectangle 205</title>
                <path d="M22.89783,18.69238v0v-1v0h1.03821v0v1v0z" fill="#74b02e" fill-opacity="1"></path>
            </g>
            <g transform="rotate(-83.85987854003906 23.32080078125 20.1875)">
                <title>Rectangle 206</title>
                <path d="M23.2168,20.4751v0v-0.73828v0h0.73718v0v0.73828v0z" fill="#213466" fill-opacity="1"></path>
            </g>
            <g transform="rotate(-83.91004180908203 25.0517578125 19.087890625)">
                <title>Rectangle 207</title>
                <path d="M24.76526,19.47461v0v-0.73828v0h0.72705v0v0.73828v0z" fill="#ffffff" fill-opacity="1"></path>
            </g>
            <g>
                <title>Path 582</title>
                <path d="M32.53967,26.26709c-0.20959,-0.11865 -0.43103,-0.21533 -0.66077,-0.26709c-0.58777,-0.20508 -1.21057,-0.24951 -1.8186,-0.15088c-0.26721,0.04395 -0.53003,0.15088 -0.78503,0.20361h-0.0791c-0.14221,0.05273 -0.28174,0.11328 -0.41785,0.18066l-0.35583,0.19775c-0.2655,0.16357 -0.53088,0.3501 -0.79077,0.56885c-0.2052,-1.40918 -0.23376,-2.83398 -0.08472,-4.24609v0c0.62695,0.39551 0.453,1.49707 0.32202,1.81299v0c0.5293,-0.56689 0.62378,-1.49023 0.23718,-2.20264v0c0.40417,0.29346 0.65833,0.75 0.6947,1.24854c0.00842,0.14063 0.00842,0.28223 0,0.38721c0,0.07031 0,0.09814 0,0.12646v0c0.26453,-0.51807 0.26453,-1.12646 0,-1.64941c-0.0946,-0.17822 -0.21448,-0.3418 -0.35583,-0.47705l-0.14124,-0.14404v0v0v0l0.13562,0.03955c0.12732,0.04395 0.24731,0.10449 0.35583,0.18652c0.20471,0.17432 0.38623,0.40723 0.47998,0.67188c0.07373,0.19531 0.11194,0.40186 0.11292,0.61035v0c0.13721,-0.36426 0.09192,-0.86523 -0.12415,-1.24268c-0.11401,-0.19922 -0.26404,-0.36963 -0.46313,-0.49707c-0.1123,-0.06592 -0.23169,-0.11914 -0.35583,-0.1582c-0.05542,-0.01709 -0.11206,-0.03076 -0.16943,-0.03955v0v0h0.16943c0.1189,0 0.23792,0.00928 0.35559,0.02832c0.19934,0.03076 0.34692,0.09814 0.49719,0.19775c0.1355,0.09131 0.24768,0.21289 0.32764,0.34717v0c-0.02515,-0.24951 -0.14844,-0.48828 -0.34448,-0.6582c-0.13721,-0.12842 -0.28101,-0.22461 -0.4801,-0.28223c-0.11572,-0.05957 -0.23547,-0.05957 -0.35583,-0.05957c-0.15063,0 -0.30042,0 -0.44507,0.08789v0c0.11597,-0.15283 0.2749,-0.26367 0.45642,-0.31641c0.11475,-0.03662 0.23535,-0.05225 0.35571,-0.04492c0.09961,0.00732 0.18787,0.03223 0.28809,0.07324v0c-0.10022,-0.09814 -0.18591,-0.18018 -0.29932,-0.24268c-0.1095,-0.06201 -0.23071,-0.10059 -0.35583,-0.11328c-0.3429,-0.03906 -0.67688,0.12695 -0.85278,0.42383v0c-0.03955,-0.07373 -0.0791,-0.1582 -0.11865,-0.24316c-0.09021,-0.20557 -0.15466,-0.42187 -0.19202,-0.62451v0c-0.04187,0.20215 -0.10815,0.41797 -0.19763,0.62451c-0.03271,0.08447 -0.08398,0.16553 -0.08398,0.24316v0c-0.18555,-0.27881 -0.46973,-0.45947 -0.78601,-0.47803c-0.31628,-0.01807 -0.61963,0.12842 -0.80176,0.3877v0c0.38818,-0.16455 0.8385,-0.04639 1.09558,0.28809v0c-0.50781,-0.18018 -1.05225,-0.06543 -1.40625,0.3501c-0.10156,0.1582 -0.21704,0.35645 -0.23157,0.58447v0c0.05554,-0.12158 0.13,-0.21191 0.22021,-0.28516c0.31506,-0.25977 0.72681,-0.37061 1.12964,-0.30518v0c-0.50757,0.08936 -0.93396,0.43262 -1.12964,0.90967c-0.09021,0.32764 -0.09021,0.68066 0,1.01074v0c-0.00208,-0.00928 -0.00208,-0.01904 0,-0.02832c-0.01465,-0.68408 0.43652,-1.30176 1.0957,-1.47412v0c-0.67896,0.54102 -0.88635,1.4834 -0.49695,2.25928v0c-0.11487,-0.6499 0.12378,-1.31201 0.62683,-1.73975v0c-0.38501,0.71338 -0.3158,1.59082 0.24292,2.20313v0c-0.13562,-0.31641 -0.31067,-1.41797 0.31628,-1.81299v0c0.125,1.4082 0.125,2.8291 -0.08472,4.2627c-0.47156,-0.41602 -0.9967,-0.72803 -1.55884,-1h-0.23145c-0.43652,-0.18799 -0.93835,-0.25879 -1.44031,-0.23535c-0.55969,0.01953 -1.04919,0.15039 -1.55969,0.38379l-0.11206,0.0791v0v0.02832v0l0.11206,-0.03955c0.51831,-0.14258 1,-0.21631 1.54834,-0.15234c0.51257,0.04834 1.01294,0.18408 1.45166,0.40088c0.66187,0.2959 1.25269,0.67578 1.78455,1.12988c-0.55554,0.53467 -1.14197,1.03613 -1.78455,1.50244v0.03369c-0.12854,-0.13086 -0.29504,-0.19531 -0.45764,-0.13086c-0.14905,0 -0.26538,0.12305 -0.30493,0.27197c-0.03625,0.12451 -0.00647,0.25879 0.0791,0.35596c0.18591,0.19189 0.47729,0.23584 0.68347,0.10742c0.74146,-0.45654 1.39417,-1.00098 2,-1.62109l0.17432,-0.18066v0l0.19763,0.1748c0.35583,0.32764 0.68335,0.64941 0.98267,0.8916c0.12427,0.14209 0.24292,0.24365 0.35583,0.33398c0.15198,0.13379 0.28955,0.24902 0.49707,0.34473c0.23071,0.18018 0.55432,0.18018 0.79248,0v-0.03369c0.10107,-0.10254 0.13159,-0.23096 0.11121,-0.35596c-0.02136,-0.0752 -0.11121,-0.14355 -0.11121,-0.19775c-0.06042,-0.09131 -0.12683,-0.09131 -0.19946,-0.09131c-0.16113,0 -0.32703,0 -0.42358,0.14795l-0.16943,-0.14795c-0.14124,-0.05566 -0.31067,-0.19092 -0.49707,-0.35498c-0.18628,-0.16357 -0.23157,-0.20312 -0.35571,-0.32178c-0.24292,-0.22021 -0.5083,-0.46338 -0.79639,-0.71191c0.25415,-0.20898 0.51953,-0.41211 0.79639,-0.61133l0.35571,-0.21338c0.16077,-0.09717 0.28955,-0.18604 0.49707,-0.26514c0.2522,-0.12305 0.51489,-0.22363 0.79248,-0.29932c0.5824,-0.22217 1.20422,-0.22217 1.81116,-0.11328c0.18884,0.03613 0.43298,0.08691 0.6438,0.15283v-0.02832v0"
                      fill="#ffffff" fill-opacity="1"></path>
            </g>
            <g>
                <title>Rectangle 208</title>
                <path d="M3.86731,44.86426v0v-0.49268v0h0.49268v0v0.49268v0z" fill="#ffffff" fill-opacity="1"></path>
            </g>
            <g>
                <title>Path 583</title>
                <path d="M36.89795,43.80615v0v-3.23584v0h-0.47998v0v2.76172v0h-1.80151v0v-2.76172v0h-0.4801v0v2.76172v0h-1.89746v0v-2.76172v0h-0.7511c-0.27612,-0.00439 -0.55103,0.0376 -0.81323,0.12402c-0.22766,0.07031 -0.43884,0.18555 -0.62122,0.30566c-0.17017,0.17285 -0.30713,0.34814 -0.40088,0.54736c-0.20325,0.45264 -0.20325,0.9375 0,1.37207c0.10327,0.19775 0.25,0.36963 0.4292,0.50293c0.18933,0.13379 0.40186,0.23145 0.62683,0.28809c0.2915,0.06641 0.50122,0.09863 0.75671,0.0957zM30.78186,43.2417c-0.15002,-0.04687 -0.28979,-0.12158 -0.41223,-0.2417c-0.11511,-0.07959 -0.20923,-0.20264 -0.27673,-0.34033c-0.0929,-0.1499 -0.0929,-0.31396 -0.0929,-0.47998c0,-0.17969 0,-0.32373 0.10425,-0.46875c0.07166,-0.13965 0.17163,-0.2627 0.29358,-0.36133c0.12134,-0.10303 0.26123,-0.18164 0.41235,-0.23145c0.18982,-0.05566 0.31628,-0.11816 0.47998,-0.11816h0.46875v0v2.29248v0h-0.46875c-0.17249,0 -0.34399,-0.02637 -0.5083,-0.0791"
                      fill="#ffffff" fill-opacity="1"></path>
            </g>
            <g>
                <title>Rectangle 209</title>
                <path d="M26.67126,43.80762v0v-4.28125v0h0.47998v0v4.28125v0z" fill="#ffffff" fill-opacity="1"></path>
            </g>
            <g>
                <title>Rectangle 210</title>
                <path d="M31.74255,40v0v-0.47363v0h0.49268v0v0.47363v0z" fill="#ffffff" fill-opacity="1"></path>
            </g>
            <g>
                <title>Rectangle 211</title>
                <path d="M36.40723,44.8584v0v-0.49219v0h0.49268v0v0.49219v0z" fill="#ffffff" fill-opacity="1"></path>
            </g>
            <g>
                <title>Rectangle 212</title>
                <path d="M4.70313,44.86426v0v-0.49268v0h0.49268v0v0.49268v0z" fill="#ffffff" fill-opacity="1"></path>
            </g>
            <g>
                <title>Path 584</title>
                <path d="M24.80042,39.52979h0.47437v4.28076h-1.37793c-0.11572,-0.00293 -0.23108,-0.01611 -0.34448,-0.03955c-0.11584,-0.02734 -0.22778,-0.06885 -0.33325,-0.12402c-0.08228,-0.04639 -0.15662,-0.10547 -0.21912,-0.17529c-0.05737,-0.06201 -0.10669,-0.13037 -0.14795,-0.20312c-0.10107,0.19971 -0.26331,0.36182 -0.46301,0.46289c-0.23071,0.10303 -0.48157,0.15332 -0.73413,0.14697c-0.24719,0.00537 -0.4917,-0.05078 -0.71167,-0.16357c-0.19458,-0.10254 -0.35681,-0.25684 -0.46863,-0.44629c-0.23169,0.35986 -0.63379,0.57373 -1.06177,0.56494h-7.41284v0.09033c0,0.32764 -0.12585,0.64893 -0.34656,0.89209c-0.27844,0.24609 -0.65344,0.3667 -1.01648,0.33301c-0.1427,0 -0.28491,-0.01709 -0.42358,-0.05078c-0.21338,-0.04102 -0.32703,-0.09814 -0.48572,-0.15234l0.14685,-0.46289c0.12549,0.05957 0.26343,0.10889 0.401,0.14648c0.13171,0.02881 0.26624,0.04199 0.40088,0.03955c0.21313,0.01318 0.42493,-0.04199 0.60425,-0.1582c0.16272,-0.13965 0.24341,-0.35205 0.2146,-0.56445v-0.14111h-0.28796c-0.20728,0.00195 -0.5094,-0.02832 -0.75671,-0.09033c-0.22705,-0.05566 -0.45056,-0.15332 -0.63257,-0.28809c-0.18018,-0.12744 -0.32727,-0.2959 -0.4292,-0.49121c-0.11145,-0.22656 -0.16577,-0.47656 -0.15808,-0.72852c-0.0011,-0.45605 0.20715,-0.88672 0.5647,-1.20703c0.20459,-0.11523 0.39429,-0.23193 0.62122,-0.30664c0.26038,-0.08643 0.53333,-0.12842 0.80762,-0.12402h0.77576v2.76123h1.64124l-0.84143,-1.99902c0.12756,-0.11279 0.26147,-0.21826 0.401,-0.33154c0.13904,-0.08252 0.28638,-0.16748 0.44043,-0.23877c0.14819,-0.07227 0.30334,-0.12891 0.46313,-0.16943c0.15051,-0.04297 0.30652,-0.06396 0.46301,-0.06201c0.15662,-0.00146 0.3125,0.01953 0.43262,0.06201c0.18848,0.04053 0.3418,0.09717 0.48792,0.16943c0.1554,0.07471 0.30457,0.16162 0.44617,0.23877c0.1416,0.11621 0.27734,0.22021 0.40662,0.33154l-0.84143,1.99902h2.50073v-2.46191h0.48669v2.46191h0.92615c0.10327,-0.00049 0.20605,-0.01562 0.30493,-0.04492c0.09485,-0.03027 0.18298,-0.07812 0.28223,-0.14111c0.05457,-0.07178 0.11609,-0.14453 0.15833,-0.25439c0.04358,-0.11914 0.06458,-0.24561 0.06213,-0.37256v-1.65479h0.47998v1.69434c0.00061,0.11182 0.02771,0.22217 0.0791,0.32178c0.04541,0.12109 0.11072,0.19092 0.22046,0.26563c0.0592,0.07813 0.16064,0.13965 0.27087,0.18066c0.12366,0.0415 0.25342,0.0625 0.38403,0.06201c0.24841,0.01904 0.49304,-0.06934 0.672,-0.24268c0.15259,-0.14453 0.23096,-0.4209 0.22021,-0.66113v-1.61475h0.45288c0,0.1499 0,1.83545 0,1.98193c0.06616,0.14941 0.19873,0.28467 0.36035,0.36133c0.20667,0.08838 0.43054,0.12891 0.63965,0.11865h0.80042zM11.51221,41.05469h-0.51221c-0.13867,-0.00195 -0.3031,0.02441 -0.45911,0.0791c-0.15027,0.0542 -0.28992,0.13428 -0.41223,0.2373c-0.12866,0.10059 -0.22266,0.22559 -0.2937,0.36719c-0.07507,0.14453 -0.11389,0.26172 -0.11292,0.46875c-0.00305,0.16553 0.03174,0.32959 0.10168,0.47998c0.06799,0.13525 0.17627,0.25488 0.28235,0.31299c0.12439,0.13574 0.26611,0.21045 0.41785,0.25732c0.16321,0.04834 0.3324,0.07324 0.47607,0.07324h0.51221zM15,43.33057l0.74768,-1.82959c-0.1593,-0.13672 -0.3407,-0.24561 -0.5365,-0.32178c-0.21118,-0.08203 -0.42322,-0.12402 -0.64368,-0.12451c-0.20581,-0.00049 -0.41016,0.03369 -0.5675,0.10156c-0.24402,0.08057 -0.43518,0.19727 -0.60156,0.34473l0.74548,1.82959z"
                      fill="#ffffff" fill-opacity="1"></path>
            </g>
            <g>
                <title>Rectangle 213</title>
                <path d="M2.22961,40v0v-0.47363v0h0.49268v0v0.47363v0z" fill="#ffffff" fill-opacity="1"></path>
            </g>
            <g>
                <title>Rectangle 214</title>
                <path d="M50.5708,40v0v-0.47363v0h0.49255v0v0.47363v0z" fill="#ffffff" fill-opacity="1"></path>
            </g>
            <g>
                <title>Rectangle 215</title>
                <path d="M46.34094,43.80762v0v-4.28125v0h0.47998v0v4.28125v0z" fill="#ffffff" fill-opacity="1"></path>
            </g>
            <g>
                <title>Rectangle 216</title>
                <path d="M30.90112,40v0v-0.47363v0h0.49268v0v0.47363v0z" fill="#ffffff" fill-opacity="1"></path>
            </g>
            <g>
                <title>Path 585</title>
                <path d="M8.47839,42c0.01184,-0.23682 -0.00732,-0.42725 -0.05652,-0.61133c-0.04358,-0.15527 -0.1228,-0.29785 -0.23132,-0.38867c-0.11731,-0.1626 -0.2616,-0.27002 -0.42334,-0.34424c-0.17957,-0.0708 -0.37146,-0.10547 -0.56445,-0.10156h-0.35559v0v0.4458v0h0.41772c0.1156,0 0.22937,0.05566 0.33301,0.10693c0.0979,0.04395 0.18457,0.10986 0.25403,0.19189c0.06445,0.07959 0.14807,0.17188 0.14807,0.27051c0,0.11865 0,0.23975 0,0.36084v1.38232v0h-2.22522v0v0.47363v0h2.70361v0z"
                      fill="#ffffff" fill-opacity="1"></path>
            </g>
            <g>
                <title>Rectangle 217</title>
                <path d="M71.63403,43.80762v0v-4.28125v0h0.47998v0v4.28125v0z" fill="#ffffff" fill-opacity="1"></path>
            </g>
            <g>
                <title>Rectangle 218</title>
                <path d="M51.40649,40v0v-0.47363v0h0.49268v0v0.47363v0z" fill="#ffffff" fill-opacity="1"></path>
            </g>
            <g>
                <title>Path 586</title>
                <path d="M70.24548,43.80518h-2.43408c-0.15857,0.19482 -0.35083,0.30762 -0.5647,0.40088c-0.2467,0.09766 -0.4668,0.14795 -0.71155,0.14697c-0.2395,0.00195 -0.47656,-0.04785 -0.6947,-0.14697c-0.21375,-0.09326 -0.40601,-0.20605 -0.5647,-0.40088h-2.10645c-0.16931,0.19482 -0.35083,0.30762 -0.5647,0.40088c-0.22449,0.09766 -0.4668,0.14795 -0.71155,0.14697c-0.2395,0.00195 -0.47656,-0.04785 -0.6947,-0.14697c-0.19836,-0.09326 -0.40613,-0.20605 -0.5647,-0.40088h-9.48193c-0.25537,0.00293 -0.51001,-0.0293 -0.75671,-0.09619c-0.22498,-0.05615 -0.39502,-0.15381 -0.62683,-0.28809c-0.17896,-0.13281 -0.32568,-0.30469 -0.4292,-0.50244c-0.33899,-0.64258 -0.15613,-1.41357 0.37842,-1.91846c0.18225,-0.12109 0.39343,-0.23633 0.62122,-0.30664c0.26208,-0.08691 0.53699,-0.12891 0.81311,-0.12402h0.7511v2.76709h4.42188v-0.73437c0.0011,-0.11572 -0.01025,-0.23096 -0.03381,-0.34424c-0.02637,-0.09961 -0.07458,-0.19238 -0.14124,-0.25781c-0.07129,-0.09814 -0.14966,-0.16406 -0.26538,-0.20557c-0.12415,-0.04785 -0.25659,-0.07129 -0.38965,-0.06738h-2.4397c-0.05493,-0.06445 -0.05493,-0.13672 -0.14124,-0.21484c-0.03589,-0.08496 -0.06055,-0.17432 -0.07336,-0.26562l0.92053,-1.69385h0.51953l-0.90356,1.69385h2.10645c0.19299,-0.00244 0.38477,0.03223 0.51672,0.10205c0.20825,0.07178 0.35083,0.17773 0.46594,0.31055c0.10413,0.12158 0.18103,0.26416 0.22583,0.41797c0.04773,0.16895 0.07251,0.34375 0.07349,0.51953v0.73389h1.51917v-3.80078h0.47998v3.82324h1.51917c-0.04504,-0.10937 -0.08093,-0.22266 -0.1073,-0.35303c-0.0249,-0.10645 -0.03821,-0.22949 -0.03955,-0.35254c-0.0011,-0.23242 0.04309,-0.4624 0.12988,-0.64746c0.08484,-0.24072 0.20935,-0.43213 0.36707,-0.59521c0.16125,-0.16064 0.36633,-0.2876 0.5647,-0.40479c0.21216,-0.05908 0.44104,-0.10547 0.672,-0.10352c0.23645,-0.00146 0.47083,0.04492 0.68896,0.10352c0.21216,0.11328 0.44067,0.23828 0.56482,0.39941c0.32642,0.32813 0.50745,0.77393 0.50256,1.23682c0.00183,0.24365 -0.05029,0.48438 -0.15247,0.70557h1.45703c-0.04504,-0.10986 -0.08093,-0.22314 -0.1073,-0.3418c-0.02771,-0.11719 -0.04089,-0.24023 -0.03955,-0.36377c-0.00183,-0.23291 0.04431,-0.46387 0.1355,-0.63623c0.08008,-0.25146 0.20154,-0.44336 0.35583,-0.60645c0.16272,-0.15918 0.35437,-0.28564 0.5647,-0.39355c0.21216,-0.07031 0.44104,-0.1167 0.672,-0.11475c0.23645,-0.00146 0.48755,0.04492 0.68909,0.11475c0.21204,0.10205 0.40442,0.22705 0.5647,0.38818c0.32434,0.3291 0.5033,0.77441 0.49695,1.23633c0.00183,0.24414 -0.05029,0.48486 -0.15247,0.70605h1.64331v-3.80078h0.4801zM51.42285,41h-0.42285c-0.20959,0 -0.37207,0.07227 -0.52588,0.12842c-0.15112,0.0498 -0.29102,0.12842 -0.41223,0.23145c-0.12195,0.09863 -0.22205,0.22168 -0.2937,0.36133c-0.0752,0.14453 -0.11389,0.27881 -0.11292,0.46875c-0.00305,0.16553 0.03162,0.32959 0.10156,0.47998c0.0675,0.1377 0.16162,0.26025 0.24316,0.33008c0.15674,0.12891 0.29639,0.20361 0.4458,0.25146c0.16431,0.05273 0.33582,0.07959 0.5542,0.0791h0.42285zM63.05066,43.11621c0.06433,-0.11621 0.09692,-0.32666 0.09607,-0.49707c0.00085,-0.17236 -0.03174,-0.34277 -0.09607,-0.50244c-0.05066,-0.1167 -0.15112,-0.2832 -0.26538,-0.39551c-0.11609,-0.11279 -0.25208,-0.20264 -0.401,-0.26562c-0.16003,-0.06201 -0.33081,-0.09277 -0.50256,-0.09033c-0.17065,-0.00342 -0.33997,0.0293 -0.49695,0.09619c-0.14551,0.06543 -0.27612,0.15918 -0.38477,0.27686c-0.10828,0.11426 -0.19446,0.26172 -0.25342,0.39502c-0.12061,0.3125 -0.12048,0.65869 0,0.97168c0.06018,0.14697 0.14844,0.28125 0.25342,0.39502c0.11609,0.11475 0.2489,0.20557 0.396,0.26563c0.15234,0.06934 0.31824,0.104 0.48572,0.10156c0.17029,0.00098 0.33923,-0.03174 0.49695,-0.09619c0.14941,-0.05664 0.28577,-0.14307 0.401,-0.25391c0.11426,-0.11572 0.22034,-0.25195 0.271,-0.40088zM67.68713,43.11621c-0.06482,0.14893 -0.15674,0.28516 -0.271,0.40088c-0.11523,0.11084 -0.25159,0.19727 -0.41614,0.25391c-0.14282,0.06396 -0.31152,0.09668 -0.48181,0.09619c-0.16919,0.00098 -0.33655,-0.03369 -0.51819,-0.10156c-0.11829,-0.06104 -0.24902,-0.15137 -0.35718,-0.26562c-0.11133,-0.11377 -0.19958,-0.24805 -0.25977,-0.39502c-0.12061,-0.31299 -0.12061,-0.65918 0,-0.97168c0.05896,-0.1333 0.14514,-0.28076 0.25415,-0.39502c0.10791,-0.11768 0.23853,-0.21143 0.36279,-0.27686c0.1781,-0.06689 0.34753,-0.09961 0.51819,-0.09619c0.17175,-0.00244 0.34241,0.02832 0.48181,0.09033c0.16968,0.06299 0.30566,0.15283 0.42175,0.26563c0.11426,0.1123 0.20447,0.27881 0.26538,0.39551c0.06433,0.15967 0.09692,0.33008 0.09607,0.50244c0.00085,0.17041 -0.03174,0.38086 -0.09607,0.49707"
                      fill="#ffffff" fill-opacity="1"></path>
            </g>
            <g>
                <title>Path 587</title>
                <path d="M1.22021,43.71045c0.24475,0.06641 0.49756,0.09863 0.77979,0.0957h3.08301v0v-3.23584v0h-0.4574v0v2.76172v0h-1.9032v0v-2.76172v0h-0.72241c-0.30481,-0.00439 -0.57971,0.0376 -0.84192,0.12402c-0.22705,0.07178 -0.43811,0.18701 -0.62122,0.30566c-0.16846,0.17285 -0.30359,0.34863 -0.39526,0.54736c-0.1416,0.20068 -0.1416,0.45264 -0.1416,0.64355c0,0.25293 0.05078,0.50293 0.16418,0.72852c0.10339,0.19775 0.25012,0.36963 0.4292,0.50293c0.18933,0.13379 0.40662,0.23145 0.62683,0.28809M0.48047,42.19092c-0.00977,-0.19092 0.01929,-0.32129 0.08472,-0.46875c0.08325,-0.12988 0.19055,-0.24316 0.31616,-0.33301c0.11865,-0.10303 0.26514,-0.18164 0.41797,-0.23145c0.15173,-0.05615 0.3125,-0.08496 0.47437,-0.08496h0.48572v0v2.25928v0h-0.48572c-0.17065,-0.00049 -0.34021,-0.02686 -0.50256,-0.0791c-0.15002,-0.04687 -0.27112,-0.12158 -0.41235,-0.25293c-0.24634,-0.17676 -0.38538,-0.48584 -0.3783,-0.80908"
                      fill="#ffffff" fill-opacity="1"></path>
            </g>
            <g>
                <title>Rectangle 219</title>
                <path d="M34.66223,44.86426v0v-0.49268v0h0.49268v0v0.49268v0z" fill="#ffffff" fill-opacity="1"></path>
            </g>
            <g>
                <title>Rectangle 220</title>
                <path d="M33.82642,44.86426v0v-0.49268v0h0.49268v0v0.49268v0z" fill="#ffffff" fill-opacity="1"></path>
            </g>
            <g>
                <title>Path 588</title>
                <path d="M40.35498,41.53467c0.16724,-0.146 0.35828,-0.2627 0.56482,-0.34424c0.1958,-0.06982 0.40198,-0.10645 0.60986,-0.10742c0.21912,0.00146 0.47034,0.0459 0.63818,0.12988c0.20569,0.07324 0.39685,0.18213 0.5647,0.32178l-0.73254,1.83008v0h-0.9165v0zM38.75684,44.40918c0.03076,-0.16553 0.0459,-0.33398 0.04517,-0.50244v-0.10156v0h6.14429v0v-4.27539v0h-0.47437v0v3.80078v0h-2.03308v0l0.83582,-1.99902c-0.12927,-0.11133 -0.27466,-0.21533 -0.40662,-0.33154c-0.13892,-0.07861 -0.28625,-0.16553 -0.44043,-0.23877c-0.14819,-0.07227 -0.30334,-0.12891 -0.42761,-0.16943c-0.1842,-0.04297 -0.33826,-0.06396 -0.49292,-0.06201c-0.15845,-0.00146 -0.31616,0.01953 -0.50708,0.06201c-0.12109,0.0415 -0.27625,0.09814 -0.4248,0.16943c-0.15405,0.07129 -0.30139,0.15625 -0.44043,0.23877c-0.13477,0.11279 -0.26978,0.21875 -0.39539,0.33154l0.84155,1.99902v0h-1.77893v0v-2.76123v0h-0.4801v0v3.3374c0.00977,0.09326 0.00977,0.22998 0,0.34424c-0.00635,0.07959 -0.02954,0.15625 -0.06775,0.22607c-0.03394,0.0542 -0.08301,0.09766 -0.14111,0.12402c-0.11304,0.02979 -0.11304,0.04346 -0.22034,0.03955h-0.11853v0h-0.12988v0l-0.12427,0.45752c0.12634,0.03809 0.25769,0.05713 0.38965,0.05664c0.14758,0.00488 0.29443,-0.02441 0.4292,-0.08496c0.11621,-0.06982 0.21582,-0.13721 0.28796,-0.24268c0.073,-0.11816 0.12451,-0.24805 0.15259,-0.38379"
                      fill="#ffffff" fill-opacity="1"></path>
            </g>
            <g>
                <title>Rectangle 221</title>
                <path d="M1.40369,40v0v-0.47363v0h0.48279v0v0.47363v0z" fill="#ffffff" fill-opacity="1"></path>
            </g>
            <g>
                <title>Path 589</title>
                <path d="M3.4281,46.94141v0h-0.7345v0l-1.62708,1.7168v0v-1.7168v0h-0.59888v0v3.41162v0h0.59888v0v-0.98828v0l0.53113,-0.54834v0l1.16943,1.53662v0h0.72314v0l-1.49023,-1.94336v0z"
                      fill="#ffffff" fill-opacity="1"></path>
            </g>
            <g>
                <title>Rectangle 222</title>
                <path d="M4,50.3418v0v-3.40039v0h0.63403v0v3.40039v0z" fill="#ffffff" fill-opacity="1"></path>
            </g>
            <g>
                <title>Path 590</title>
                <path d="M7.94165,49.29688v0l-1.82178,-2.35547v0h-0.55835v0v3.41162v0h0.58655v0v-2.42871v0l1.85193,2.42871v0h0.53381v0v-3.41162v0h-0.59216v0z"
                      fill="#ffffff" fill-opacity="1"></path>
            </g>
            <g>
                <title>Path 591</title>
                <path d="M11,49v0h0.89685v0v0.60547c-0.24219,0.16846 -0.53088,0.25684 -0.82605,0.25391c-0.32129,0.00928 -0.63135,-0.11865 -0.85266,-0.35107c-0.21814,-0.23291 -0.33289,-0.5083 -0.30713,-0.86816v0c-0.02026,-0.31201 0.08899,-0.64014 0.30432,-0.84619c0.21436,-0.22754 0.51392,-0.35693 0.78467,-0.35596c0.39746,-0.00928 0.74158,0.12256 1,0.3667l0.37769,-0.45166c-0.37769,-0.35303 -0.83105,-0.48584 -1.3125,-0.46289c-0.46997,-0.00586 -0.92249,0.17773 -1.25488,0.50928c-0.3324,0.33154 -0.51636,0.7832 -0.51025,1.25195v0c-0.02246,0.47266 0.15442,0.93311 0.48755,1.27002c0.33313,0.33643 0.79236,0.51904 1.26624,0.50244c0.52808,-0.00977 1.03455,-0.21045 1.42578,-0.56445v-1.41113v0h-1.47961v0z"
                      fill="#ffffff" fill-opacity="1"></path>
            </g>
            <g>
                <title>Path 592</title>
                <path d="M15.7666,48.63818c0.00037,0.30957 -0.12634,0.60596 -0.35059,0.81934c-0.22412,0.21387 -0.52612,0.32568 -0.83533,0.31055h-0.67212v0v-2.27637v0h0.67212c0.3092,-0.01514 0.61121,0.09668 0.83533,0.31055c0.22424,0.19775 0.35095,0.50977 0.35059,0.81934zM14.58069,46.94434v0h-1.27063v0v3.38818v0h1.27063c0.46948,0.0332 0.93152,-0.13086 1.27539,-0.45215c0.34387,-0.32129 0.53857,-0.77148 0.53735,-1.24219v0c0.00122,-0.4707 -0.19348,-0.92041 -0.53735,-1.2417c-0.34387,-0.32129 -0.80591,-0.48535 -1.27539,-0.45215"
                      fill="#ffffff" fill-opacity="1"></path>
            </g>
            <g>
                <title>Path 593</title>
                <path d="M19.8717,48.68262c0.02039,0.31738 -0.0896,0.61816 -0.30359,0.84619c-0.21411,0.22803 -0.51306,0.35693 -0.82581,0.35645c-0.31653,-0.00293 -0.61853,-0.1333 -0.83752,-0.36182c-0.21899,-0.22852 -0.33655,-0.52344 -0.32581,-0.85254v0c-0.0188,-0.31104 0.09192,-0.61572 0.30579,-0.84277c0.21387,-0.22656 0.51196,-0.35498 0.82361,-0.354c0.29163,0.00098 0.61804,0.13037 0.83728,0.35791c0.21912,0.22803 0.33679,0.53467 0.32605,0.85059zM18.74231,46.88086c-0.47546,-0.01514 -0.93665,0.11914 -1.27673,0.49658c-0.34009,0.33252 -0.52966,0.78955 -0.52478,1.26563v0c-0.0144,0.47803 0.16992,0.94043 0.50916,1.27783c0.33936,0.33691 0.8031,0.51855 1.28101,0.50098c0.47363,0.01221 0.93176,-0.16846 1.26904,-0.50098c0.33789,-0.33203 0.526,-0.7876 0.52124,-1.26123v0c0.00476,-0.4707 -0.18213,-0.92285 -0.52124,-1.25293c-0.33191,-0.33008 -0.78723,-0.50977 -1.25769,-0.49756"
                      fill="#ffffff" fill-opacity="1"></path>
            </g>
            <g>
                <title>Path 594</title>
                <path d="M22.94629,48.55664v0l-1.04053,-1.61523v0h-0.63904v0v3.41162v0h0.58813v0v-2.43457v0l1.06885,1.59277v0h0.02258v0l1.05371,-1.604v0v2.4458v0h0.62573v0v-3.41211v0h-0.62573v0z"
                      fill="#ffffff" fill-opacity="1"></path>
            </g>
            <g>
                <title>Path 595</title>
                <path d="M29.72974,48.66504c0.02039,0.33496 -0.0896,0.61865 -0.30371,0.84668c-0.21399,0.22803 -0.51306,0.35693 -0.82581,0.35645c-0.31104,-0.01025 -0.60022,-0.14453 -0.81726,-0.37207c-0.21204,-0.22803 -0.32434,-0.49609 -0.31213,-0.84229v0c-0.01868,-0.31104 0.09204,-0.65381 0.30591,-0.84277c0.22327,-0.22656 0.51184,-0.35498 0.82349,-0.35449c0.31604,0.00146 0.61816,0.13086 0.83728,0.3584c0.21924,0.18506 0.33679,0.53418 0.32617,0.8501zM28.60034,46.88037c-0.47363,-0.01221 -0.93176,0.11963 -1.26941,0.50098c-0.33093,0.33252 -0.52563,0.7876 -0.52087,1.26123v0c0,0.98535 0.79895,1.78467 1.78455,1.78467c0.9856,0 1.78455,-0.79932 1.78455,-1.78467v0c0.00647,-0.47119 -0.17993,-0.92432 -0.51575,-1.25488c-0.33582,-0.33057 -0.79211,-0.50977 -1.26306,-0.49561"
                      fill="#ffffff" fill-opacity="1"></path>
            </g>
            <g>
                <title>Path 596</title>
                <path d="M31.12695,50.35303v0h0.60461v0v-1.35303v0h1.71765v0v-0.58447v0h-1.71765v0v-0.92627v0h1.93799v0v-0.54785v0h-2.5426v0z"
                      fill="#ffffff" fill-opacity="1"></path>
            </g>
            <g>
                <title>Path 597</title>
                <path d="M37.10669,48.37305c-0.64905,-0.15771 -0.80713,-0.27051 -0.80713,-0.56396v0c0,-0.21973 0.20325,-0.3999 0.56445,-0.3999c0.33899,0.00977 0.66479,0.13281 0.92566,0.34961l0.32178,-0.45117c-0.34668,-0.30762 -0.78577,-0.43994 -1.23621,-0.42871c-0.2876,-0.03467 -0.57666,0.05225 -0.79736,0.23926c-0.22083,0.1875 -0.35327,0.4585 -0.36536,0.74756v0c0,0.63135 0.40637,0.8457 1.12891,1.02051c0.6322,0.11377 0.7677,0.27637 0.7677,0.51855v0c0,0.25391 -0.23145,0.42285 -0.60913,0.42285c-0.39734,-0.00342 -0.78308,-0.16113 -1.073,-0.43994l-0.34985,0.46826c0.42285,0.35889 0.89832,0.56006 1.42285,0.56348c0.72192,0 1.22437,-0.41943 1.22437,-1.01465v0c0,-0.56396 -0.37817,-0.81738 -1.12891,-0.99219"
                      fill="#ffffff" fill-opacity="1"></path>
            </g>
            <g>
                <title>Path 598</title>
                <path d="M40.61816,46.91992l1.5022,3.43359h-0.63245l-0.34448,-0.82471h-1.61511l-0.3728,0.82471h-0.61548l1.45996,-3.43359zM40.85547,49l-0.56482,-1.36279l-0.5647,1.36279z"
                      fill="#ffffff" fill-opacity="1"></path>
            </g>
            <g>
                <title>Path 599</title>
                <path d="M44.77112,48.90625c0,0.62695 -0.32678,0.94873 -0.85632,0.94873c-0.52966,0 -0.86206,-0.34424 -0.86206,-0.97705v-1.93652v0h-0.59717v0v1.96484c-0.05481,0.40527 0.07739,0.81299 0.35913,1.09375c0.28186,0.31055 0.6825,0.46143 1.08875,0.42529c0.40967,0.03613 0.81348,-0.11621 1.09656,-0.42529c0.28625,-0.28564 0.42102,-0.69629 0.36829,-1.10498v-1.95361v0h-0.59717v0z"
                      fill="#ffffff" fill-opacity="1"></path>
            </g>
            <g>
                <title>Path 600</title>
                <path d="M48.71655,48.63818c0.00049,0.30957 -0.12634,0.60596 -0.35046,0.81934c-0.22424,0.21387 -0.52625,0.32568 -0.83545,0.31055h-0.65503v0v-2.27637v0h0.672c0.3092,-0.01514 0.61121,0.09668 0.83545,0.31055c0.22412,0.19775 0.35083,0.50977 0.35046,0.81934zM47.53064,46.94434v0h-1.27063v0v3.38818v0h1.27063c0.46936,0.0332 0.93152,-0.13086 1.27539,-0.45215c0.34387,-0.32129 0.53857,-0.77148 0.53748,-1.24219v0c0.0011,-0.4707 -0.1936,-0.92041 -0.53748,-1.2417c-0.34387,-0.32129 -0.80603,-0.48535 -1.27539,-0.45215"
                      fill="#ffffff" fill-opacity="1"></path>
            </g>
            <g>
                <title>Rectangle 223</title>
                <path d="M50.10205,50.3418v0v-3.40039v0h0.59717v0v3.40039v0z" fill="#ffffff" fill-opacity="1"></path>
            </g>
            <g>
                <title>Path 601</title>
                <path d="M54.823,46.91992l1.5022,3.43359h-0.63245l-0.34448,-0.82471h-1.59253l-0.35022,0.82471h-0.61548l1.5022,-3.43359zM55.13367,49l-0.59302,-1.36279l-0.54065,1.36279z"
                      fill="#ffffff" fill-opacity="1"></path>
            </g>
            <g>
                <title>Path 602</title>
                <path d="M57.50867,48.62891v0v-1.12939v0h0.87524c0.44055,0 0.70593,0.19775 0.70593,0.56494v0c0,0.34424 -0.27673,0.56445 -0.70593,0.56445zM59.69983,48v0v0c0.00818,-0.24219 -0.09363,-0.50684 -0.28235,-0.70361c-0.27173,-0.23975 -0.62646,-0.36328 -0.98828,-0.29639h-1.51917v0v3.34033v0h0.59863v0v-1.18018v0h0.7511v0l0.83582,1.19141v0h0.71155v0l-0.92053,-1.29346c0.48389,-0.05811 0.82629,-0.5332 0.81323,-1.05811"
                      fill="#ffffff" fill-opacity="1"></path>
            </g>
            <g>
                <title>Path 603</title>
                <path d="M62.31128,46.91992l1.5022,3.43359h-0.63818l-0.34448,-0.82471h-1.61511l-0.3501,0.82471h-0.6156l1.5022,-3.43359zM62.59363,49l-0.59363,-1.36279l-0.56409,1.36279z"
                      fill="#ffffff" fill-opacity="1"></path>
            </g>
            <g>
                <title>Path 604</title>
                <path d="M64.9447,48.33203h0.84143c0.38403,0 0.64392,-0.15283 0.64392,-0.46338c0,-0.26514 -0.21472,-0.43457 -0.59863,-0.43457h-0.83142zM66.59937,49.33691c0,-0.28223 -0.23145,-0.45703 -0.7002,-0.45703h-0.95447v0.93701h1.0553c0.3905,0 0.63892,-0.16357 0.63892,-0.46826zM66.54297,48.57471c0.30334,-0.13086 0.45703,-0.43213 0.45703,-0.76221v0c0,-0.21289 0,-0.41797 -0.19727,-0.56494c-0.24487,-0.24756 -0.56616,-0.32617 -0.89233,-0.30469h-1.5304v0v3.38818v0h1.62c0.71802,0 1.22058,-0.33105 1.22058,-0.9375v0c0.00464,-0.39355 -0.28076,-0.75391 -0.67761,-0.83008"
                      fill="#ffffff" fill-opacity="1"></path>
            </g>
            <g>
                <title>Rectangle 224</title>
                <path d="M68,50.3418v0v-3.40039v0h0.57178v0v3.40039v0z" fill="#ffffff" fill-opacity="1"></path>
            </g>
            <g>
                <title>Path 605</title>
                <path d="M72.70471,50.35352h-0.63245l-0.3501,-0.82471h-1.62646l-0.3501,0.82471h-0.6156l1.5022,-3.43359h0.5647zM71.45105,49l-0.5647,-1.36279l-0.56482,1.36279z"
                      fill="#ffffff" fill-opacity="1"></path>
            </g>
        </g>
    </g>
</svg>