<?xml version="1.0" encoding="utf-8"?>
<!-- Generator: Adobe Illustrator 26.0.2, SVG Export Plug-In . SVG Version: 6.00 Build 0)  -->
<svg version="1.1" id="Layer_1" xmlns="http://www.w3.org/2000/svg" xmlns:xlink="http://www.w3.org/1999/xlink" x="0px" y="0px"
	 viewBox="0 0 992.4 781.3" style="enable-background:new 0 0 992.4 781.3;" xml:space="preserve">
<style type="text/css">
	.st0{fill:#3F3D56;}
	.st1{fill:#57B894;}
	.st2{opacity:0.1;enable-background:new    ;}
	.st3{fill:#E0E0E0;}
	.st4{fill:#F2F2F2;}
	.st5{opacity:3.000000e-02;enable-background:new    ;}
	.st6{fill:none;stroke:#3F3D56;stroke-width:4;stroke-miterlimit:10;}
	.st7{fill:#656380;}
	.st8{opacity:0.2;enable-background:new    ;}
</style>
<path class="st0" d="M87.2,672.4c2.2-3.8,3.3-8.1,3.3-12.5c0-11.3-7-20.5-15.7-20.5s-15.7,9.2-15.7,20.5c0,4.4,1.1,8.7,3.3,12.5
	c-4.4,7.8-4.4,17.3,0,25.1c-4.4,7.8-4.4,17.3,0,25.1c-4.4,7.8-4.4,17.3,0,25.1c-2.2,3.8-3.3,8.1-3.3,12.5c0,11.3,7,20.5,15.7,20.5
	s15.7-9.2,15.7-20.5c0-4.4-1.1-8.7-3.3-12.5c4.4-7.8,4.4-17.3,0-25.1c4.4-7.8,4.4-17.3,0-25.1C91.5,689.7,91.5,680.2,87.2,672.4
	L87.2,672.4z"/>
<ellipse class="st0" cx="74.7" cy="634.8" rx="15.7" ry="20.5"/>
<ellipse class="st0" cx="74.7" cy="609.7" rx="15.7" ry="20.5"/>
<path class="st1" d="M16.1,438.1c-2.1-2.7-4.1-5.6-5.8-8.6l41.2-6.8l-44.5,0.3c-8.6-18.8-9.2-40.3-1.4-59.5l59.8,31l-55.1-40.5
	c20.7-36,66.6-48.3,102.5-27.7c36,20.7,48.3,66.6,27.7,102.5c-1.8,3.2-3.9,6.3-6.2,9.1c3.3,4.2,6.2,8.8,8.6,13.7l-53.4,27.8l57-19.1
	c8.1,24,3.6,50.6-12.1,70.5c25.6,32.6,20,79.8-12.6,105.4c-32.6,25.6-79.8,20-105.4-12.6c-21.4-27.2-21.4-65.6,0-92.9
	C-5.3,503.7-5.3,465.3,16.1,438.1L16.1,438.1z"/>
<path class="st2" d="M150.2,484.5c0,16.8-5.6,33.2-16.1,46.4c25.6,32.6,20,79.8-12.6,105.4C89,662,41.8,656.4,16.1,623.8
	c-21.4-27.2-21.4-65.6,0-92.9C6,518.2,150.2,476.1,150.2,484.5z"/>
<path class="st0" d="M894.2,698.8c1.7-2.9,2.5-6.2,2.5-9.5c0-8.6-5.3-15.6-11.9-15.6s-11.9,7-11.9,15.6c0,3.3,0.8,6.6,2.5,9.5
	c-3.3,5.9-3.3,13.2,0,19.1c-3.3,5.9-3.3,13.2,0,19.1c-3.3,5.9-3.3,13.1,0,19.1c-1.7,2.9-2.5,6.2-2.5,9.5c0,8.6,5.3,15.6,11.9,15.6
	s11.9-7,11.9-15.6c0-3.3-0.8-6.6-2.5-9.5c3.3-5.9,3.3-13.1,0-19.1c3.3-5.9,3.3-13.2,0-19.1C897.6,711.9,897.6,704.7,894.2,698.8z"/>
<ellipse class="st0" cx="884.8" cy="670.2" rx="11.9" ry="15.6"/>
<ellipse class="st0" cx="884.8" cy="651.1" rx="11.9" ry="15.6"/>
<path class="st1" d="M840.2,520.6c-1.6-2.1-3.1-4.3-4.4-6.5l31.3-5.2l-33.9,0.3c-6.6-14.3-7-30.7-1.1-45.3l45.5,23.6l-41.9-30.8
	c15.8-27.3,50.8-36.6,78.1-20.8c27.3,15.8,36.6,50.8,20.8,78.1c-1.3,2.3-2.8,4.5-4.5,6.6c2.5,3.2,4.7,6.7,6.5,10.4l-40.7,21.1
	l43.4-14.6c6.2,18.3,2.7,38.5-9.2,53.6c19.5,24.8,15.2,60.7-9.6,80.2s-60.7,15.2-80.2-9.6c-16.3-20.7-16.3-49.9,0-70.6
	C823.9,570.5,823.9,541.3,840.2,520.6L840.2,520.6z"/>
<path class="st2" d="M942.2,555.9c0,12.8-4.3,25.3-12.2,35.3c19.5,24.8,15.2,60.7-9.6,80.2s-60.7,15.2-80.2-9.6
	c-16.3-20.7-16.3-49.9,0-70.6C832.5,581.5,942.2,549.5,942.2,555.9z"/>
<path class="st3" d="M795.9,201H595.6v-43.3c0-5.7-4.6-10.4-10.3-10.4c0,0,0,0,0,0h-58.8v-46.1c0-3.6-2.9-6.5-6.5-6.5l0,0h-75.8
	c-3.6,0-6.5,2.9-6.5,6.5v46.1h-69.1c-5.7,0-10.4,4.6-10.4,10.3c0,0,0,0,0,0V201l0,0H167.3c-1.2,0-2.1,0.9-2.1,2.1V778
	c0,1.2,0.9,2.1,2.1,2.1h126.9c1.2,0,2.1-0.9,2.1-2.1v-77.4c0-1.2,0.9-2.1,2.1-2.1H352c1.2,0,2.1,0.9,2.1,2.1V778
	c0,1.2,0.9,2.1,2.1,2.1H607c1.2,0,2.1-1,2.1-2.1v-77.3c0-1.2,0.9-2.1,2.1-2.1h53.6c1.2,0,2.1,0.9,2.1,2.1V778c0,1.2,0.9,2.1,2.1,2.1
	h126.9c1.2,0,2.1-1,2.1-2.1V203.1C798,202,797,201,795.9,201z M273.6,671.7c0,1.2-0.9,2.1-2.1,2.1h-78.4c-1.2,0-2.1-0.9-2.1-2.1
	c0,0,0,0,0,0V645c0-1.2,0.9-2.1,2.1-2.1c0,0,0,0,0,0h78.4c1.2,0,2.1,1,2.1,2.1L273.6,671.7z M273.6,602.6c0,1.2-0.9,2.1-2.1,2.1
	h-78.4c-1.2,0-2.1-0.9-2.1-2.1c0,0,0,0,0,0v-26.7c0-1.2,0.9-2.1,2.1-2.1c0,0,0,0,0,0h78.4c1.2,0,2.1,1,2.1,2.1l0,0L273.6,602.6z
	 M273.6,533.4c0,1.2-0.9,2.1-2.1,2.1h-78.4c-1.2,0-2.1-0.9-2.1-2.1v-26.8c0-1.2,0.9-2.1,2.1-2.1c0,0,0,0,0,0h78.4
	c1.2,0,2.1,1,2.1,2.1L273.6,533.4z M273.6,464.2c0,1.2-0.9,2.1-2.1,2.1c0,0,0,0,0,0h-78.4c-1.2,0-2.1-0.9-2.1-2.1c0,0,0,0,0,0v-26.8
	c0-1.2,0.9-2.1,2.1-2.1c0,0,0,0,0,0h78.4c1.2,0,2.1,0.9,2.1,2.1c0,0,0,0,0,0L273.6,464.2z M273.6,395.1c0,1.2-0.9,2.1-2.1,2.1h-78.4
	c-1.2,0-2.1-0.9-2.1-2.1c0,0,0,0,0,0v-26.8c0-1.2,0.9-2.1,2.1-2.1c0,0,0,0,0,0h78.4c1.2,0,2.1,0.9,2.1,2.1L273.6,395.1z
	 M273.6,325.9c0,1.2-0.9,2.1-2.1,2.1h-78.4c-1.2,0-2.1-0.9-2.1-2.1c0,0,0,0,0,0v-26.8c0-1.2,0.9-2.1,2.1-2.1h78.4
	c1.2,0,2.1,1,2.1,2.1L273.6,325.9z M273.6,256.8c0,1.2-0.9,2.1-2.1,2.1h0h-78.4c-1.2,0-2.1-0.9-2.1-2.1c0,0,0,0,0,0V230
	c0-1.2,0.9-2.1,2.1-2.1c0,0,0,0,0,0h78.4c1.2,0,2.1,1,2.1,2.1v0L273.6,256.8z M459.4,671.8c0,1.2-0.9,2.1-2.1,2.1c0,0,0,0,0,0h-78.4
	c-1.2,0-2.1-0.9-2.1-2.1V645c0-1.2,0.9-2.1,2.1-2.1h78.4c1.2,0,2.1,0.9,2.1,2.1c0,0,0,0,0,0V671.8z M459.4,602.6
	c0,1.2-0.9,2.1-2.1,2.1c0,0,0,0,0,0h-78.4c-1.2,0-2.1-0.9-2.1-2.1v-26.8c0-1.2,0.9-2.1,2.1-2.1h78.4c1.2,0,2.1,0.9,2.1,2.1
	c0,0,0,0,0,0V602.6z M459.4,533.4c0,1.2-0.9,2.1-2.1,2.1h-78.4c-1.2,0-2.1-0.9-2.1-2.1v-26.8c0-1.2,0.9-2.1,2.1-2.1h78.4
	c1.2,0,2.1,0.9,2.1,2.1c0,0,0,0,0,0V533.4z M459.4,464.3c0,1.2-0.9,2.1-2.1,2.1c0,0,0,0,0,0h-78.4c-1.2,0-2.1-0.9-2.1-2.1
	c0,0,0,0,0,0v-26.8c0-1.2,0.9-2.1,2.1-2.1c0,0,0,0,0,0h78.4c1.2,0,2.1,0.9,2.1,2.1c0,0,0,0,0,0V464.3z M459.4,395.1
	c0,1.2-0.9,2.1-2.1,2.1c0,0,0,0,0,0h-78.4c-1.2,0-2.1-0.9-2.1-2.1v-26.8c0-1.2,1-2.1,2.1-2.1h78.4c1.2,0,2.1,0.9,2.1,2.1
	c0,0,0,0,0,0V395.1z M459.4,326c0,1.2-0.9,2.1-2.1,2.1c0,0,0,0,0,0h-78.4c-1.2,0-2.1-0.9-2.1-2.1v-26.8c0-1.2,0.9-2.1,2.1-2.1h78.4
	c1.2,0,2.1,0.9,2.1,2.1V326z M459.4,256.8c0,1.2-0.9,2.1-2.1,2.1c0,0,0,0,0,0h-78.4c-1.2,0-2.1-0.9-2.1-2.1V230
	c0-1.2,0.9-2.1,2.1-2.1h78.4c1.2,0,2.1,0.9,2.1,2.1c0,0,0,0,0,0V256.8z M586.4,671.8c0,1.2-1,2.1-2.1,2.1h0h-78.4
	c-1.2,0-2.1-0.9-2.1-2.1V645c0-1.2,0.9-2.1,2.1-2.1h78.4c1.2,0,2.1,0.9,2.1,2.1L586.4,671.8z M586.4,602.6c0,1.2-0.9,2.1-2.1,2.1
	c0,0,0,0,0,0h-78.4c-1.2,0-2.1-0.9-2.1-2.1v-26.8c0-1.2,0.9-2.1,2.1-2.1h78.4c1.2,0,2.1,0.9,2.1,2.1c0,0,0,0,0,0L586.4,602.6z
	 M586.4,533.5c0,1.2-0.9,2.1-2.1,2.1h-78.4c-1.2,0-2.1-0.9-2.1-2.1v-26.8c0-1.2,0.9-2.1,2.1-2.1h78.4c1.2,0,2.1,0.9,2.1,2.1
	L586.4,533.5z M586.4,464.3c0,1.2-0.9,2.1-2.1,2.1c0,0,0,0,0,0h-78.4c-1.2,0-2.1-0.9-2.1-2.1v-26.8c0-1.2,0.9-2.1,2.1-2.1h78.4
	c1.2,0,2.1,0.9,2.1,2.1c0,0,0,0,0,0L586.4,464.3z M586.4,395.1c0,1.2-0.9,2.1-2.1,2.1h-78.4c-1.2,0-2.1-0.9-2.1-2.1v-26.8
	c0-1.2,0.9-2.1,2.1-2.1h78.4c1.2,0,2.1,0.9,2.1,2.1v0L586.4,395.1z M586.4,326c0,1.2-1,2.1-2.1,2.1l0,0h-78.4
	c-1.2,0-2.1-0.9-2.1-2.1v-26.8c0-1.2,0.9-2.1,2.1-2.1h78.4c1.2,0,2.1,0.9,2.1,2.1L586.4,326z M586.4,256.8c0,1.2-0.9,2.1-2.1,2.1
	c0,0,0,0,0,0h-78.4c-1.2,0-2.1-0.9-2.1-2.1V230c0-1.2,0.9-2.1,2.1-2.1h78.4c1.2,0,2.1,0.9,2.1,2.1c0,0,0,0,0,0L586.4,256.8z
	 M772.2,671.7c0,1.2-1,2.1-2.1,2.1h-78.4c-1.2,0-2.1-0.9-2.1-2.1v0V645c0-1.2,0.9-2.1,2.1-2.1H770c1.2,0,2.1,0.9,2.1,2.1
	c0,0,0,0,0,0V671.7z M772.2,602.6c0,1.2-0.9,2.1-2.1,2.1h-78.4c-1.2,0-2.1-0.9-2.1-2.1c0,0,0,0,0,0v-26.8c0-1.2,0.9-2.1,2.1-2.1
	c0,0,0,0,0,0H770c1.2,0,2.1,0.9,2.1,2.1L772.2,602.6z M772.2,533.4c0,1.2-0.9,2.1-2.1,2.1h-78.4c-1.2,0-2.1-0.9-2.1-2.1v-26.8
	c0-1.2,0.9-2.1,2.1-2.1H770c1.2,0,2.1,0.9,2.1,2.1c0,0,0,0,0,0V533.4z M772.2,464.2c0,1.2-0.9,2.1-2.1,2.1c0,0,0,0,0,0h-78.4
	c-1.2,0-2.1-0.9-2.1-2.1c0,0,0,0,0,0v-26.8c0-1.2,0.9-2.1,2.1-2.1c0,0,0,0,0,0H770c1.2,0,2.1,0.9,2.1,2.1c0,0,0,0,0,0L772.2,464.2z
	 M772.2,395.1c0,1.2-0.9,2.1-2.1,2.1h-78.4c-1.2,0-2.1-0.9-2.1-2.1v-26.8c0-1.2,1-2.1,2.1-2.1l0,0H770c1.2,0,2.1,0.9,2.1,2.1
	L772.2,395.1z M772.2,325.9c0,1.2-1,2.1-2.1,2.1h-78.4c-1.2,0-2.1-0.9-2.1-2.1v0v-26.8c0-1.2,0.9-2.1,2.1-2.1H770
	c1.2,0,2.1,0.9,2.1,2.1c0,0,0,0,0,0V325.9z M772.2,256.8c0,1.2-0.9,2.1-2.1,2.1h-78.4c-1.2,0-2.1-0.9-2.1-2.1c0,0,0,0,0,0V230
	c0-1.2,0.9-2.1,2.1-2.1c0,0,0,0,0,0H770c1.2,0,2.1,0.9,2.1,2.1L772.2,256.8z"/>
<path class="st4" d="M282.7,37.7l-17.1,10.9l10.4-18.9c-2.9-2.4-6.6-3.7-10.4-3.7h-0.3c-1.2,0-2.4-0.1-3.6-0.3l-5.8,3.7l2.5-4.5
	c-4.1-1.4-7.7-4.1-10.2-7.7l-10.4,6.6l6.6-11.9C238.4,4.5,230.2,0,221.2,0c-10.8,0-20.4,6.4-26.6,16.4c-3.7,6.1-10.5,9.7-17.6,9.5
	h-0.6c-11.9,0-21.6,13.5-21.6,30.2s9.7,30.2,21.6,30.2c2.6,0,5.2-0.7,7.5-1.9c7.8-4,18-4.1,26.1-0.5c7.1,3.2,15.2,3.2,22.2,0.1
	c8.1-3.5,18.2-3.5,25.9,0.5c2.3,1.2,4.8,1.8,7.4,1.9c11.9,0,21.6-13.5,21.6-30.2C287.3,49.7,285.7,43.3,282.7,37.7z"/>
<path class="st5" d="M250.4,81.9c-6.2-1.2-12.7-0.5-18.5,2c-7.1,3.2-15.2,3.2-22.2,0c-8.1-3.6-18.4-3.5-26.1,0.5
	c-2.3,1.2-4.9,1.9-7.5,1.9c-10.6,0-19.4-10.7-21.2-24.8c2.1-1.5,3.9-3.5,5.3-5.7c6.2-10,15.8-16.4,26.6-16.4s20.3,6.3,26.5,16.2
	c3.8,6.1,10.4,9.8,17.6,9.7h0.3C239.5,65.3,246.8,72,250.4,81.9z"/>
<path class="st4" d="M871,112.4l-12.1,7.7l7.3-13.3c-2.1-1.7-4.6-2.6-7.3-2.6h-0.2c-0.8,0-1.7-0.1-2.5-0.2l-4.1,2.6l1.8-3.2
	c-2.9-1-5.4-2.9-7.2-5.4l-7.3,4.7l4.6-8.4c-4.3-5.1-10-8.3-16.4-8.3c-7.6,0-14.4,4.5-18.8,11.6c-2.6,4.3-7.4,6.9-12.4,6.7H796
	c-8.4,0-15.2,9.5-15.2,21.3s6.8,21.3,15.2,21.3c1.9,0,3.7-0.5,5.3-1.3c5.8-2.8,12.5-2.9,18.4-0.4c5,2.2,10.7,2.2,15.7,0
	c5.9-2.5,12.5-2.4,18.3,0.4c1.6,0.8,3.4,1.3,5.2,1.3c8.4,0,15.2-9.5,15.2-21.3C874.2,120.9,873.1,116.5,871,112.4z"/>
<path class="st5" d="M848.2,143.6c-4.4-0.8-8.9-0.3-13,1.4c-5,2.2-10.7,2.2-15.7,0c-5.9-2.6-12.6-2.5-18.4,0.4
	c-1.6,0.9-3.5,1.3-5.3,1.3c-7.5,0-13.7-7.5-15-17.5c1.5-1.1,2.8-2.4,3.7-4c4.4-7.1,11.2-11.6,18.8-11.6s14.3,4.5,18.7,11.5
	c2.7,4.3,7.4,6.9,12.4,6.8h0.2C840.6,131.9,845.7,136.6,848.2,143.6z"/>
<path class="st4" d="M720,40.7l-8.5,5.4l5.1-9.4c-1.5-1.2-3.3-1.8-5.1-1.8h-0.1c-0.6,0-1.2,0-1.8-0.1l-2.9,1.8l1.2-2.2
	c-2-0.7-3.8-2-5-3.8l-5.1,3.2l3.2-5.9c-2.8-3.6-7-5.7-11.5-5.8c-5.3,0-10.1,3.2-13.2,8.1c-1.9,3-5.2,4.8-8.7,4.7h-0.3
	c-5.9,0-10.7,6.7-10.7,14.9s4.8,14.9,10.7,14.9c1.3,0,2.6-0.3,3.7-0.9c4.1-2,8.8-2.1,12.9-0.2c1.7,0.8,3.6,1.2,5.5,1.2
	c1.9,0,3.7-0.4,5.5-1.2c4.1-1.8,8.8-1.7,12.8,0.2c1.1,0.6,2.4,0.9,3.7,0.9c5.9,0,10.7-6.7,10.7-14.9C722.2,46.6,721.4,43.4,720,40.7
	z"/>
<path class="st5" d="M704,62.4c-3.1-0.6-6.3-0.2-9.1,1c-3.5,1.6-7.5,1.6-11,0c-4.1-1.8-8.8-1.7-12.9,0.2c-1.1,0.6-2.4,0.9-3.7,0.9
	c-5.2,0-9.6-5.3-10.5-12.2c1-0.8,1.9-1.7,2.6-2.8c3.1-4.9,7.8-8.1,13.2-8.1s10,3.1,13.1,8c1.9,3,5.2,4.8,8.7,4.8h0.1
	C698.7,54.2,702.3,57.6,704,62.4z"/>
<path class="st6" d="M138.6,774.7c2.1-3.8-0.3-8.5-3-11.9s-5.9-6.9-5.9-11.2c0.1-6.2,6.7-9.9,12-13.2c3.9-2.4,7.5-5.3,10.8-8.6
	c1.4-1.3,2.5-2.8,3.3-4.4c1.1-2.4,1.1-5.2,1-7.8c-0.2-8.9-0.7-17.7-1.3-26.6"/>
<path class="st1" d="M165.5,690.5c-0.2-3.3-2-6.3-4.8-7.9l-2.2,4.3l0.1-5.2c-5.1-1.5-10.5,1.4-12,6.6c-1.5,5.1,1.4,10.5,6.6,12
	c5.1,1.5,10.5-1.4,12-6.6C165.4,692.6,165.5,691.5,165.5,690.5z"/>
<path class="st1" d="M148.2,756.1c-2.4,4.8-8.3,6.6-13,4.2c-3.1-1.6-5.1-4.7-5.3-8.2c-0.1-1.3,0.2-2.7,0.6-3.9
	c1.9-5,7.5-7.5,12.5-5.6c2.6,1,4.6,3.1,5.6,5.7l-6.1,4.9l6.6-1.5C149.3,753.2,148.9,754.7,148.2,756.1z"/>
<path class="st1" d="M143.4,737.2c-5.3,0.2-9.9-3.9-10.1-9.2c0,0,0,0,0,0c-0.1-1.5,0.2-3,0.8-4.4c1.2-2.6,3.5-4.6,6.2-5.4v4l2.2-4.3
	l0,0c5.3-0.2,9.9,3.9,10.1,9.2c0,0,0,0,0,0c0.1,1.1-0.1,2.2-0.4,3.3C151,734.3,147.5,737.1,143.4,737.2z"/>
<path class="st1" d="M167,721.6c-5.3,0.3-9.9-3.8-10.2-9.2c-0.3-5.3,3.8-9.9,9.2-10.2c1.8-0.1,3.7,0.3,5.3,1.2l-1.7,4.7l3.5-3.4
	c1.9,1.7,3,4.1,3.1,6.7c0,0.9,0,1.8-0.2,2.7C174.9,718.3,171.3,721.4,167,721.6z"/>
<path class="st2" d="M164.2,693c-2.2,0.2-4.4,0.9-6.7,1.1s-4.7-0.4-6.1-2.1c-0.7-1-1.3-2.1-1.8-3.2c-0.6-1-1.5-1.7-2.4-2.3
	c-2.4,4.8-0.5,10.6,4.2,13c4.8,2.4,10.6,0.5,13-4.2c0.4-0.7,0.7-1.5,0.8-2.4C164.9,693,164.5,693,164.2,693z"/>
<path class="st2" d="M167,721.6c-5.4,0.2-9.9-3.9-10.1-9.2c-0.1-1.6,0.2-3.2,0.9-4.6c0.8,0.5,1.4,1.2,2,2c0.6,1.1,1.2,2.2,1.9,3.2
	c1.5,1.8,4.1,2.3,6.4,2.2s4.6-0.8,6.9-1c0.3,0,0.6,0,1-0.1C174.9,718.4,171.3,721.4,167,721.6z"/>
<path class="st2" d="M143.4,737.2c-5.3,0.2-9.9-3.9-10.1-9.2c0,0,0,0,0,0c-0.1-1.5,0.2-3,0.8-4.4c0.8,0.5,1.5,1.2,2.1,2
	c0.6,1.1,1.3,2.2,2.1,3.3c1.6,1.8,4.4,2.5,6.9,2.4s4.7-0.6,7.1-0.8C151,734.3,147.5,737,143.4,737.2z"/>
<path class="st2" d="M148.2,756.1c-2.4,4.8-8.3,6.6-13,4.2c-3.1-1.6-5.1-4.7-5.3-8.2c-0.1-1.3,0.2-2.7,0.6-3.9
	c0.8,0.5,1.5,1.2,2.1,1.9c0.8,1.2,1.7,2.3,2.6,3.4c2,1.9,5.2,2.8,8,2.8C144.9,756.3,146.5,756.2,148.2,756.1z"/>
<path class="st7" d="M124,773.1c0,0,7.6-3,10-4.6s11.8-3.6,12.3-1s11.4,13.1,2.8,13.2s-20.1,1.4-22.4,0S124,773.1,124,773.1z"/>
<path class="st8" d="M149.3,779.7c-8.6,0.1-20.1,1.4-22.4,0c-1.8-1.1-2.4-4.9-2.7-6.7H124c0,0,0.5,6.2,2.8,7.6s13.7,0.1,22.4,0
	c2.5,0,3.3-0.9,3.3-2.2C152.1,779.2,151.2,779.7,149.3,779.7z"/>
<path class="st6" d="M672.4,775.2c-1.4-2.5,0.2-5.7,2-8s4-4.7,3.9-7.6c-0.1-4.2-4.5-6.6-8-8.8c-2.6-1.6-5-3.6-7.2-5.8
	c-0.9-0.9-1.7-1.9-2.2-3c-0.6-1.7-0.8-3.5-0.7-5.3c0.2-6,0.5-11.9,0.9-17.8"/>
<path class="st1" d="M654.3,718.7c0.1-2.2,1.3-4.2,3.2-5.3l1.5,2.9l0-3.5c0.7-0.2,1.4-0.3,2.2-0.2c3.6,0.2,6.4,3.2,6.2,6.8
	c-0.2,3.6-3.2,6.4-6.8,6.2C656.9,725.3,654.2,722.2,654.3,718.7C654.3,718.7,654.3,718.7,654.3,718.7L654.3,718.7z"/>
<path class="st1" d="M665.9,762.7c1.6,3.2,5.6,4.4,8.8,2.8c3.2-1.6,4.4-5.6,2.8-8.8c-1.6-3.2-5.6-4.4-8.8-2.8
	c-1.4,0.7-2.6,2-3.1,3.5l4.1,3.3l-4.5-1C665.2,760.8,665.5,761.8,665.9,762.7z"/>
<path class="st1" d="M669.2,750.1c3.6,0.2,6.6-2.6,6.8-6.2c0,0,0,0,0,0c0.1-1-0.1-2.1-0.6-3c-0.8-1.8-2.3-3.1-4.2-3.6v2.7l-1.5-2.9
	l0,0c-3.6-0.2-6.6,2.6-6.8,6.2c0,0.8,0.1,1.5,0.3,2.2C664,748.1,666.4,750,669.2,750.1z"/>
<path class="st1" d="M653.3,739.6c3.6,0.2,6.6-2.6,6.8-6.2c0.2-3.6-2.6-6.6-6.2-6.8c-1.2-0.1-2.4,0.2-3.5,0.8l1.2,3.2l-2.4-2.3
	c-1.3,1.2-2,2.8-2.1,4.5c0,0.6,0,1.2,0.2,1.8C648,737.4,650.4,739.4,653.3,739.6z"/>
<path class="st2" d="M655.2,720.4c1.5,0.2,3,0.6,4.5,0.7c1.5,0.2,3.1-0.4,4.1-1.5c0.4-0.7,0.8-1.4,1.2-2.1c0.4-0.6,1-1.2,1.6-1.5
	c0.5,1,0.8,2.1,0.7,3.2c-0.2,3.6-3.2,6.4-6.8,6.2c-2.9-0.1-5.4-2.2-6-5.1C654.7,720.4,655,720.4,655.2,720.4z"/>
<path class="st2" d="M653.3,739.6c3.6,0.2,6.6-2.6,6.8-6.2c0.1-1.1-0.2-2.1-0.6-3.1c-0.5,0.4-1,0.8-1.3,1.4
	c-0.4,0.7-0.8,1.5-1.3,2.2c-1.1,1.1-2.7,1.7-4.3,1.5c-1.6-0.1-3.1-0.5-4.7-0.7c-0.2,0-0.4,0-0.7,0
	C648,737.5,650.5,739.5,653.3,739.6z"/>
<path class="st2" d="M669.2,750.1c3.6,0.2,6.6-2.6,6.8-6.2c0,0,0,0,0,0c0.1-1-0.1-2.1-0.6-3c-0.5,0.4-1,0.8-1.4,1.3
	c-0.4,0.8-0.9,1.5-1.4,2.2c-1.2,1.2-2.9,1.7-4.6,1.6c-1.6,0-3.2-0.4-4.8-0.5C664.1,748.1,666.4,749.9,669.2,750.1z"/>
<path class="st2" d="M665.9,762.7c1.7,3.2,5.6,4.4,8.8,2.7c2.9-1.5,4.2-5,3.1-8c-0.5,0.4-1,0.8-1.4,1.3c-0.5,0.8-1.1,1.6-1.7,2.3
	c-1.5,1.3-3.4,1.9-5.4,1.9C668.1,762.9,667,762.8,665.9,762.7z"/>
<path class="st7" d="M682.2,773.5c0,0-5.1-1.3-6.7-2.4s-7.9-2.4-8.3-0.7s-7.7,8.8-1.9,8.8s13.5,0.3,15-0.7S682.2,773.5,682.2,773.5z
	"/>
<path class="st8" d="M665.2,778.7c5.8,0,13.5,0.3,15-0.7c1.2-0.7,1.7-3.3,1.8-4.5h0.2c0,0-0.3,4.2-1.9,5.1s-9.2,0.7-15,0.7
	c-1.7,0-2.2-0.6-2.2-1.5C663.3,778.3,664,778.7,665.2,778.7z"/>
<rect x="195.4" y="779.2" class="st0" width="509" height="2"/>
<rect x="722.4" y="779.2" class="st0" width="270" height="2"/>
<rect x="8.4" y="779.2" class="st0" width="169" height="2"/>
</svg>
