<?xml version="1.0" encoding="utf-8"?>
<!-- Generator: Adobe Illustrator 26.0.2, SVG Export Plug-In . SVG Version: 6.00 Build 0)  -->
<svg version="1.1" id="Layer_1" xmlns="http://www.w3.org/2000/svg" xmlns:xlink="http://www.w3.org/1999/xlink" x="0px" y="0px"
	 viewBox="0 0 582 693.1" style="enable-background:new 0 0 582 693.1;" xml:space="preserve">
<style type="text/css">
	.st0{fill:#3F3D56;}
	.st1{fill:#00B6A1;}
	.st2{fill:#085566;}
	.st3{fill:#CCCCCC;}
	.st4{fill:#F2F2F2;}
	.st5{opacity:0.1;enable-background:new    ;}
</style>
<path class="st0" d="M510.7,350.5c10.1,1.4,20.2,3.1,30.3,5.1v1.9c-10-2-20.1-3.7-30.3-5.1c-19.4-2.6-38.9-3.8-58.4-3.9h-0.7
	c-62.8,0-124.8,13.6-181.9,39.8c-11.8,5.4-23.4,11.3-34.7,17.7c-37.4,21.2-71.7,47.7-101.6,78.7c-20.2,20.9-38.4,43.8-54.1,68.2
	c-2,3.1-4,6.2-5.9,9.4c-7.7,12.6-14.8,25.6-21.1,39c-13.7,28.5-24.1,58.5-31.3,89.3c-0.2,0.7-0.3,1.3-0.5,2c0,0.2-0.1,0.4-0.1,0.6
	l-2-0.4c0,0,0-0.1,0-0.1c0.1-0.7,0.3-1.3,0.5-2c7.3-31.6,18-62.3,32.1-91.5v0c6.7-14.1,14.2-27.8,22.4-41c1.9-3.1,3.9-6.2,5.9-9.3
	c15.8-24.3,33.8-46.9,54-67.7c12.3-12.7,25.4-24.6,39.1-35.8l0,0c19.6-15.9,40.6-30.1,62.6-42.4c9.3-5.2,18.8-10.1,28.4-14.6
	c59.2-27.7,123.8-42,189.2-41.8C472,346.5,491.4,347.9,510.7,350.5z"/>
<circle class="st1" cx="300.1" cy="69.4" r="54.3"/>
<path class="st0" d="M66.1,680.8c1.7,6.3,7.5,10.1,7.5,10.1s3.1-6.3,1.4-12.5s-7.5-10.1-7.5-10.1S64.4,674.5,66.1,680.8z"/>
<path class="st2" d="M68.6,679.4c4.6,4.5,5.2,11.5,5.2,11.5s-7-0.4-11.6-4.9S57,674.5,57,674.5S64,674.9,68.6,679.4z"/>
<path class="st0" d="M195.1,680.8c1.7,6.3,7.5,10.1,7.5,10.1s3.1-6.3,1.4-12.5s-7.5-10.1-7.5-10.1S193.4,674.5,195.1,680.8z"/>
<path class="st2" d="M197.6,679.4c4.6,4.5,5.2,11.5,5.2,11.5s-7-0.4-11.6-4.9s-5.2-11.5-5.2-11.5S193,674.9,197.6,679.4z"/>
<path class="st0" d="M541,131.6v64.7l-30.3,20.4l-44.5,30L416.8,280l-77.6-38.8l-98-49L220.7,182l-20.4-16.3l63-56.3l18.1-16.2
	c21.4-19.1,49.1-29.7,77.7-29.7h113.7C510.5,63.5,541,94,541,131.6z"/>
<path class="st3" d="M511,165.4l30-32.6c52.5,193.6,56.8,380.8,0,559.8h-38.1l-2-2l-53.1-53.1l-30.8-30.8l0.8-5.9l2.8-20.4l6.2-44.9
	l6.7-49l6.7-49l6.7-49l5.4-39.8l0.3-2l1-7.2l6.7-49l6-43.5l0.8-5.5l4.9-36.1l2-15l36.8-24.5L511,165.4z"/>
<path class="st4" d="M200.3,165.6h310.4v526.9H200.3C166.4,499.8,157.8,319.8,200.3,165.6z"/>
<rect x="320.8" y="563.9" class="st3" width="57.2" height="128.7"/>
<rect x="235" y="486.3" class="st0" width="236.9" height="49"/>
<rect x="389" y="603.4" class="st0" width="101" height="20.9"/>
<rect x="209" y="603.4" class="st0" width="101" height="20.9"/>
<rect x="235" y="388.3" class="st0" width="236.9" height="49"/>
<rect x="235" y="290.2" class="st0" width="236.9" height="49"/>
<rect x="235" y="192.2" class="st0" width="236.9" height="49"/>
<rect y="690.5" class="st0" width="541" height="2"/>
<rect x="73.4" y="459.6" class="st0" width="5.9" height="232.1"/>
<path class="st2" d="M133.5,489.2c0.4,81.1-56.7,147.2-56.7,147.2s-57.7-65.5-58.1-146.7s56.7-147.2,56.7-147.2
	C81.5,321,146.5,360.7,133.5,489.2z"/>
<path class="st5" d="M133.5,489.2c0.4,81.1-56.7,147.2-56.7,147.2s-57.7-65.5-58.1-146.7s56.7-147.2,56.7-147.2
	C81.5,321,146.5,360.7,133.5,489.2z"/>
<rect y="459.6" class="st0" width="2.9" height="232.1"/>
<path class="st2" d="M57.1,489.2C126,507,52,549.4,38.2,574v0c-9.3,21.2-21.1,41.1-35.3,59.3c-1.6,2-2.5,3-2.5,3L0,635.9V343.7
	c15.1,18.7,27.8,39.3,37.6,61.2v0C48.2,428.7,26.7,481.3,57.1,489.2z"/>
<path class="st4" d="M141.2,279.4c0,0-37.4-0.3-83.6-0.1c-22.2,0.1-42.5,0.3-57.5,0.5V254c16.2-12.4,37.5-22.3,57.4-11.1
	C96.4,264.9,141.2,279.4,141.2,279.4z"/>
<path class="st4" d="M225.5,41.3c-46.3,0.2-83.9,0.9-83.9,0.9s44.8-59.3,83.8-37.3s83.8,36.6,83.8,36.6S271.8,41.1,225.5,41.3z"/>
<path class="st0" d="M353.9,61.6l124.2-6.1c35.5-1.7,66.4,24.2,70.9,59.4L564,233.6l-52.9-68.2l-0.1-0.1L352.7,83.2l-3.1-1.6
	C339.9,76.6,343.1,62.1,353.9,61.6L353.9,61.6z"/>
<rect x="316" y="102.4" class="st4" width="101" height="20.9"/>
<path class="st4" d="M378,550.6h-47c-32.7-127.8-32.7-253.1,0-376h47C407.9,302.1,409,427.5,378,550.6z"/>
</svg>
