<?xml version="1.0" encoding="UTF-8"?><svg id="Layer_1" xmlns="http://www.w3.org/2000/svg" viewBox="0 0 441 111"><defs><style>.cls-1{fill:#fff;}.cls-2,.cls-3{fill:#72d6c3;}.cls-3{stroke-width:.5px;}.cls-3,.cls-4{stroke:#72d6c3;stroke-miterlimit:10;}.cls-4{fill:none;stroke-width:2px;}</style></defs><rect class="cls-4" x="10.99" y="14" width="315.01" height="85" rx="23.52" ry="23.52"/><g><rect class="cls-2" x="186.84" y="64.86" width="2.35" height="16.14"/><path class="cls-2" d="M199.02,69.29c-1.23,0-2.48,.4-3.76,1.2l-.21-.88h-1.98v11.39h2.31v-8.46c.97-.75,1.98-1.13,3.04-1.13,1.46,0,2.19,.67,2.19,2.01v7.58h2.31v-8.05c0-2.44-1.3-3.67-3.9-3.67Z"/><path class="cls-2" d="M215.71,63.71h-2.31v6.02c-.78-.29-1.71-.44-2.77-.44-1.31,0-2.52,.29-3.64,.88-.4,.63-.73,1.45-.98,2.47s-.38,2.06-.38,3.14c0,1.83,.41,3.22,1.22,4.16,.81,.95,1.99,1.42,3.53,1.42,1.18,0,2.27-.35,3.25-1.04,.05,.15,.13,.38,.25,.69h2.28l.09-.21c-.37-.89-.55-1.82-.55-2.79v-14.29Zm-2.31,14.82c-.83,.52-1.68,.78-2.54,.78-1.95,0-2.93-1.26-2.93-3.78,0-1.37,.21-2.64,.65-3.83,.68-.26,1.39-.39,2.14-.39,1.03,0,1.92,.16,2.67,.48v6.73Z"/><polygon class="cls-2" points="219.19 66.08 220.97 67.83 222.72 66.08 220.97 64.31 219.19 66.08"/><rect class="cls-2" x="219.81" y="69.61" width="2.31" height="11.39"/><polygon class="cls-2" points="229.4 78.88 226.48 69.61 224.01 69.61 227.81 81 230.81 81 234.91 69.61 232.63 69.61 229.4 78.88"/><polygon class="cls-2" points="236.04 66.08 237.82 67.83 239.57 66.08 237.82 64.31 236.04 66.08"/><rect class="cls-2" x="236.67" y="69.61" width="2.31" height="11.39"/><path class="cls-2" d="M251.84,63.71h-2.31v6.02c-.78-.29-1.71-.44-2.77-.44-1.31,0-2.52,.29-3.64,.88-.4,.63-.73,1.45-.98,2.47s-.38,2.06-.38,3.14c0,1.83,.41,3.22,1.22,4.16,.81,.95,1.99,1.42,3.53,1.42,1.18,0,2.27-.35,3.25-1.04,.05,.15,.13,.38,.25,.69h2.28l.09-.21c-.37-.89-.55-1.82-.55-2.79v-14.29Zm-2.31,14.82c-.83,.52-1.68,.78-2.54,.78-1.95,0-2.93-1.26-2.93-3.78,0-1.37,.21-2.64,.65-3.83,.68-.26,1.39-.39,2.14-.39,1.03,0,1.92,.16,2.67,.48v6.73Z"/><path class="cls-2" d="M263.41,78.09c-.97,.75-1.98,1.13-3.04,1.13-1.46,0-2.19-.68-2.19-2.03v-7.59h-2.31v8.05c0,2.46,1.3,3.69,3.9,3.69,1.25,0,2.51-.42,3.78-1.25l.18,.9h1.98v-11.39h-2.31v8.48Z"/><path class="cls-2" d="M277.75,73.46c0-1.52-.34-2.59-1.01-3.22-.68-.62-1.76-.93-3.25-.93-1.35,0-2.81,.22-4.38,.67v1.96l.16,.09c1.49-.45,2.77-.67,3.85-.67,.81,0,1.42,.19,1.82,.56,.4,.38,.6,1,.6,1.88v.81c-2.64,.06-4.8,.31-6.46,.74-.45,.85-.67,1.71-.67,2.61,0,1.08,.34,1.91,1.03,2.5,.68,.59,1.65,.89,2.89,.89s2.4-.37,3.41-1.11c.08,.28,.17,.53,.28,.76h2.21l.09-.21c-.38-.85-.58-1.76-.58-2.74v-4.59Zm-2.21,5.3c-.95,.54-1.87,.81-2.74,.81-1.48,0-2.21-.63-2.21-1.89,0-.42,.08-.81,.25-1.18,1.21-.21,2.78-.36,4.7-.44v2.7Z"/><rect class="cls-2" x="281.09" y="63.71" width="2.31" height="17.29"/></g><g><rect class="cls-1" x="194.56" y="57.21" width="2.11" height="2.43"/><rect class="cls-1" x="190.86" y="57.21" width="2.11" height="2.43"/><rect class="cls-1" x="238.57" y="50.46" width="2.11" height="2.43"/><path class="cls-1" d="M238.57,46.11h-12.58v-6.13c0-1.17-.27-2.16-.8-2.97-.53-.81-1.29-1.43-2.27-1.85s-2.16-.63-3.52-.63c-.83,0-1.68,.07-2.56,.2-.88,.14-1.69,.29-2.43,.47l.24,1.73c.97-.14,1.9-.26,2.78-.34,.88-.08,1.56-.12,2.02-.12,1.49,0,2.61,.29,3.33,.88s1.09,1.46,1.09,2.63v6.13h-23.11c-.38,0-.71-.02-1-.05-.29-.04-.55-.1-.78-.2-.23-.1-.48-.23-.73-.39l-1.19,1.59c.61,.4,1.23,.66,1.85,.78,.62,.13,1.24,.19,1.85,.19h1.57v.32c0,1.46-.36,2.56-1.07,3.32-.71,.76-1.75,1.13-3.12,1.13h-7.64c-1.04,0-1.97-.18-2.77-.53-.8-.35-1.43-.84-1.88-1.46-.45-.62-.67-1.34-.67-2.15,0-.42,.06-1.12,.18-2.11,.12-.99,.27-2.09,.47-3.29l-2.08-.3c-.13,.77-.24,1.53-.34,2.28-.1,.75-.18,1.42-.24,2.01s-.09,1.07-.09,1.43c0,.88,.19,1.69,.57,2.43,.38,.74,.9,1.37,1.58,1.9,.67,.53,1.46,.94,2.36,1.24,.9,.3,1.87,.45,2.92,.45h7.64c1.35,0,2.49-.27,3.42-.81,.93-.54,1.63-1.29,2.12-2.24,.49-.95,.73-2.05,.73-3.29v-.35h36.26v-13.5h-2.11v11.58Z"/><path class="cls-1" d="M245.67,48.46c0,1.13-.26,2.02-.78,2.66-.52,.64-1.21,.96-2.05,.96-.16,0-.35-.01-.57-.04-.22-.03-.45-.05-.7-.07l-.24,1.92c.25,.02,.51,.04,.77,.07,.26,.03,.51,.04,.74,.04,.97,0,1.83-.23,2.56-.69,.74-.46,1.32-1.11,1.74-1.94,.42-.84,.63-1.81,.63-2.9v-13.93h-2.11v13.93Z"/><rect class="cls-1" x="263.46" y="50.46" width="2.11" height="2.43"/><rect class="cls-1" x="267.16" y="50.46" width="2.11" height="2.43"/><rect class="cls-1" x="277.9" y="29.67" width="2.11" height="2.43"/><path class="cls-1" d="M276.87,46.11c-1.23-1.2-1.86-2.67-1.86-4.43,0-1.03,.21-1.93,.63-2.71,.42-.78,1.01-1.4,1.77-1.85,.76-.45,1.61-.67,2.56-.67,.41,0,.85,.04,1.31,.13,.46,.09,.91,.22,1.36,.38l.73-1.81c-.56-.2-1.14-.35-1.74-.46-.6-.11-1.17-.16-1.69-.16-.99,0-1.92,.18-2.78,.53-.86,.35-1.61,.85-2.24,1.5-.63,.65-1.13,1.41-1.49,2.28-.36,.87-.54,1.82-.54,2.85,0,1.21,.26,2.34,.77,3.42,.17,.35,.37,.69,.59,1.01h-6.87v-11.58h-2.11v2.65h-5.83v-2.65h-2.11v13.93c0,1.13-.26,2.02-.78,2.66-.52,.64-1.21,.96-2.05,.96-.16,0-.35-.01-.57-.04-.22-.03-.45-.05-.7-.07l-.24,1.92c.25,.02,.51,.04,.77,.07,.26,.03,.51,.04,.74,.04,.97,0,1.83-.23,2.56-.69,.74-.46,1.32-1.11,1.74-1.94,.42-.84,.63-1.81,.63-2.9v-9.34h5.83v8.91h18.41v-1.92h-6.84Z"/></g><g><path class="cls-3" d="M109.97,66.23l-1.19,8.87c-.11,.81-.64,1.5-1.39,1.81l-28.16,11.69c-.5,.21-1.05,.23-1.56,.07h0c-1.56-.49-2.12-2.42-1.06-3.67l19.7-23.18c.57-.68,1.49-.96,2.34-.73l9.66,2.63c1.11,.3,1.82,1.38,1.67,2.52Z"/><path class="cls-3" d="M88.45,48.55l5.15,8.62c.42,.7,.38,1.58-.1,2.23l-19.34,26.58c-.45,.61-1.2,.93-1.95,.81h0c-1.29-.2-2.05-1.55-1.56-2.76l14.19-35.2c.63-1.55,2.76-1.72,3.61-.28Z"/><path class="cls-3" d="M83.14,42.57l-14.2,43.39c-.17,.52-.7,.83-1.23,.73h0c-.53-.1-.91-.58-.89-1.12l2.42-48.16c.03-.62,.57-1.09,1.19-1.03l7.13,.68c.66,.06,1.27,.35,1.74,.82l3.58,3.57c.29,.29,.39,.72,.27,1.11Z"/><path class="cls-3" d="M65.38,85.51l.37-49.79c0-.38-.18-.74-.48-.97l-8.06-6.02c-.85-.63-2.04,.07-1.9,1.12l7.69,55.81c.08,.62,.63,1.06,1.25,1.03h0c.63-.03,1.13-.55,1.13-1.19Z"/><path class="cls-3" d="M62.26,87.62l-10.67-61.68c-.06-.37-.34-.66-.7-.74l-6.3-1.41c-.22-.05-.45-.02-.64,.09l-5.55,3.07c-.4,.22-.57,.7-.41,1.13l22.52,60.01c.25,.66,1.11,.8,1.56,.27h0c.18-.21,.25-.48,.2-.75Z"/><path class="cls-3" d="M56.43,84.58h0s-.06-.07-.08-.1L30.32,42.87c-.23-.36-.34-.78-.33-1.21l.16-5.11c.02-.62,.42-1.16,1-1.36l4.95-1.03c.61-.13,1.21,.2,1.45,.77l19.85,49.02c.24,.6-.51,1.09-.96,.64Z"/></g><g><path class="cls-1" d="M397.89,47.86c-.6-.47-1.19-.86-1.74-1.16-.56-.3-1.32-.66-2.3-1.09-1.66-.76-2.73-1.28-3.2-1.57-.48-.29-.71-.59-.71-.93,1.09-.29,2.33-.43,3.7-.43s2.97,.19,4.77,.57l.25-.11v-5.31c-1.4-.45-2.9-.68-4.49-.68-2.68,0-5.1,.57-7.26,1.71-.93,1.69-1.39,3.38-1.39,5.09,0,1.26,.4,2.29,1.21,3.08,.81,.8,2.03,1.55,3.67,2.26,2.92,1.28,4.51,2.2,4.77,2.74-2.14,.81-4.81,1.21-8.01,1.21s-5.52-.52-7.01-1.57c-1.5-1.04-2.24-2.69-2.24-4.95,0-1.26,.24-2.66,.71-4.2l-.25-.25-3.88,.75c-.67,1.64-1,3.51-1,5.63,0,3.25,1.09,5.75,3.26,7.49,2.17,1.75,5.18,2.62,9.03,2.62,2.47,0,4.86-.3,7.17-.91,2.31-.6,4.23-1.36,5.75-2.26,.62-1.47,.93-2.88,.93-4.24,0-.74-.14-1.39-.41-1.96-.27-.57-.71-1.09-1.32-1.57Z"/><polygon class="cls-1" points="430.95 33.8 427.88 30.09 423.86 33.4 426.99 37.11 430.95 33.8"/><path class="cls-1" d="M425.25,49.75h-6.48c-.19-1.99-.58-3.82-1.17-5.47-.59-1.65-1.47-3.04-2.62-4.18-1.15-1.14-2.47-1.71-3.97-1.71-1.83,0-3.51,1.07-5.04,3.2-1.53,2.14-2.62,4.88-3.26,8.22,1.31,1.54,2.94,2.8,4.91,3.76,1.97,.96,4.15,1.56,6.55,1.8-.24,1.07-.72,1.82-1.44,2.24-.72,.43-1.79,.64-3.19,.64-1.8,0-3.67-.3-5.59-.89l-.32,.28,.57,4.7c1.71,.78,3.32,1.17,4.84,1.17,5.46,0,8.65-2.69,9.58-8.08h11.61v-15.74h-4.98v10.04Zm-17.84-2.17c.38-1.09,.85-1.93,1.42-2.53,.57-.59,1.1-.89,1.6-.89,.9,0,1.69,.49,2.37,1.48,.68,.98,1.14,2.34,1.41,4.08-2.78-.17-5.04-.88-6.8-2.14Z"/></g><g><path class="cls-1" d="M386.98,77.04c0,1.29,.05,2.41,.14,3.34l-.14,.02c-.23-.51-.82-1.5-1.77-2.97l-6.32-9.5h-2.33v16.14h2.14v-9.08c0-1.18-.04-2.29-.12-3.32l.14-.02c.31,.68,.9,1.67,1.77,2.97l6.32,9.45h2.33v-16.14h-2.17v9.11Z"/><path class="cls-1" d="M401.37,76.54c0-1.52-.34-2.59-1.01-3.22-.68-.62-1.76-.93-3.25-.93-1.35,0-2.81,.22-4.38,.67v1.96l.16,.09c1.49-.45,2.77-.67,3.85-.67,.81,0,1.42,.19,1.82,.56,.4,.38,.6,1,.6,1.88v.81c-2.64,.06-4.8,.31-6.46,.74-.45,.85-.67,1.71-.67,2.61,0,1.08,.34,1.91,1.03,2.5,.68,.59,1.65,.89,2.89,.89s2.4-.37,3.41-1.11c.08,.28,.17,.53,.28,.76h2.21l.09-.21c-.38-.85-.58-1.76-.58-2.74v-4.59Zm-2.21,5.3c-.95,.54-1.87,.81-2.74,.81-1.48,0-2.21-.63-2.21-1.89,0-.42,.08-.81,.25-1.18,1.21-.21,2.78-.36,4.7-.44v2.7Z"/><polygon class="cls-1" points="415.82 81.84 413.4 72.68 410.52 72.68 407.96 81.84 405.52 72.68 403.05 72.68 406.3 84.07 409.3 84.07 411.74 75.27 414.14 84.07 417.25 84.07 420.67 72.68 418.38 72.68 415.82 81.84"/><path class="cls-1" d="M430.76,81.12v-4.59c0-1.52-.34-2.59-1.01-3.22-.68-.62-1.76-.93-3.25-.93-1.35,0-2.81,.22-4.38,.67v1.96l.16,.09c1.49-.45,2.77-.67,3.85-.67,.81,0,1.42,.19,1.82,.56,.4,.38,.6,1,.6,1.88v.81c-2.64,.06-4.8,.31-6.46,.74-.45,.85-.67,1.71-.67,2.61,0,1.08,.34,1.91,1.03,2.5,.68,.59,1.65,.89,2.89,.89s2.4-.37,3.41-1.11c.08,.28,.17,.53,.28,.76h2.21l.09-.21c-.38-.85-.58-1.76-.58-2.74Zm-2.21,.71c-.95,.54-1.87,.81-2.74,.81-1.48,0-2.21-.63-2.21-1.89,0-.42,.08-.81,.25-1.18,1.21-.21,2.78-.36,4.7-.44v2.7Z"/></g><rect class="cls-2" x="354.49" y="26.12" width="3.86" height="65.07"/></svg>