<?xml version="1.0" encoding="UTF-8"?><svg id="Layer_1" xmlns="http://www.w3.org/2000/svg" viewBox="0 0 441 111"><defs><style>.cls-1{fill:#fff;}.cls-2{stroke-width:2px;}.cls-2,.cls-3{fill:none;stroke:#afafaf;stroke-miterlimit:10;}.cls-4{fill:#afafaf;}.cls-3{stroke-width:.75px;}</style></defs><rect class="cls-2" x="10.99" y="14" width="315.01" height="85" rx="23.52" ry="23.52"/><g><rect class="cls-4" x="186.84" y="64.86" width="2.35" height="16.14"/><path class="cls-4" d="M199.02,69.29c-1.23,0-2.48,.4-3.76,1.2l-.21-.88h-1.98v11.39h2.31v-8.46c.97-.75,1.98-1.13,3.04-1.13,1.46,0,2.19,.67,2.19,2.01v7.58h2.31v-8.05c0-2.44-1.3-3.67-3.9-3.67Z"/><path class="cls-4" d="M215.71,63.71h-2.31v6.02c-.78-.29-1.71-.44-2.77-.44-1.31,0-2.52,.29-3.64,.88-.4,.63-.73,1.45-.98,2.47s-.38,2.06-.38,3.14c0,1.83,.41,3.22,1.22,4.16,.81,.95,1.99,1.42,3.53,1.42,1.18,0,2.27-.35,3.25-1.04,.05,.15,.13,.38,.25,.69h2.28l.09-.21c-.37-.89-.55-1.82-.55-2.79v-14.29Zm-2.31,14.82c-.83,.52-1.68,.78-2.54,.78-1.95,0-2.93-1.26-2.93-3.78,0-1.37,.21-2.64,.65-3.83,.68-.26,1.39-.39,2.14-.39,1.03,0,1.92,.16,2.67,.48v6.73Z"/><polygon class="cls-4" points="219.19 66.08 220.97 67.83 222.72 66.08 220.97 64.31 219.19 66.08"/><rect class="cls-4" x="219.81" y="69.61" width="2.31" height="11.39"/><polygon class="cls-4" points="229.4 78.88 226.48 69.61 224.01 69.61 227.81 81 230.81 81 234.91 69.61 232.63 69.61 229.4 78.88"/><rect class="cls-4" x="236.67" y="69.61" width="2.31" height="11.39"/><polygon class="cls-4" points="236.04 66.08 237.82 67.83 239.57 66.08 237.82 64.31 236.04 66.08"/><path class="cls-4" d="M251.84,63.71h-2.31v6.02c-.78-.29-1.71-.44-2.77-.44-1.31,0-2.52,.29-3.64,.88-.4,.63-.73,1.45-.98,2.47s-.38,2.06-.38,3.14c0,1.83,.41,3.22,1.22,4.16,.81,.95,1.99,1.42,3.53,1.42,1.18,0,2.27-.35,3.25-1.04,.05,.15,.13,.38,.25,.69h2.28l.09-.21c-.37-.89-.55-1.82-.55-2.79v-14.29Zm-2.31,14.82c-.83,.52-1.68,.78-2.54,.78-1.95,0-2.93-1.26-2.93-3.78,0-1.37,.21-2.64,.65-3.83,.68-.26,1.39-.39,2.14-.39,1.03,0,1.92,.16,2.67,.48v6.73Z"/><path class="cls-4" d="M263.41,78.09c-.97,.75-1.98,1.13-3.04,1.13-1.46,0-2.19-.68-2.19-2.03v-7.59h-2.31v8.05c0,2.46,1.3,3.69,3.9,3.69,1.25,0,2.51-.42,3.78-1.25l.18,.9h1.98v-11.39h-2.31v8.48Z"/><path class="cls-4" d="M277.75,73.46c0-1.52-.34-2.59-1.01-3.22-.68-.62-1.76-.93-3.25-.93-1.35,0-2.81,.22-4.38,.67v1.96l.16,.09c1.49-.45,2.77-.67,3.85-.67,.81,0,1.42,.19,1.82,.56,.4,.38,.6,1,.6,1.88v.81c-2.64,.06-4.8,.31-6.46,.74-.45,.85-.67,1.71-.67,2.61,0,1.08,.34,1.91,1.03,2.5,.68,.59,1.65,.89,2.89,.89s2.4-.37,3.41-1.11c.08,.28,.17,.53,.28,.76h2.21l.09-.21c-.38-.85-.58-1.76-.58-2.74v-4.59Zm-2.21,5.3c-.95,.54-1.87,.81-2.74,.81-1.48,0-2.21-.63-2.21-1.89,0-.42,.08-.81,.25-1.18,1.21-.21,2.78-.36,4.7-.44v2.7Z"/><rect class="cls-4" x="281.09" y="63.71" width="2.31" height="17.29"/></g><g><path class="cls-4" d="M223.37,35.21c-1.03-.45-2.26-.67-3.7-.67h-2.19v1.92h2.19c1.17,0,2.1,.17,2.79,.5,.69,.33,1.19,.89,1.5,1.66,.31,.77,.46,1.83,.46,3.16v4.35h-8.34v1.92h10.45v-6.26c0-1.82-.27-3.25-.81-4.31-.54-1.05-1.32-1.8-2.35-2.25Z"/><rect class="cls-4" x="230.09" y="28.67" width="2.08" height="19.36"/><rect class="cls-4" x="270.67" y="29.67" width="2.11" height="2.43"/><path class="cls-4" d="M267.66,35.25c-.87,.48-1.48,1.21-1.84,2.21s-.53,2.27-.53,3.82,.18,2.78,.53,3.69c.17,.45,.41,.83,.71,1.15h-27.13v-11.58h-2.11v13.93c0,1.13-.26,2.02-.78,2.66-.52,.64-1.21,.96-2.05,.96-.16,0-.35-.01-.57-.04-.22-.03-.45-.05-.7-.07l-.24,1.92c.25,.02,.51,.04,.77,.07,.26,.03,.51,.04,.74,.04,.97,0,1.83-.23,2.56-.69,.74-.46,1.32-1.11,1.74-1.94,.42-.84,.63-1.81,.63-2.9v-.43h37.5v-13.5h-5.59c-1.57,0-2.79,.24-3.66,.72Zm1.24,10.49c-.57-.25-.96-.72-1.17-1.42-.22-.69-.32-1.71-.32-3.04s.11-2.34,.32-3.04c.22-.69,.61-1.17,1.17-1.42s1.37-.38,2.42-.38h3.48v9.67h-3.48c-1.04,0-1.85-.13-2.42-.38Z"/><rect class="cls-4" x="281.01" y="28.67" width="2.08" height="19.36"/><path class="cls-4" d="M281.64,25.46s-.01-.02-.01-.03c-.1-.22-.15-.44-.15-.68,0-.38,.12-.68,.36-.92,.24-.23,.57-.35,.99-.35,.14,0,.28,.01,.42,.04,.14,.03,.27,.09,.42,.18l.7-1.21c-.22-.14-.47-.26-.76-.34-.29-.08-.58-.12-.86-.12-.5,0-.97,.12-1.4,.35-.43,.23-.78,.56-1.04,.97-.26,.41-.39,.88-.39,1.4,0,.24,.04,.47,.11,.7h-.62v1.43h5.32v-1.43h-3.08Z"/></g><g><path class="cls-3" d="M109.97,65.73l-1.19,8.87c-.11,.81-.64,1.5-1.39,1.81l-28.16,11.69c-.5,.21-1.05,.23-1.56,.07h0c-1.56-.49-2.12-2.42-1.06-3.67l19.7-23.18c.57-.68,1.49-.96,2.34-.73l9.66,2.63c1.11,.3,1.82,1.38,1.67,2.52Z"/><path class="cls-3" d="M88.45,48.05l5.15,8.62c.42,.7,.38,1.58-.1,2.23l-19.34,26.58c-.45,.61-1.2,.93-1.95,.81h0c-1.29-.2-2.05-1.55-1.56-2.76l14.19-35.2c.63-1.55,2.76-1.72,3.61-.28Z"/><path class="cls-3" d="M83.14,42.07l-14.2,43.39c-.17,.52-.7,.83-1.23,.73h0c-.53-.1-.91-.58-.89-1.12l2.42-48.16c.03-.62,.57-1.09,1.19-1.03l7.13,.68c.66,.06,1.27,.35,1.74,.82l3.58,3.57c.29,.29,.39,.72,.27,1.11Z"/><path class="cls-3" d="M65.38,85.01l.37-49.79c0-.38-.18-.74-.48-.97l-8.06-6.02c-.85-.63-2.04,.07-1.9,1.12l7.69,55.81c.08,.62,.63,1.06,1.25,1.03h0c.63-.03,1.13-.55,1.13-1.19Z"/><path class="cls-3" d="M62.26,87.12l-10.67-61.68c-.06-.37-.34-.66-.7-.74l-6.3-1.41c-.22-.05-.45-.02-.64,.09l-5.55,3.07c-.4,.22-.57,.7-.41,1.13l22.52,60.01c.25,.66,1.11,.8,1.56,.27h0c.18-.21,.25-.48,.2-.75Z"/><path class="cls-3" d="M56.43,84.08h0s-.06-.07-.08-.1L30.32,42.37c-.23-.36-.34-.78-.33-1.21l.16-5.11c.02-.62,.42-1.16,1-1.36l4.95-1.03c.61-.13,1.21,.2,1.45,.77l19.85,49.02c.24,.6-.51,1.09-.96,.64Z"/></g><g><path class="cls-1" d="M397.89,47.86c-.6-.47-1.19-.86-1.74-1.16-.56-.3-1.32-.66-2.3-1.09-1.66-.76-2.73-1.28-3.2-1.57-.48-.29-.71-.59-.71-.93,1.09-.29,2.33-.43,3.7-.43s2.97,.19,4.77,.57l.25-.11v-5.31c-1.4-.45-2.9-.68-4.49-.68-2.68,0-5.1,.57-7.26,1.71-.93,1.69-1.39,3.38-1.39,5.09,0,1.26,.4,2.29,1.21,3.08,.81,.8,2.03,1.55,3.67,2.26,2.92,1.28,4.51,2.2,4.77,2.74-2.14,.81-4.81,1.21-8.01,1.21s-5.52-.52-7.01-1.57c-1.5-1.04-2.24-2.69-2.24-4.95,0-1.26,.24-2.66,.71-4.2l-.25-.25-3.88,.75c-.67,1.64-1,3.51-1,5.63,0,3.25,1.09,5.75,3.26,7.49,2.17,1.75,5.18,2.62,9.03,2.62,2.47,0,4.86-.3,7.17-.91,2.31-.6,4.23-1.36,5.75-2.26,.62-1.47,.93-2.88,.93-4.24,0-.74-.14-1.39-.41-1.96-.27-.57-.71-1.09-1.32-1.57Z"/><polygon class="cls-1" points="430.95 33.8 427.88 30.09 423.86 33.4 426.99 37.11 430.95 33.8"/><path class="cls-1" d="M425.25,49.75h-6.48c-.19-1.99-.58-3.82-1.17-5.47-.59-1.65-1.47-3.04-2.62-4.18-1.15-1.14-2.47-1.71-3.97-1.71-1.83,0-3.51,1.07-5.04,3.2-1.53,2.14-2.62,4.88-3.26,8.22,1.31,1.54,2.94,2.8,4.91,3.76,1.97,.96,4.15,1.56,6.55,1.8-.24,1.07-.72,1.82-1.44,2.24-.72,.43-1.79,.64-3.19,.64-1.8,0-3.67-.3-5.59-.89l-.32,.28,.57,4.7c1.71,.78,3.32,1.17,4.84,1.17,5.46,0,8.65-2.69,9.58-8.08h11.61v-15.74h-4.98v10.04Zm-17.84-2.17c.38-1.09,.85-1.93,1.42-2.53,.57-.59,1.1-.89,1.6-.89,.9,0,1.69,.49,2.37,1.48,.68,.98,1.14,2.34,1.41,4.08-2.78-.17-5.04-.88-6.8-2.14Z"/></g><g><path class="cls-1" d="M386.98,77.04c0,1.29,.05,2.41,.14,3.34l-.14,.02c-.23-.51-.82-1.5-1.77-2.97l-6.32-9.5h-2.33v16.14h2.14v-9.08c0-1.18-.04-2.29-.12-3.32l.14-.02c.31,.68,.9,1.67,1.77,2.97l6.32,9.45h2.33v-16.14h-2.17v9.11Z"/><path class="cls-1" d="M401.37,76.54c0-1.52-.34-2.59-1.01-3.22-.68-.62-1.76-.93-3.25-.93-1.35,0-2.81,.22-4.38,.67v1.96l.16,.09c1.49-.45,2.77-.67,3.85-.67,.81,0,1.42,.19,1.82,.56,.4,.38,.6,1,.6,1.88v.81c-2.64,.06-4.8,.31-6.46,.74-.45,.85-.67,1.71-.67,2.61,0,1.08,.34,1.91,1.03,2.5,.68,.59,1.65,.89,2.89,.89s2.4-.37,3.41-1.11c.08,.28,.17,.53,.28,.76h2.21l.09-.21c-.38-.85-.58-1.76-.58-2.74v-4.59Zm-2.21,5.3c-.95,.54-1.87,.81-2.74,.81-1.48,0-2.21-.63-2.21-1.89,0-.42,.08-.81,.25-1.18,1.21-.21,2.78-.36,4.7-.44v2.7Z"/><polygon class="cls-1" points="415.82 81.84 413.4 72.68 410.52 72.68 407.96 81.84 405.52 72.68 403.05 72.68 406.3 84.07 409.3 84.07 411.74 75.27 414.14 84.07 417.25 84.07 420.67 72.68 418.38 72.68 415.82 81.84"/><path class="cls-1" d="M430.76,81.12v-4.59c0-1.52-.34-2.59-1.01-3.22-.68-.62-1.76-.93-3.25-.93-1.35,0-2.81,.22-4.38,.67v1.96l.16,.09c1.49-.45,2.77-.67,3.85-.67,.81,0,1.42,.19,1.82,.56,.4,.38,.6,1,.6,1.88v.81c-2.64,.06-4.8,.31-6.46,.74-.45,.85-.67,1.71-.67,2.61,0,1.08,.34,1.91,1.03,2.5,.68,.59,1.65,.89,2.89,.89s2.4-.37,3.41-1.11c.08,.28,.17,.53,.28,.76h2.21l.09-.21c-.38-.85-.58-1.76-.58-2.74Zm-2.21,.71c-.95,.54-1.87,.81-2.74,.81-1.48,0-2.21-.63-2.21-1.89,0-.42,.08-.81,.25-1.18,1.21-.21,2.78-.36,4.7-.44v2.7Z"/></g><rect class="cls-4" x="354.49" y="26.12" width="3.86" height="65.07"/></svg>