<?xml version="1.0" encoding="utf-8"?>
<!-- Generator: Adobe Illustrator 26.5.0, SVG Export Plug-In . SVG Version: 6.00 Build 0)  -->
<svg version="1.1" id="Layer_1" xmlns="http://www.w3.org/2000/svg" xmlns:xlink="http://www.w3.org/1999/xlink" x="0px" y="0px"
	 viewBox="0 0 441 111" style="enable-background:new 0 0 441 111;" xml:space="preserve">
<style type="text/css">
	.st0{fill:none;stroke:#72D6C3;stroke-width:2;stroke-miterlimit:10;}
	.st1{fill:#72D6C3;}
	.st2{fill:none;stroke:#72D6C3;stroke-width:0.5;stroke-miterlimit:10;}
	.st3{fill:#AAAAAA;}
</style>
<path class="st0" d="M34.5,14h268c13,0,23.5,10.5,23.5,23.5v38c0,13-10.5,23.5-23.5,23.5h-268C21.5,99,11,88.5,11,75.5v-38
	C11,24.5,21.5,14,34.5,14z"/>
<g>
	<rect x="186.8" y="64.9" class="st1" width="2.4" height="16.1"/>
	<path class="st1" d="M199,69.3c-1.2,0-2.5,0.4-3.8,1.2l-0.2-0.9h-2V81h2.3v-8.5c1-0.8,2-1.1,3-1.1c1.5,0,2.2,0.7,2.2,2V81h2.3V73
		C202.9,70.5,201.6,69.3,199,69.3L199,69.3z"/>
	<path class="st1" d="M215.7,63.7h-2.3v6c-0.8-0.3-1.7-0.4-2.8-0.4c-1.3,0-2.5,0.3-3.6,0.9c-0.4,0.6-0.7,1.4-1,2.5s-0.4,2.1-0.4,3.1
		c0,1.8,0.4,3.2,1.2,4.2c0.8,0.9,2,1.4,3.5,1.4c1.2,0,2.3-0.3,3.2-1c0.1,0.2,0.1,0.4,0.2,0.7h2.3l0.1-0.2c-0.4-0.9-0.6-1.8-0.6-2.8
		L215.7,63.7L215.7,63.7z M213.4,78.5c-0.8,0.5-1.7,0.8-2.5,0.8c-1.9,0-2.9-1.3-2.9-3.8c0-1.4,0.2-2.6,0.6-3.8
		c0.7-0.3,1.4-0.4,2.1-0.4c1,0,1.9,0.2,2.7,0.5L213.4,78.5L213.4,78.5z"/>
	<polygon class="st1" points="219.2,66.1 221,67.8 222.7,66.1 221,64.3 	"/>
	<rect x="219.8" y="69.6" class="st1" width="2.3" height="11.4"/>
	<polygon class="st1" points="229.4,78.9 226.5,69.6 224,69.6 227.8,81 230.8,81 234.9,69.6 232.6,69.6 	"/>
	<polygon class="st1" points="236,66.1 237.8,67.8 239.6,66.1 237.8,64.3 	"/>
	<rect x="236.7" y="69.6" class="st1" width="2.3" height="11.4"/>
	<path class="st1" d="M251.8,63.7h-2.3v6c-0.8-0.3-1.7-0.4-2.8-0.4c-1.3,0-2.5,0.3-3.6,0.9c-0.4,0.6-0.7,1.4-1,2.5s-0.4,2.1-0.4,3.1
		c0,1.8,0.4,3.2,1.2,4.2c0.8,0.9,2,1.4,3.5,1.4c1.2,0,2.3-0.3,3.2-1c0.1,0.2,0.1,0.4,0.2,0.7h2.3l0.1-0.2c-0.4-0.9-0.6-1.8-0.6-2.8
		L251.8,63.7L251.8,63.7z M249.5,78.5c-0.8,0.5-1.7,0.8-2.5,0.8c-1.9,0-2.9-1.3-2.9-3.8c0-1.4,0.2-2.6,0.6-3.8
		c0.7-0.3,1.4-0.4,2.1-0.4c1,0,1.9,0.2,2.7,0.5L249.5,78.5L249.5,78.5z"/>
	<path class="st1" d="M263.4,78.1c-1,0.8-2,1.1-3,1.1c-1.5,0-2.2-0.7-2.2-2v-7.6h-2.3v8.1c0,2.5,1.3,3.7,3.9,3.7
		c1.2,0,2.5-0.4,3.8-1.2l0.2,0.9h2V69.6h-2.3L263.4,78.1L263.4,78.1z"/>
	<path class="st1" d="M277.8,73.5c0-1.5-0.3-2.6-1-3.2c-0.7-0.6-1.8-0.9-3.2-0.9c-1.4,0-2.8,0.2-4.4,0.7v2l0.2,0.1
		c1.5-0.4,2.8-0.7,3.9-0.7c0.8,0,1.4,0.2,1.8,0.6c0.4,0.4,0.6,1,0.6,1.9v0.8c-2.6,0.1-4.8,0.3-6.5,0.7c-0.5,0.8-0.7,1.7-0.7,2.6
		c0,1.1,0.3,1.9,1,2.5c0.7,0.6,1.6,0.9,2.9,0.9s2.4-0.4,3.4-1.1c0.1,0.3,0.2,0.5,0.3,0.8h2.2l0.1-0.2c-0.4-0.8-0.6-1.8-0.6-2.7
		L277.8,73.5L277.8,73.5z M275.5,78.8c-1,0.5-1.9,0.8-2.7,0.8c-1.5,0-2.2-0.6-2.2-1.9c0-0.4,0.1-0.8,0.2-1.2
		c1.2-0.2,2.8-0.4,4.7-0.4L275.5,78.8L275.5,78.8z"/>
	<rect x="281.1" y="63.7" class="st1" width="2.3" height="17.3"/>
</g>
<g>
	<rect x="194.6" y="57.2" class="st1" width="2.1" height="2.4"/>
	<rect x="190.9" y="57.2" class="st1" width="2.1" height="2.4"/>
	<rect x="238.6" y="50.5" class="st1" width="2.1" height="2.4"/>
	<path class="st1" d="M238.6,46.1H226V40c0-1.2-0.3-2.2-0.8-3s-1.3-1.4-2.3-1.8s-2.2-0.6-3.5-0.6c-0.8,0-1.7,0.1-2.6,0.2
		c-0.9,0.1-1.7,0.3-2.4,0.5l0.2,1.7c1-0.1,1.9-0.3,2.8-0.3s1.6-0.1,2-0.1c1.5,0,2.6,0.3,3.3,0.9s1.1,1.5,1.1,2.6v6.1h-23.1
		c-0.4,0-0.7,0-1,0c-0.3,0-0.6-0.1-0.8-0.2c-0.2-0.1-0.5-0.2-0.7-0.4l-1.2,1.6c0.6,0.4,1.2,0.7,1.9,0.8c0.6,0.1,1.2,0.2,1.9,0.2h1.6
		v0.3c0,1.5-0.4,2.6-1.1,3.3s-1.8,1.1-3.1,1.1h-7.6c-1,0-2-0.2-2.8-0.5s-1.4-0.8-1.9-1.5c-0.4-0.6-0.7-1.3-0.7-2.2
		c0-0.4,0.1-1.1,0.2-2.1s0.3-2.1,0.5-3.3l-2.1-0.3c-0.1,0.8-0.2,1.5-0.3,2.3c-0.1,0.8-0.2,1.4-0.2,2s-0.1,1.1-0.1,1.4
		c0,0.9,0.2,1.7,0.6,2.4s0.9,1.4,1.6,1.9c0.7,0.5,1.5,0.9,2.4,1.2c0.9,0.3,1.9,0.5,2.9,0.5h7.6c1.4,0,2.5-0.3,3.4-0.8
		s1.6-1.3,2.1-2.2c0.5-1,0.7-2,0.7-3.3V48h36.3V34.5h-2.1V46.1L238.6,46.1z"/>
	<path class="st1" d="M245.7,48.5c0,1.1-0.3,2-0.8,2.7s-1.2,1-2.1,1c-0.2,0-0.4,0-0.6,0c-0.2,0-0.4,0-0.7-0.1l-0.2,1.9
		c0.2,0,0.5,0,0.8,0.1c0.3,0,0.5,0,0.7,0c1,0,1.8-0.2,2.6-0.7c0.7-0.5,1.3-1.1,1.7-1.9c0.4-0.8,0.6-1.8,0.6-2.9V34.5h-2.1
		L245.7,48.5L245.7,48.5z"/>
	<rect x="263.5" y="50.5" class="st1" width="2.1" height="2.4"/>
	<rect x="267.2" y="50.5" class="st1" width="2.1" height="2.4"/>
	<rect x="277.9" y="29.7" class="st1" width="2.1" height="2.4"/>
	<path class="st1" d="M276.9,46.1c-1.2-1.2-1.9-2.7-1.9-4.4c0-1,0.2-1.9,0.6-2.7s1-1.4,1.8-1.8c0.8-0.5,1.6-0.7,2.6-0.7
		c0.4,0,0.9,0,1.3,0.1s0.9,0.2,1.4,0.4l0.7-1.8c-0.6-0.2-1.1-0.3-1.7-0.5c-0.6-0.1-1.2-0.2-1.7-0.2c-1,0-1.9,0.2-2.8,0.5
		s-1.6,0.8-2.2,1.5s-1.1,1.4-1.5,2.3s-0.5,1.8-0.5,2.8c0,1.2,0.3,2.3,0.8,3.4c0.2,0.3,0.4,0.7,0.6,1h-6.9V34.5h-2.1v2.7h-5.8v-2.7
		h-2.1v13.9c0,1.1-0.3,2-0.8,2.7s-1.2,1-2.1,1c-0.2,0-0.4,0-0.6,0c-0.2,0-0.4,0-0.7-0.1l-0.2,1.9c0.2,0,0.5,0,0.8,0.1
		c0.3,0,0.5,0,0.7,0c1,0,1.8-0.2,2.6-0.7c0.7-0.5,1.3-1.1,1.7-1.9c0.4-0.8,0.6-1.8,0.6-2.9v-9.3h5.8V48h18.4v-1.9L276.9,46.1
		L276.9,46.1z"/>
</g>
<g>
	<path class="st2" d="M110,66.2l-1.2,8.9c-0.1,0.8-0.6,1.5-1.4,1.8L79.2,88.6c-0.5,0.2-1.1,0.2-1.6,0.1l0,0
		c-1.6-0.5-2.1-2.4-1.1-3.7l19.7-23.2c0.6-0.7,1.5-1,2.3-0.7l9.7,2.6C109.4,64,110.1,65.1,110,66.2L110,66.2z"/>
	<path class="st2" d="M88.4,48.5l5.2,8.6c0.4,0.7,0.4,1.6-0.1,2.2L74.2,86c-0.4,0.6-1.2,0.9-1.9,0.8l0,0c-1.3-0.2-2.1-1.6-1.6-2.8
		l14.2-35.2C85.5,47.3,87.6,47.1,88.4,48.5L88.4,48.5z"/>
	<path class="st2" d="M83.1,42.6L68.9,86c-0.2,0.5-0.7,0.8-1.2,0.7l0,0c-0.5-0.1-0.9-0.6-0.9-1.1l2.4-48.2c0-0.6,0.6-1.1,1.2-1
		l7.1,0.7c0.7,0.1,1.3,0.3,1.7,0.8l3.6,3.6C83.2,41.7,83.3,42.2,83.1,42.6L83.1,42.6z"/>
	<path class="st2" d="M65.4,85.5l0.4-49.8c0-0.4-0.2-0.7-0.5-1l-8.1-6c-0.8-0.6-2,0.1-1.9,1.1L63,85.7c0.1,0.6,0.6,1.1,1.2,1l0,0
		C64.9,86.7,65.4,86.1,65.4,85.5L65.4,85.5z"/>
	<path class="st2" d="M62.3,87.6L51.6,25.9c-0.1-0.4-0.3-0.7-0.7-0.7l-6.3-1.4c-0.2,0-0.5,0-0.6,0.1L38.4,27
		c-0.4,0.2-0.6,0.7-0.4,1.1l22.5,60c0.2,0.7,1.1,0.8,1.6,0.3l0,0C62.2,88.1,62.3,87.9,62.3,87.6L62.3,87.6z"/>
	<path class="st2" d="M56.4,84.6L56.4,84.6C56.4,84.6,56.4,84.5,56.4,84.6L30.3,42.9c-0.2-0.4-0.3-0.8-0.3-1.2l0.2-5.1
		c0-0.6,0.4-1.2,1-1.4l4.9-1c0.6-0.1,1.2,0.2,1.5,0.8l19.9,49C57.6,84.5,56.9,85,56.4,84.6L56.4,84.6z"/>
</g>
<g>
	<path class="st3" d="M397.9,47.9c-0.6-0.5-1.2-0.9-1.7-1.2c-0.6-0.3-1.3-0.7-2.3-1.1c-1.7-0.8-2.7-1.3-3.2-1.6
		c-0.5-0.3-0.7-0.6-0.7-0.9c1.1-0.3,2.3-0.4,3.7-0.4s3,0.2,4.8,0.6l0.2-0.1v-5.3c-1.4-0.5-2.9-0.7-4.5-0.7c-2.7,0-5.1,0.6-7.3,1.7
		c-0.9,1.7-1.4,3.4-1.4,5.1c0,1.3,0.4,2.3,1.2,3.1c0.8,0.8,2,1.5,3.7,2.3c2.9,1.3,4.5,2.2,4.8,2.7c-2.1,0.8-4.8,1.2-8,1.2
		s-5.5-0.5-7-1.6c-1.5-1-2.2-2.7-2.2-5c0-1.3,0.2-2.7,0.7-4.2l-0.2-0.2l-3.9,0.8c-0.7,1.6-1,3.5-1,5.6c0,3.2,1.1,5.8,3.3,7.5
		c2.2,1.8,5.2,2.6,9,2.6c2.5,0,4.9-0.3,7.2-0.9c2.3-0.6,4.2-1.4,5.8-2.3c0.6-1.5,0.9-2.9,0.9-4.2c0-0.7-0.1-1.4-0.4-2
		S398.5,48.3,397.9,47.9L397.9,47.9z"/>
	<polygon class="st3" points="431,33.8 427.9,30.1 423.9,33.4 427,37.1 	"/>
	<path class="st3" d="M425.2,49.8h-6.5c-0.2-2-0.6-3.8-1.2-5.5c-0.6-1.7-1.5-3-2.6-4.2s-2.5-1.7-4-1.7c-1.8,0-3.5,1.1-5,3.2
		c-1.5,2.1-2.6,4.9-3.3,8.2c1.3,1.5,2.9,2.8,4.9,3.8s4.1,1.6,6.5,1.8c-0.2,1.1-0.7,1.8-1.4,2.2c-0.7,0.4-1.8,0.6-3.2,0.6
		c-1.8,0-3.7-0.3-5.6-0.9l-0.3,0.3l0.6,4.7c1.7,0.8,3.3,1.2,4.8,1.2c5.5,0,8.6-2.7,9.6-8.1h11.6V39.7h-5L425.2,49.8L425.2,49.8z
		 M407.4,47.6c0.4-1.1,0.9-1.9,1.4-2.5c0.6-0.6,1.1-0.9,1.6-0.9c0.9,0,1.7,0.5,2.4,1.5c0.7,1,1.1,2.3,1.4,4.1
		C411.4,49.6,409.2,48.8,407.4,47.6L407.4,47.6z"/>
</g>
<g>
	<path class="st3" d="M387,77c0,1.3,0,2.4,0.1,3.3l-0.1,0c-0.2-0.5-0.8-1.5-1.8-3l-6.3-9.5h-2.3v16.1h2.1V75c0-1.2,0-2.3-0.1-3.3
		l0.1,0c0.3,0.7,0.9,1.7,1.8,3l6.3,9.4h2.3V67.9H387L387,77L387,77z"/>
	<path class="st3" d="M401.4,76.5c0-1.5-0.3-2.6-1-3.2c-0.7-0.6-1.8-0.9-3.2-0.9c-1.4,0-2.8,0.2-4.4,0.7v2l0.2,0.1
		c1.5-0.4,2.8-0.7,3.9-0.7c0.8,0,1.4,0.2,1.8,0.6c0.4,0.4,0.6,1,0.6,1.9v0.8c-2.6,0.1-4.8,0.3-6.5,0.7c-0.5,0.8-0.7,1.7-0.7,2.6
		c0,1.1,0.3,1.9,1,2.5c0.7,0.6,1.6,0.9,2.9,0.9s2.4-0.4,3.4-1.1c0.1,0.3,0.2,0.5,0.3,0.8h2.2l0.1-0.2c-0.4-0.8-0.6-1.8-0.6-2.7
		L401.4,76.5L401.4,76.5z M399.2,81.8c-1,0.5-1.9,0.8-2.7,0.8c-1.5,0-2.2-0.6-2.2-1.9c0-0.4,0.1-0.8,0.2-1.2
		c1.2-0.2,2.8-0.4,4.7-0.4L399.2,81.8L399.2,81.8z"/>
	<polygon class="st3" points="415.8,81.8 413.4,72.7 410.5,72.7 408,81.8 405.5,72.7 403,72.7 406.3,84.1 409.3,84.1 411.7,75.3 
		414.1,84.1 417.2,84.1 420.7,72.7 418.4,72.7 	"/>
	<path class="st3" d="M430.8,81.1v-4.6c0-1.5-0.3-2.6-1-3.2c-0.7-0.6-1.8-0.9-3.2-0.9c-1.4,0-2.8,0.2-4.4,0.7v2l0.2,0.1
		c1.5-0.4,2.8-0.7,3.9-0.7c0.8,0,1.4,0.2,1.8,0.6c0.4,0.4,0.6,1,0.6,1.9v0.8c-2.6,0.1-4.8,0.3-6.5,0.7c-0.5,0.8-0.7,1.7-0.7,2.6
		c0,1.1,0.3,1.9,1,2.5c0.7,0.6,1.6,0.9,2.9,0.9s2.4-0.4,3.4-1.1c0.1,0.3,0.2,0.5,0.3,0.8h2.2l0.1-0.2C431,83,430.8,82.1,430.8,81.1
		L430.8,81.1z M428.6,81.8c-1,0.5-1.9,0.8-2.7,0.8c-1.5,0-2.2-0.6-2.2-1.9c0-0.4,0.1-0.8,0.2-1.2c1.2-0.2,2.8-0.4,4.7-0.4
		L428.6,81.8L428.6,81.8z"/>
</g>
<rect x="354.5" y="26.1" class="st1" width="3.9" height="65.1"/>
</svg>
