<svg id="Component_1_3" data-name="Component 1 – 3" xmlns="http://www.w3.org/2000/svg" xmlns:xlink="http://www.w3.org/1999/xlink" width="93.95" height="50.451" viewBox="0 0 93.95 50.451">
  <defs>
    <clipPath id="clip-path">
      <rect id="Rectangle_2" data-name="Rectangle 2" width="93.95" height="50.451" fill="#fff"/>
    </clipPath>
  </defs>
  <g id="Group_2" data-name="Group 2" clip-path="url(#clip-path)">
    <path id="Path_8" data-name="Path 8" d="M1.435,1.522h.612A.373.373,0,0,0,2.3,1.428a.294.294,0,0,0,.11-.235V.346A.315.315,0,0,0,2.3.094.339.339,0,0,0,2.046,0H1.435a.4.4,0,0,0-.266.093.343.343,0,0,0-.094.252v.847a.318.318,0,0,0,.094.235.394.394,0,0,0,.266.094" transform="translate(0.273 0)" fill="#fff"/>
    <path id="Path_9" data-name="Path 9" d="M3.488,1.522H4.1a.373.373,0,0,0,.251-.094.294.294,0,0,0,.11-.235V.346a.315.315,0,0,0-.11-.252A.378.378,0,0,0,4.1,0h-.61a.445.445,0,0,0-.267.093.318.318,0,0,0-.109.252v.847a.3.3,0,0,0,.109.235.439.439,0,0,0,.267.094" transform="translate(0.789 0)" fill="#fff"/>
    <path id="Path_10" data-name="Path 10" d="M7.231,9.538h-.61a.4.4,0,0,0-.267.094.34.34,0,0,0-.094.251v.847a.3.3,0,0,0,.094.22.364.364,0,0,0,.267.11h.61a.347.347,0,0,0,.251-.11.284.284,0,0,0,.11-.22V9.883a.316.316,0,0,0-.11-.251.339.339,0,0,0-.251-.094" transform="translate(1.587 2.429)" fill="#fff"/>
    <path id="Path_11" data-name="Path 11" d="M9.285,9.538h-.61a.439.439,0,0,0-.267.094.316.316,0,0,0-.11.251v.847a.284.284,0,0,0,.11.22.4.4,0,0,0,.267.11h.61a.347.347,0,0,0,.251-.11.282.282,0,0,0,.109-.22V9.883a.315.315,0,0,0-.109-.251.373.373,0,0,0-.251-.094" transform="translate(2.103 2.429)" fill="#fff"/>
    <path id="Path_12" data-name="Path 12" d="M12.421,9.538h-.674a.373.373,0,0,0-.251.094.313.313,0,0,0-.11.251v.847a.28.28,0,0,0,.11.22.347.347,0,0,0,.251.11h.674a.346.346,0,0,0,.249-.11.284.284,0,0,0,.11-.22V9.883a.316.316,0,0,0-.11-.251.373.373,0,0,0-.249-.094" transform="translate(2.886 2.429)" fill="#fff"/>
    <path id="Path_13" data-name="Path 13" d="M14.224,9.538H13.66a.322.322,0,0,0-.236.094.315.315,0,0,0-.109.251v.847a.282.282,0,0,0,.109.22.3.3,0,0,0,.236.11h.564a.368.368,0,0,0,.267-.11.282.282,0,0,0,.109-.22V9.883a.315.315,0,0,0-.109-.251.4.4,0,0,0-.267-.094" transform="translate(3.375 2.429)" fill="#fff"/>
    <path id="Path_14" data-name="Path 14" d="M16.205,9.538h-.564a.439.439,0,0,0-.267.094.315.315,0,0,0-.109.251v.847a.282.282,0,0,0,.109.22.4.4,0,0,0,.267.11h.564a.316.316,0,0,0,.251-.11.284.284,0,0,0,.11-.22V9.883a.316.316,0,0,0-.11-.251.339.339,0,0,0-.251-.094" transform="translate(3.87 2.429)" fill="#fff"/>
    <path id="Path_15" data-name="Path 15" d="M19.778,9.692a.491.491,0,0,0,.249-.187.675.675,0,0,0,.109-.267,8.213,8.213,0,0,0,.048-1c.01-.429.016-.895.016-1.4V5.38c0-.22-.006-.449-.016-.69s-.005-.538-.016-.895a.278.278,0,0,0-.076-.2.275.275,0,0,0-.221-.094h-.752a.257.257,0,0,0-.2.094.319.319,0,0,0-.061.2c.011.408.015.784.015,1.129s.015.68.015,1V7.937c0,.271-.041.433-.125.486a1.3,1.3,0,0,1-.579.079H16.951c-.094,0-.2-.006-.328-.016s-.251-.026-.375-.048a3.007,3.007,0,0,1-.331-.109.4.4,0,0,1-.187-.2V3.811a.258.258,0,0,0-.094-.2.254.254,0,0,0-.2-.094h-.721a.3.3,0,0,0-.219.094.275.275,0,0,0-.078.2V7.92a.509.509,0,0,1-.142.33.75.75,0,0,1-.282.172,1.978,1.978,0,0,1-.36.063c-.127.01-.241.016-.346.016H11.9c-.094,0-.2-.006-.33-.016s-.251-.026-.376-.048a2.879,2.879,0,0,1-.328-.109.386.386,0,0,1-.187-.2V3.811a.255.255,0,0,0-.1-.2.254.254,0,0,0-.2-.094H9.663a.3.3,0,0,0-.218.094.276.276,0,0,0-.079.2V7.92a.452.452,0,0,1-.125.33.765.765,0,0,1-.281.172,1.986,1.986,0,0,1-.362.063c-.124.01-.239.016-.345.016H7.287a1.583,1.583,0,0,1-.8-.173c-.2-.125-.3-.4-.3-.816V3.1a.315.315,0,0,0-.048-.188q-.032-.077-.188-.109a3.225,3.225,0,0,0-.407-.079c-.157-.031-.325-.056-.5-.078s-.34-.036-.518-.048-.335-.015-.47-.015a6.319,6.319,0,0,0-1.646.2A3.467,3.467,0,0,0,1.129,3.4,2.727,2.727,0,0,0,.3,4.47,3.836,3.836,0,0,0,0,6.055v.408a3.182,3.182,0,0,0,.783,2.32,3,3,0,0,0,2.24.8h.143a4.891,4.891,0,0,0,1.2-.141,1.529,1.529,0,0,0,.831-.5,1.43,1.43,0,0,0,.721.706,3.091,3.091,0,0,0,1.191.2h.951a5.6,5.6,0,0,0,.971-.093,2.142,2.142,0,0,0,.94-.424,1.942,1.942,0,0,0,.909.424,6.4,6.4,0,0,0,1.052.093h1.176a5.615,5.615,0,0,0,.971-.093,2.155,2.155,0,0,0,.94-.424,1.941,1.941,0,0,0,.91.424,6.369,6.369,0,0,0,1.049.093H18.35l.58-.03c.188-.021.355-.038.5-.048a1.745,1.745,0,0,0,.346-.079M4.874,7.45a.7.7,0,0,1-.127.424.9.9,0,0,1-.327.25,1.529,1.529,0,0,1-.456.127,4.022,4.022,0,0,1-.484.03h-.3a1.762,1.762,0,0,1-1.44-.517,2.313,2.313,0,0,1-.425-1.474V5.961A2.5,2.5,0,0,1,1.5,4.924a1.7,1.7,0,0,1,.533-.659,2.064,2.064,0,0,1,.816-.345,5.265,5.265,0,0,1,1.033-.094c.135,0,.283.006.44.016s.337.026.548.046Z" transform="translate(0 0.659)" fill="#fff"/>
    <path id="Path_16" data-name="Path 16" d="M24.427,9.538h-.673a.373.373,0,0,0-.251.094.313.313,0,0,0-.11.251v.847a.28.28,0,0,0,.11.22.347.347,0,0,0,.251.11h.673a.347.347,0,0,0,.251-.11.284.284,0,0,0,.11-.22V9.883a.316.316,0,0,0-.11-.251.373.373,0,0,0-.251-.094" transform="translate(5.93 2.429)" fill="#fff"/>
    <path id="Path_17" data-name="Path 17" d="M31.3.488h-.61a.439.439,0,0,0-.267.094.316.316,0,0,0-.11.251V1.68a.3.3,0,0,0,.11.236.447.447,0,0,0,.267.094h.61a.38.38,0,0,0,.251-.094.3.3,0,0,0,.109-.236V.833a.315.315,0,0,0-.109-.251A.373.373,0,0,0,31.3.488" transform="translate(7.683 0.124)" fill="#fff"/>
    <path id="Path_18" data-name="Path 18" d="M28.632,2.009h.612a.373.373,0,0,0,.249-.094.3.3,0,0,0,.11-.236V.833a.313.313,0,0,0-.11-.252.339.339,0,0,0-.249-.094h-.612a.4.4,0,0,0-.266.094.341.341,0,0,0-.094.252v.846a.319.319,0,0,0,.094.236.394.394,0,0,0,.266.094" transform="translate(7.167 0.124)" fill="#fff"/>
    <path id="Path_19" data-name="Path 19" d="M33.752,3.766a.275.275,0,0,0-.078-.2.272.272,0,0,0-.219-.094H32.7a.253.253,0,0,0-.2.094.315.315,0,0,0-.063.2q.015.612.015,1.129.017.518.016,1V7.907c0,.272-.041.434-.125.487a1.34,1.34,0,0,1-.58.078H30.646a.331.331,0,0,1-.173-.031.569.569,0,0,1-.125-.157L29.721,6.7l-.172-.408A8.245,8.245,0,0,0,28.578,4.5a4.287,4.287,0,0,0-1.128-1.1,3.636,3.636,0,0,0-1.3-.55A6.645,6.645,0,0,0,24.676,2.7c-.239,0-.5.01-.767.031a4.731,4.731,0,0,0-.721.11.374.374,0,0,0-.236.109.256.256,0,0,0-.063.188v.644c0,.167.115.24.345.218.178-.02.386-.036.627-.046s.4-.031.486-.031a4.043,4.043,0,0,1,2.319.581,3.951,3.951,0,0,1,1.379,1.788l.36.831.564,1.349H20.354V3.783a.275.275,0,0,0-.078-.2.254.254,0,0,0-.2-.094h-.751a.254.254,0,0,0-.2.094.276.276,0,0,0-.079.2v7.355a1.579,1.579,0,0,1-.094.612.625.625,0,0,1-.249.345.933.933,0,0,1-.424.141,4.794,4.794,0,0,1-.6.031H17.5c-.188,0-.282.079-.282.236v.674q0,.22.267.267a2.52,2.52,0,0,0,.267.015,1.8,1.8,0,0,0,.2.016,3.731,3.731,0,0,0,1.269-.188,1.506,1.506,0,0,0,.831-.721,1.77,1.77,0,0,0,.219-.675,7.189,7.189,0,0,0,.046-.878V9.82H31.935l.58-.031c.187-.021.355-.036.5-.046a1.745,1.745,0,0,0,.346-.079.509.509,0,0,0,.251-.188.7.7,0,0,0,.109-.266,8.228,8.228,0,0,0,.048-1q.015-.644.015-1.4V5.351c0-.22-.005-.45-.015-.69s-.006-.54-.016-.895" transform="translate(4.365 0.687)" fill="#fff"/>
    <path id="Path_20" data-name="Path 20" d="M36.775,1.522h.61a.373.373,0,0,0,.251-.094.294.294,0,0,0,.11-.235V.346a.315.315,0,0,0-.11-.252A.34.34,0,0,0,37.385,0h-.61a.4.4,0,0,0-.266.093.338.338,0,0,0-.094.252v.847a.313.313,0,0,0,.094.235.394.394,0,0,0,.266.094" transform="translate(9.231 0)" fill="#fff"/>
    <path id="Path_21" data-name="Path 21" d="M38.828,1.522h.612a.373.373,0,0,0,.249-.094.294.294,0,0,0,.11-.235V.346a.315.315,0,0,0-.11-.252A.378.378,0,0,0,39.44,0h-.612a.439.439,0,0,0-.266.093.315.315,0,0,0-.11.252v.847a.294.294,0,0,0,.11.235.433.433,0,0,0,.266.094" transform="translate(9.748 0)" fill="#fff"/>
    <path id="Path_22" data-name="Path 22" d="M44.222,1.659H44.9a.337.337,0,0,0,.251-.094.3.3,0,0,0,.11-.236V.483a.315.315,0,0,0-.11-.252.322.322,0,0,0-.234-.094h-.689a.38.38,0,0,0-.251.094.319.319,0,0,0-.11.252v.846a.319.319,0,0,0,.094.236.4.4,0,0,0,.267.094" transform="translate(11.119 0.035)" fill="#fff"/>
    <path id="Path_23" data-name="Path 23" d="M67.168,4.69c0-.241-.005-.538-.015-.895a.275.275,0,0,0-.079-.2.269.269,0,0,0-.219-.094H66.1a.253.253,0,0,0-.2.094.32.32,0,0,0-.063.2q.015.612.015,1.129c.011.346.016.68.016,1V7.937c0,.271-.041.433-.125.486a1.314,1.314,0,0,1-.58.079h-1.3c-.094,0-.2-.006-.328-.016s-.251-.026-.376-.048a2.535,2.535,0,0,1-.345-.109.386.386,0,0,1-.2-.2V3.4a.28.28,0,0,0-.078-.2.254.254,0,0,0-.2-.094h-.736a.3.3,0,0,0-.219.094.276.276,0,0,0-.079.2V7.967a.421.421,0,0,1-.125.314.737.737,0,0,1-.282.173,1.976,1.976,0,0,1-.376.063c-.125.01-.234.015-.328.015h-.2a4.674,4.674,0,0,1-.783-.063.541.541,0,0,1-.47-.314V4a.28.28,0,0,0-.078-.2.254.254,0,0,0-.2-.094h-.721A.3.3,0,0,0,57.5,3.8a.275.275,0,0,0-.078.2V7.967a.4.4,0,0,1-.11.3.778.778,0,0,1-.266.172,2.921,2.921,0,0,1-.345.079c-.115.01-.219.015-.313.015h-.33c-.094,0-.2-.005-.328-.015s-.251-.026-.376-.048a3.076,3.076,0,0,1-.33-.109.394.394,0,0,1-.188-.2V4.533a.336.336,0,0,0-.078-.22.254.254,0,0,0-.2-.094h-.721a.251.251,0,0,0-.2.094.33.33,0,0,0-.079.22V7.92a.447.447,0,0,1-.125.33.75.75,0,0,1-.282.172,1.652,1.652,0,0,1-.345.063c-.125.01-.241.016-.345.016h-.615a.326.326,0,0,1-.172-.033.528.528,0,0,1-.125-.157l-.627-1.583-.173-.408a8.251,8.251,0,0,0-.971-1.788,4.287,4.287,0,0,0-1.128-1.1,3.631,3.631,0,0,0-1.3-.55,6.653,6.653,0,0,0-1.473-.157c-.241,0-.5.011-.768.031a4.756,4.756,0,0,0-.721.11.387.387,0,0,0-.234.109.26.26,0,0,0-.063.188v.644c0,.167.115.241.345.22.177-.021.386-.036.627-.048s.4-.031.485-.031a4.05,4.05,0,0,1,2.319.581,3.942,3.942,0,0,1,1.379,1.788l.361.832L50.159,8.5H42.626a1.589,1.589,0,0,1-.8-.173q-.3-.188-.3-.816V3.1a.325.325,0,0,0-.046-.188c-.021-.051-.084-.088-.189-.109a3.181,3.181,0,0,0-.407-.079c-.157-.031-.323-.056-.5-.078s-.34-.036-.518-.048-.335-.015-.47-.015a6.305,6.305,0,0,0-1.646.2,3.483,3.483,0,0,0-1.284.612,2.724,2.724,0,0,0-.831,1.066,3.835,3.835,0,0,0-.3,1.585v.408a3.182,3.182,0,0,0,.783,2.32,3,3,0,0,0,2.241.8h.142a4.9,4.9,0,0,0,1.206-.141,1.529,1.529,0,0,0,.831-.5,1.428,1.428,0,0,0,.72.706,3.091,3.091,0,0,0,1.191.2h9.9c.137,0,.282-.005.439-.015a2.757,2.757,0,0,0,.5-.078,3.928,3.928,0,0,0,.486-.157,1.356,1.356,0,0,0,.439-.267,1.9,1.9,0,0,0,.846.424,4.948,4.948,0,0,0,.909.093h.266a2.788,2.788,0,0,0,1.818-.517,2.482,2.482,0,0,0,.846.424,4.73,4.73,0,0,0,.988.093h.251a5.184,5.184,0,0,0,.955-.093,1.918,1.918,0,0,0,.862-.424,2.27,2.27,0,0,0,.955.424,5.812,5.812,0,0,0,.971.093h1.447l.579-.03c.188-.021.356-.038.5-.048a1.708,1.708,0,0,0,.345-.079.489.489,0,0,0,.251-.187.7.7,0,0,0,.11-.267,8.261,8.261,0,0,0,.046-1q.017-.644.016-1.4V5.38c0-.22-.005-.449-.016-.69M40.213,7.45a.7.7,0,0,1-.125.424.9.9,0,0,1-.328.25,1.521,1.521,0,0,1-.455.127,4.058,4.058,0,0,1-.485.03h-.3a1.765,1.765,0,0,1-1.442-.517,2.313,2.313,0,0,1-.424-1.474V5.961a2.483,2.483,0,0,1,.188-1.036,1.7,1.7,0,0,1,.533-.659,2.064,2.064,0,0,1,.816-.345,5.265,5.265,0,0,1,1.033-.094c.137,0,.283.006.44.016s.338.026.548.046Z" transform="translate(8.959 0.659)" fill="#fff"/>
    <path id="Path_24" data-name="Path 24" d="M59.967,2.009h.674a.341.341,0,0,0,.251-.094A.3.3,0,0,0,61,1.679V.833a.316.316,0,0,0-.109-.252.327.327,0,0,0-.236-.094h-.689a.38.38,0,0,0-.251.094.316.316,0,0,0-.109.252v.846a.319.319,0,0,0,.094.236.394.394,0,0,0,.266.094" transform="translate(15.111 0.124)" fill="#fff"/>
    <path id="Path_25" data-name="Path 25" d="M47.106,15.033a11.261,11.261,0,0,0-8.283,3.433,11.319,11.319,0,0,0-3.416,8.3,11.693,11.693,0,0,0,11.719,11.71A11.222,11.222,0,0,0,53.821,36.4v6.211a2.557,2.557,0,0,0,2.573,2.56,2.466,2.466,0,0,0,2.451-2.47l-.016-15.957A11.693,11.693,0,0,0,47.106,15.033m4.751,16.453a6.711,6.711,0,0,1-4.736,1.97A6.446,6.446,0,0,1,42.4,31.5a6.719,6.719,0,0,1-1.971-4.74,6.451,6.451,0,0,1,1.96-4.74,6.716,6.716,0,0,1,4.736-1.962,6.448,6.448,0,0,1,4.727,1.962,6.724,6.724,0,0,1,1.96,4.74,6.46,6.46,0,0,1-1.952,4.724" transform="translate(8.976 3.828)" fill="#fff"/>
    <path id="Path_26" data-name="Path 26" d="M77.312,17.689h-.128A2.588,2.588,0,0,0,74.6,20.28l.014,11.769a6.926,6.926,0,0,1-1.993,4.928,6.4,6.4,0,0,1-3.918,1.89A6.877,6.877,0,0,1,62.538,36.2a6.411,6.411,0,0,1-1.307-3.987l-.013-12.069A2.451,2.451,0,0,0,58.768,17.7a2.569,2.569,0,0,0-2.578,2.581L56.2,32.224a11.718,11.718,0,0,0,20,8.278,11.286,11.286,0,0,0,3.415-8.3L79.61,19.993a2.308,2.308,0,0,0-2.3-2.3" transform="translate(14.244 4.505)" fill="#fff"/>
    <path id="Path_27" data-name="Path 27" d="M75.975,20.1a2.537,2.537,0,1,1-.745-1.792,2.542,2.542,0,0,1,.745,1.792" transform="translate(17.975 4.474)" fill="#00b6a1"/>
    <path id="Path_28" data-name="Path 28" d="M55.2,37.458a2.535,2.535,0,1,1-.743-1.792,2.542,2.542,0,0,1,.743,1.792" transform="translate(12.708 8.894)" fill="#407fc1"/>
    <path id="Path_29" data-name="Path 29" d="M38.335,18.474a11.244,11.244,0,0,0-8.291-3.419A11.7,11.7,0,0,0,18.339,26.789l.009,8.894a6.827,6.827,0,0,1-1.93,3.979,6.405,6.405,0,0,1-3.92,1.89,6.886,6.886,0,0,1-6.165-2.665A6.426,6.426,0,0,1,5.027,34.9l-.01-9.272a2.451,2.451,0,0,0-2.449-2.452A2.573,2.573,0,0,0,0,25.752l.01,9.154A11.285,11.285,0,0,0,3.44,43.2a11.28,11.28,0,0,0,8.291,3.419,11.267,11.267,0,0,0,8.283-3.432,11.311,11.311,0,0,0,3.416-8.3l-.01-9.065a6.583,6.583,0,0,1,2.286-4.142,6.4,6.4,0,0,1,3.7-1.57A6.605,6.605,0,0,1,35.34,22.67a6.443,6.443,0,0,1,1.4,4.086v8.888a2.863,2.863,0,0,0,.839,2.023,2.886,2.886,0,0,0,.929.62A2.841,2.841,0,0,0,39.6,38.5a2.159,2.159,0,0,0,2-1.337,2.176,2.176,0,0,0,.163-.828l-.01-9.559a11.254,11.254,0,0,0-3.415-8.3" transform="translate(0 3.834)" fill="#fff"/>
    <path id="Path_30" data-name="Path 30" d="M2.5,21.467a2.5,2.5,0,1,0,1.786.733A2.423,2.423,0,0,0,2.5,21.467" transform="translate(0.006 5.467)" fill="#00b6a1"/>
    <path id="Path_31" data-name="Path 31" d="M65.581,19.359a3.179,3.179,0,1,0-3.176-3.179,3.179,3.179,0,0,0,3.176,3.179" transform="translate(15.82 3.311)" fill="#fff"/>
  </g>
</svg>
