<?xml version="1.0" encoding="UTF-8"?><svg id="Layer_1" xmlns="http://www.w3.org/2000/svg" viewBox="0 0 441 111"><defs><style>.cls-1{fill:#fff;}.cls-2,.cls-3{fill:#a6d7ff;}.cls-4{fill:none;stroke-width:2px;}.cls-4,.cls-3{stroke:#a6d7ff;stroke-miterlimit:10;}.cls-3{stroke-width:.5px;}</style></defs><rect class="cls-4" x="10.99" y="14" width="315.01" height="85" rx="23.52" ry="23.52"/><g><path class="cls-2" d="M205.49,72.7c2,.43,3,1.57,3,3.41,0,1.18-.25,2.47-.74,3.85-1.08,.69-2.84,1.04-5.3,1.04h-5.6v-16.14h5.74c3.23,0,4.84,1.25,4.84,3.76,0,1.09-.22,2.29-.67,3.6-.4,.2-.82,.36-1.27,.48Zm-6.29-5.93v5.14h1.89c1.6,0,2.83-.13,3.69-.39,.21-.97,.32-1.75,.32-2.35,0-1.6-.93-2.4-2.79-2.4h-3.11Zm0,12.31h3.71c1.18,0,2.14-.09,2.86-.28,.26-.92,.39-1.74,.39-2.47,0-.86-.26-1.49-.77-1.9-.52-.41-1.32-.61-2.41-.61h-3.78v5.26Z"/><path class="cls-2" d="M221.28,69.61v11.39h-1.98l-.18-.9c-1.28,.83-2.54,1.25-3.78,1.25-2.6,0-3.9-1.23-3.9-3.69v-8.05h2.31v7.59c0,1.35,.73,2.03,2.19,2.03,1.06,0,2.08-.38,3.04-1.13v-8.48h2.31Z"/><path class="cls-2" d="M229.03,74.31c1.43,.34,2.46,.78,3.09,1.34,.63,.55,.95,1.26,.95,2.12,0,.91-.23,1.74-.69,2.49-.88,.72-2.16,1.08-3.85,1.08-1.31,0-2.66-.24-4.06-.71l.02-1.96,.16-.07c1.34,.49,2.63,.75,3.87,.76,1,0,1.78-.12,2.35-.35,.08-.23,.12-.51,.12-.83,0-.45-.21-.81-.63-1.1-.42-.28-1.16-.56-2.2-.82-1.38-.35-2.36-.79-2.94-1.3-.58-.51-.86-1.22-.86-2.11,0-.83,.24-1.66,.71-2.49,.42-.32,.98-.58,1.68-.77s1.42-.29,2.14-.29c1.2,0,2.34,.22,3.44,.67v1.96l-.16,.09c-1.17-.48-2.27-.71-3.3-.71-.88,0-1.65,.14-2.33,.42-.08,.31-.12,.58-.12,.83,0,.42,.18,.75,.55,1,.37,.25,1.05,.5,2.05,.75Z"/><path class="cls-2" d="M237.05,67.83l-1.77-1.75,1.77-1.78,1.75,1.78-1.75,1.75Zm1.15,1.78v11.39h-2.31v-11.39h2.31Z"/><path class="cls-2" d="M247.84,69.29c2.6,0,3.9,1.22,3.9,3.67v8.05h-2.31v-7.58c0-1.34-.73-2.01-2.19-2.01-1.06,0-2.08,.38-3.04,1.13v8.46h-2.31v-11.39h1.98l.21,.88c1.28-.8,2.53-1.2,3.76-1.2Z"/><path class="cls-2" d="M264.19,73.99c0,.62-.06,1.23-.18,1.84h-7.31c.06,1.2,.35,2.07,.85,2.63s1.31,.83,2.42,.83c1.25,0,2.49-.23,3.73-.69l.16,.09v1.89c-1.26,.51-2.64,.76-4.13,.76-1.81,0-3.15-.47-4-1.42-.85-.95-1.28-2.38-1.28-4.3,0-2.09,.46-3.91,1.38-5.46,1.28-.58,2.56-.88,3.85-.88,3,0,4.5,1.57,4.5,4.7Zm-2.19,.25v-.28c0-.97-.19-1.66-.58-2.07-.38-.42-.96-.62-1.73-.62-.88,0-1.64,.14-2.28,.42-.34,.75-.55,1.61-.65,2.56h5.23Z"/><path class="cls-2" d="M271.31,74.31c1.43,.34,2.46,.78,3.09,1.34,.63,.55,.95,1.26,.95,2.12,0,.91-.23,1.74-.69,2.49-.88,.72-2.16,1.08-3.85,1.08-1.31,0-2.66-.24-4.06-.71l.02-1.96,.16-.07c1.34,.49,2.63,.75,3.87,.76,1,0,1.78-.12,2.35-.35,.08-.23,.12-.51,.12-.83,0-.45-.21-.81-.63-1.1-.42-.28-1.16-.56-2.2-.82-1.38-.35-2.36-.79-2.94-1.3-.58-.51-.86-1.22-.86-2.11,0-.83,.24-1.66,.71-2.49,.42-.32,.98-.58,1.68-.77s1.42-.29,2.14-.29c1.2,0,2.34,.22,3.44,.67v1.96l-.16,.09c-1.17-.48-2.27-.71-3.3-.71-.88,0-1.65,.14-2.33,.42-.08,.31-.12,.58-.12,.83,0,.42,.18,.75,.55,1,.37,.25,1.05,.5,2.05,.75Z"/><path class="cls-2" d="M282.24,74.31c1.43,.34,2.46,.78,3.09,1.34,.63,.55,.95,1.26,.95,2.12,0,.91-.23,1.74-.69,2.49-.88,.72-2.16,1.08-3.85,1.08-1.31,0-2.66-.24-4.06-.71l.02-1.96,.16-.07c1.34,.49,2.63,.75,3.87,.76,1,0,1.78-.12,2.35-.35,.08-.23,.12-.51,.12-.83,0-.45-.21-.81-.63-1.1-.42-.28-1.16-.56-2.2-.82-1.38-.35-2.36-.79-2.94-1.3-.58-.51-.86-1.22-.86-2.11,0-.83,.24-1.66,.71-2.49,.42-.32,.98-.58,1.68-.77s1.42-.29,2.14-.29c1.2,0,2.34,.22,3.44,.67v1.96l-.16,.09c-1.17-.48-2.27-.71-3.3-.71-.88,0-1.65,.14-2.33,.42-.08,.31-.12,.58-.12,.83,0,.42,.18,.75,.55,1,.37,.25,1.05,.5,2.05,.75Z"/></g><g><path class="cls-2" d="M221.85,48.71c0,.83-.21,1.55-.62,2.16-.41,.61-1.01,1.09-1.78,1.43-.77,.34-1.7,.51-2.78,.51s-2.03-.19-2.86-.55c-.83-.37-1.47-.87-1.93-1.51-.46-.64-.69-1.37-.69-2.2,0-.36,.04-.91,.12-1.66s.2-1.65,.35-2.7c.15-1.05,.33-2.2,.53-3.44l-2.08-.32c-.11,.7-.23,1.44-.35,2.23s-.24,1.56-.34,2.32c-.1,.77-.18,1.46-.24,2.08s-.09,1.12-.09,1.5c0,1.21,.33,2.28,1,3.21,.67,.94,1.57,1.67,2.73,2.19,1.15,.52,2.44,.78,3.86,.78s2.57-.24,3.67-.72c1.1-.48,1.98-1.17,2.63-2.07,.66-.9,.99-1.98,.99-3.24V28.67h-2.11v20.03Z"/><path class="cls-2" d="M270.01,41.69c0-1.03,.21-1.93,.63-2.71,.42-.78,1.01-1.4,1.77-1.85,.76-.45,1.61-.67,2.56-.67,.41,0,.85,.04,1.31,.13,.46,.09,.91,.22,1.36,.38l.73-1.81c-.56-.2-1.14-.35-1.74-.46-.6-.11-1.17-.16-1.69-.16-.99,0-1.92,.18-2.78,.53-.86,.35-1.61,.85-2.24,1.5-.63,.65-1.13,1.41-1.49,2.28-.36,.87-.54,1.82-.54,2.85,0,1.21,.26,2.34,.77,3.42,.17,.35,.37,.69,.59,1.01h-7.14v-4.7c0-1.69-.25-3.04-.76-4.04-.5-1-1.27-1.72-2.28-2.17-1.02-.45-2.28-.67-3.79-.67-1.04,0-2,.08-2.86,.24-.86,.16-1.49,.32-1.89,.49-.11,.42-.22,.96-.34,1.65-.12,.68-.22,1.44-.3,2.28-.08,.84-.12,1.7-.12,2.58s.04,1.78,.12,2.59c.07,.67,.14,1.24,.22,1.75h-20.11V28.67h-2.08v19.36h50.76v-1.92h-6.84c-1.23-1.2-1.86-2.67-1.86-4.43Zm-17.79,4.27c-.09-.54-.17-1.18-.24-1.92-.07-.74-.11-1.49-.11-2.27s.04-1.51,.11-2.27c.07-.76,.16-1.46,.27-2.12,.04-.24,.08-.44,.12-.65,.21-.04,.43-.08,.68-.12,.75-.11,1.5-.16,2.25-.16,1.19,0,2.13,.15,2.82,.46,.69,.31,1.18,.82,1.47,1.54,.29,.72,.43,1.71,.43,2.97v4.7h-7.78c0-.05-.02-.1-.03-.16Z"/><rect class="cls-2" x="282.99" y="28.67" width="2.08" height="19.36"/><path class="cls-2" d="M283.61,25.46s-.01-.02-.01-.03c-.1-.22-.15-.44-.15-.68,0-.38,.12-.68,.36-.92,.24-.23,.57-.35,.99-.35,.14,0,.28,.01,.42,.04,.14,.03,.27,.09,.42,.18l.7-1.21c-.22-.14-.47-.26-.76-.34-.29-.08-.58-.12-.86-.12-.5,0-.97,.12-1.4,.35-.43,.23-.78,.56-1.04,.97-.26,.41-.39,.88-.39,1.4,0,.24,.04,.47,.11,.7h-.62v1.43h5.32v-1.43h-3.08Z"/></g><g><path class="cls-3" d="M109.97,66.13l-1.19,8.87c-.11,.81-.64,1.5-1.39,1.81l-28.16,11.69c-.5,.21-1.05,.23-1.56,.07h0c-1.56-.49-2.12-2.42-1.06-3.67l19.7-23.18c.57-.68,1.49-.96,2.34-.73l9.66,2.63c1.11,.3,1.82,1.38,1.67,2.52Z"/><path class="cls-3" d="M88.45,48.46l5.15,8.62c.42,.7,.38,1.58-.1,2.23l-19.34,26.58c-.45,.61-1.2,.93-1.95,.81h0c-1.29-.2-2.05-1.55-1.56-2.76l14.19-35.2c.63-1.55,2.76-1.72,3.61-.28Z"/><path class="cls-3" d="M83.14,42.47l-14.2,43.39c-.17,.52-.7,.83-1.23,.73h0c-.53-.1-.91-.58-.89-1.12l2.42-48.16c.03-.62,.57-1.09,1.19-1.03l7.13,.68c.66,.06,1.27,.35,1.74,.82l3.58,3.57c.29,.29,.39,.72,.27,1.11Z"/><path class="cls-3" d="M65.38,85.41l.37-49.79c0-.38-.18-.74-.48-.97l-8.06-6.02c-.85-.63-2.04,.07-1.9,1.12l7.69,55.81c.08,.62,.63,1.06,1.25,1.03h0c.63-.03,1.13-.55,1.13-1.19Z"/><path class="cls-3" d="M62.26,87.52l-10.67-61.68c-.06-.37-.34-.66-.7-.74l-6.3-1.41c-.22-.05-.45-.02-.64,.09l-5.55,3.07c-.4,.22-.57,.7-.41,1.13l22.52,60.01c.25,.66,1.11,.8,1.56,.27h0c.18-.21,.25-.48,.2-.75Z"/><path class="cls-3" d="M56.43,84.48h0s-.06-.07-.08-.1L30.32,42.77c-.23-.36-.34-.78-.33-1.21l.16-5.11c.02-.62,.42-1.16,1-1.36l4.95-1.03c.61-.13,1.21,.2,1.45,.77l19.85,49.02c.24,.6-.51,1.09-.96,.64Z"/></g><g><path class="cls-1" d="M397.89,47.86c-.6-.47-1.19-.86-1.74-1.16-.56-.3-1.32-.66-2.3-1.09-1.66-.76-2.73-1.28-3.2-1.57-.48-.29-.71-.59-.71-.93,1.09-.29,2.33-.43,3.7-.43s2.97,.19,4.77,.57l.25-.11v-5.31c-1.4-.45-2.9-.68-4.49-.68-2.68,0-5.1,.57-7.26,1.71-.93,1.69-1.39,3.38-1.39,5.09,0,1.26,.4,2.29,1.21,3.08,.81,.8,2.03,1.55,3.67,2.26,2.92,1.28,4.51,2.2,4.77,2.74-2.14,.81-4.81,1.21-8.01,1.21s-5.52-.52-7.01-1.57c-1.5-1.04-2.24-2.69-2.24-4.95,0-1.26,.24-2.66,.71-4.2l-.25-.25-3.88,.75c-.67,1.64-1,3.51-1,5.63,0,3.25,1.09,5.75,3.26,7.49,2.17,1.75,5.18,2.62,9.03,2.62,2.47,0,4.86-.3,7.17-.91,2.31-.6,4.23-1.36,5.75-2.26,.62-1.47,.93-2.88,.93-4.24,0-.74-.14-1.39-.41-1.96-.27-.57-.71-1.09-1.32-1.57Z"/><polygon class="cls-1" points="430.95 33.8 427.88 30.09 423.86 33.4 426.99 37.11 430.95 33.8"/><path class="cls-1" d="M425.25,49.75h-6.48c-.19-1.99-.58-3.82-1.17-5.47-.59-1.65-1.47-3.04-2.62-4.18-1.15-1.14-2.47-1.71-3.97-1.71-1.83,0-3.51,1.07-5.04,3.2-1.53,2.14-2.62,4.88-3.26,8.22,1.31,1.54,2.94,2.8,4.91,3.76,1.97,.96,4.15,1.56,6.55,1.8-.24,1.07-.72,1.82-1.44,2.24-.72,.43-1.79,.64-3.19,.64-1.8,0-3.67-.3-5.59-.89l-.32,.28,.57,4.7c1.71,.78,3.32,1.17,4.84,1.17,5.46,0,8.65-2.69,9.58-8.08h11.61v-15.74h-4.98v10.04Zm-17.84-2.17c.38-1.09,.85-1.93,1.42-2.53,.57-.59,1.1-.89,1.6-.89,.9,0,1.69,.49,2.37,1.48,.68,.98,1.14,2.34,1.41,4.08-2.78-.17-5.04-.88-6.8-2.14Z"/></g><g><path class="cls-1" d="M386.82,84.07l-6.32-9.45c-.88-1.31-1.47-2.3-1.77-2.97l-.14,.02c.08,1.03,.12,2.14,.12,3.32v9.08h-2.14v-16.14h2.33l6.32,9.5c.95,1.48,1.54,2.47,1.77,2.97l.14-.02c-.09-.94-.14-2.05-.14-3.34v-9.11h2.17v16.14h-2.33Z"/><path class="cls-1" d="M401.37,76.54v4.59c0,.98,.19,1.9,.58,2.74l-.09,.21h-2.21c-.11-.23-.2-.48-.28-.76-1.01,.74-2.15,1.11-3.41,1.11s-2.21-.3-2.89-.89c-.68-.59-1.03-1.42-1.03-2.5,0-.89,.22-1.76,.67-2.61,1.66-.43,3.81-.68,6.46-.74v-.81c0-.88-.2-1.5-.6-1.88-.4-.38-1.01-.56-1.82-.56-1.08,0-2.36,.22-3.85,.67l-.16-.09v-1.96c1.57-.45,3.03-.67,4.38-.67,1.49,0,2.57,.31,3.25,.93,.68,.62,1.01,1.69,1.01,3.22Zm-4.96,6.11c.88,0,1.79-.27,2.74-.81v-2.7c-1.92,.08-3.49,.22-4.7,.44-.17,.37-.25,.76-.25,1.18,0,1.26,.74,1.89,2.21,1.89Z"/><path class="cls-1" d="M420.67,72.68l-3.41,11.39h-3.11l-2.4-8.81-2.44,8.81h-3l-3.25-11.39h2.47l2.44,9.15,2.56-9.15h2.88l2.42,9.15,2.56-9.15h2.28Z"/><path class="cls-1" d="M430.76,76.54v4.59c0,.98,.19,1.9,.58,2.74l-.09,.21h-2.21c-.11-.23-.2-.48-.28-.76-1.01,.74-2.15,1.11-3.41,1.11s-2.21-.3-2.89-.89c-.68-.59-1.03-1.42-1.03-2.5,0-.89,.22-1.76,.67-2.61,1.66-.43,3.81-.68,6.46-.74v-.81c0-.88-.2-1.5-.6-1.88-.4-.38-1.01-.56-1.82-.56-1.08,0-2.36,.22-3.85,.67l-.16-.09v-1.96c1.57-.45,3.03-.67,4.38-.67,1.49,0,2.57,.31,3.25,.93,.68,.62,1.01,1.69,1.01,3.22Zm-4.96,6.11c.88,0,1.79-.27,2.74-.81v-2.7c-1.92,.08-3.49,.22-4.7,.44-.17,.37-.25,.76-.25,1.18,0,1.26,.74,1.89,2.21,1.89Z"/></g><rect class="cls-2" x="354.49" y="26.12" width="3.86" height="65.07"/></svg>