<?xml version="1.0" encoding="UTF-8"?><svg id="Layer_1" xmlns="http://www.w3.org/2000/svg" viewBox="0 0 441 111"><defs><style>.cls-1{fill:#fff;}.cls-2{fill:none;stroke-width:2px;}.cls-2,.cls-3{stroke:#eaad49;stroke-miterlimit:10;}.cls-4{fill:#c69338;}.cls-3{stroke-width:.5px;}.cls-3,.cls-5{fill:#eaad49;}</style></defs><rect class="cls-2" x="10.99" y="14" width="315.01" height="85" rx="23.52" ry="23.52"/><g><path class="cls-3" d="M109.97,63.89l-1.19,8.87c-.11,.81-.64,1.5-1.39,1.81l-28.16,11.69c-.5,.21-1.05,.23-1.56,.07h0c-1.56-.49-2.12-2.42-1.06-3.67l19.7-23.18c.57-.68,1.49-.96,2.34-.73l9.66,2.63c1.11,.3,1.82,1.38,1.67,2.52Z"/><path class="cls-3" d="M88.45,46.21l5.15,8.62c.42,.7,.38,1.58-.1,2.23l-19.34,26.58c-.45,.61-1.2,.93-1.95,.81h0c-1.29-.2-2.05-1.55-1.56-2.76l14.19-35.2c.63-1.55,2.76-1.72,3.61-.28Z"/><path class="cls-3" d="M83.14,40.23l-14.2,43.39c-.17,.52-.7,.83-1.23,.73h0c-.53-.1-.91-.58-.89-1.12l2.42-48.16c.03-.62,.57-1.09,1.19-1.03l7.13,.68c.66,.06,1.27,.35,1.74,.82l3.58,3.57c.29,.29,.39,.72,.27,1.11Z"/><path class="cls-3" d="M65.38,83.17l.37-49.79c0-.38-.18-.74-.48-.97l-8.06-6.02c-.85-.63-2.04,.07-1.9,1.12l7.69,55.81c.08,.62,.63,1.06,1.25,1.03h0c.63-.03,1.13-.55,1.13-1.19Z"/><path class="cls-3" d="M62.26,85.27l-10.67-61.68c-.06-.37-.34-.66-.7-.74l-6.3-1.41c-.22-.05-.45-.02-.64,.09l-5.55,3.07c-.4,.22-.57,.7-.41,1.13l22.52,60.01c.25,.66,1.11,.8,1.56,.27h0c.18-.21,.25-.48,.2-.75Z"/><path class="cls-3" d="M56.43,82.23h0s-.06-.07-.08-.1L30.32,40.52c-.23-.36-.34-.78-.33-1.21l.16-5.11c.02-.62,.42-1.16,1-1.36l4.95-1.03c.61-.13,1.21,.2,1.45,.77l19.85,49.02c.24,.6-.51,1.09-.96,.64Z"/></g><g><path class="cls-1" d="M393.84,46.62c.97,.43,1.74,.79,2.3,1.09,.56,.3,1.14,.68,1.74,1.16,.61,.48,1.04,1,1.32,1.57,.27,.57,.41,1.22,.41,1.96,0,1.35-.31,2.77-.93,4.24-1.52,.9-3.44,1.66-5.75,2.26-2.31,.61-4.71,.91-7.17,.91-3.85,0-6.85-.87-9.03-2.62-2.17-1.74-3.26-4.24-3.26-7.49,0-2.11,.33-3.99,1-5.63l3.88-.75,.25,.25c-.48,1.54-.71,2.94-.71,4.2,0,2.25,.75,3.91,2.24,4.95,1.5,1.04,3.83,1.57,7.01,1.57s5.88-.4,8.01-1.21c-.26-.54-1.85-1.46-4.77-2.74-1.64-.71-2.86-1.46-3.67-2.26-.81-.79-1.21-1.82-1.21-3.08,0-1.71,.46-3.41,1.39-5.09,2.16-1.14,4.58-1.71,7.26-1.71,1.59,0,3.09,.23,4.49,.68v5.31l-.25,.11c-1.8-.38-3.4-.57-4.77-.57s-2.61,.14-3.7,.43c0,.33,.24,.64,.71,.93,.47,.29,1.54,.81,3.2,1.57Z"/><g><polygon class="cls-1" points="430.95 34.8 427.88 31.09 423.86 34.4 426.99 38.11 430.95 34.8"/><path class="cls-1" d="M425.25,50.75h-6.48c-.19-1.99-.58-3.82-1.17-5.47-.59-1.65-1.47-3.04-2.62-4.18-1.15-1.14-2.47-1.71-3.97-1.71-1.83,0-3.51,1.07-5.04,3.2-1.53,2.14-2.62,4.88-3.26,8.22,1.31,1.54,2.94,2.8,4.91,3.76,1.97,.96,4.15,1.56,6.55,1.8-.24,1.07-.72,1.82-1.44,2.24-.72,.43-1.79,.64-3.19,.64-1.8,0-3.67-.3-5.59-.89l-.32,.28,.57,4.7c1.71,.78,3.32,1.17,4.84,1.17,5.46,0,8.65-2.69,9.58-8.08h11.61v-15.74h-4.98v10.04Zm-17.84-2.17c.38-1.09,.85-1.93,1.42-2.53,.57-.59,1.1-.89,1.6-.89,.9,0,1.69,.49,2.37,1.48,.68,.98,1.14,2.34,1.41,4.08-2.78-.17-5.04-.88-6.8-2.14Z"/></g></g><g><path class="cls-1" d="M386.82,85.07l-6.32-9.45c-.88-1.31-1.47-2.3-1.77-2.97l-.14,.02c.08,1.03,.12,2.14,.12,3.32v9.08h-2.14v-16.14h2.33l6.32,9.5c.95,1.48,1.54,2.47,1.77,2.97l.14-.02c-.09-.94-.14-2.05-.14-3.34v-9.11h2.17v16.14h-2.33Z"/><path class="cls-1" d="M401.37,77.54v4.59c0,.98,.19,1.9,.58,2.74l-.09,.21h-2.21c-.11-.23-.2-.48-.28-.76-1.01,.74-2.15,1.11-3.41,1.11s-2.21-.3-2.89-.89c-.68-.59-1.03-1.42-1.03-2.5,0-.89,.22-1.76,.67-2.61,1.66-.43,3.81-.68,6.46-.74v-.81c0-.88-.2-1.5-.6-1.88-.4-.38-1.01-.56-1.82-.56-1.08,0-2.36,.22-3.85,.67l-.16-.09v-1.96c1.57-.45,3.03-.67,4.38-.67,1.49,0,2.57,.31,3.25,.93,.68,.62,1.01,1.69,1.01,3.22Zm-4.96,6.11c.88,0,1.79-.27,2.74-.81v-2.7c-1.92,.08-3.49,.22-4.7,.44-.17,.37-.25,.76-.25,1.18,0,1.26,.74,1.89,2.21,1.89Z"/><path class="cls-1" d="M420.67,73.68l-3.41,11.39h-3.11l-2.4-8.81-2.44,8.81h-3l-3.25-11.39h2.47l2.44,9.15,2.56-9.15h2.88l2.42,9.15,2.56-9.15h2.28Z"/><path class="cls-1" d="M430.76,77.54v4.59c0,.98,.19,1.9,.58,2.74l-.09,.21h-2.21c-.11-.23-.2-.48-.28-.76-1.01,.74-2.15,1.11-3.41,1.11s-2.21-.3-2.89-.89c-.68-.59-1.03-1.42-1.03-2.5,0-.89,.22-1.76,.67-2.61,1.66-.43,3.81-.68,6.46-.74v-.81c0-.88-.2-1.5-.6-1.88-.4-.38-1.01-.56-1.82-.56-1.08,0-2.36,.22-3.85,.67l-.16-.09v-1.96c1.57-.45,3.03-.67,4.38-.67,1.49,0,2.57,.31,3.25,.93,.68,.62,1.01,1.69,1.01,3.22Zm-4.96,6.11c.88,0,1.79-.27,2.74-.81v-2.7c-1.92,.08-3.49,.22-4.7,.44-.17,.37-.25,.76-.25,1.18,0,1.26,.74,1.89,2.21,1.89Z"/></g><g><path class="cls-5" d="M260.12,72.77v7.29c-1.72,.86-3.59,1.29-5.6,1.29-2.27,0-3.97-.65-5.07-1.96-1.11-1.31-1.66-3.29-1.66-5.95,0-1.46,.18-2.88,.54-4.28,.36-1.39,.85-2.53,1.46-3.42,1.66-.83,3.4-1.25,5.23-1.25,1.71,0,3.2,.28,4.47,.83v2.08l-.16,.09c-1.52-.58-3.04-.88-4.54-.88-1.21,0-2.38,.22-3.5,.67-.77,1.66-1.15,3.66-1.15,5.99,0,2.08,.37,3.58,1.1,4.53s1.88,1.42,3.45,1.42c1.17,0,2.24-.16,3.2-.48v-4.01h-3.94v-1.96h6.18Z"/><path class="cls-5" d="M269.13,64.49c2.21,0,3.86,.65,4.93,1.96,1.08,1.31,1.61,3.29,1.61,5.95,0,1.46-.18,2.89-.53,4.28-.35,1.39-.84,2.53-1.45,3.42-1.61,.83-3.26,1.25-4.93,1.25-2.21,0-3.86-.65-4.93-1.96-1.08-1.31-1.61-3.29-1.61-5.95,0-1.46,.18-2.88,.53-4.28,.35-1.39,.84-2.53,1.45-3.42,1.61-.83,3.26-1.25,4.93-1.25Zm2.97,14.04c.75-1.63,1.13-3.61,1.13-5.95,0-2.08-.34-3.58-1.01-4.51-.68-.93-1.77-1.39-3.27-1.39-1.11,0-2.16,.21-3.16,.62-.75,1.63-1.13,3.61-1.13,5.95,0,2.08,.34,3.58,1.01,4.51,.68,.93,1.77,1.39,3.27,1.39,1.11,0,2.16-.21,3.16-.62Z"/><path class="cls-5" d="M290.97,64.86l-5.51,16.14h-2.84l-5.46-16.14h2.49l4.52,13.58,4.54-13.58h2.26Z"/></g><g><rect class="cls-5" x="218.48" y="29.67" width="2.11" height="2.43"/><rect class="cls-5" x="222.18" y="29.67" width="2.11" height="2.43"/><path class="cls-5" d="M241.88,35.21c-1.02-.45-2.28-.67-3.79-.67-1.04,0-2,.08-2.86,.24-.86,.16-1.49,.32-1.89,.49-.11,.42-.22,.96-.34,1.65-.12,.68-.22,1.44-.3,2.28-.08,.84-.12,1.7-.12,2.58s.04,1.78,.12,2.59c.07,.67,.14,1.24,.22,1.75h-6.23v-11.58h-5.59c-1.57,0-2.79,.24-3.66,.72s-1.48,1.21-1.84,2.21-.53,2.27-.53,3.82,.18,2.82,.53,3.82,.96,1.74,1.84,2.21c.87,.48,2.09,.72,3.66,.72h23.81v-6.62c0-1.69-.25-3.04-.76-4.04-.5-1-1.27-1.72-2.28-2.17Zm-23.19,10.53c-.57-.25-.96-.72-1.17-1.42-.22-.69-.32-1.71-.32-3.04s.11-2.34,.32-3.04c.22-.69,.61-1.17,1.17-1.42s1.37-.38,2.42-.38h3.48v9.67h-3.48c-1.04,0-1.85-.13-2.42-.38Zm16.32,.22c-.09-.54-.17-1.18-.24-1.92-.07-.74-.11-1.49-.11-2.27s.04-1.51,.11-2.27c.07-.76,.16-1.46,.27-2.12,.04-.24,.08-.44,.12-.65,.21-.04,.43-.08,.68-.12,.75-.11,1.5-.16,2.25-.16,1.19,0,2.13,.15,2.82,.46,.69,.31,1.18,.82,1.47,1.54,.29,.72,.43,1.71,.43,2.97v4.7h-7.78c0-.05-.02-.1-.03-.16Z"/><path class="cls-5" d="M292.21,37.02c-.53-.81-1.29-1.43-2.27-1.85s-2.16-.63-3.52-.63c-.83,0-1.68,.07-2.56,.2-.88,.14-1.69,.29-2.43,.47l.24,1.73c.97-.14,1.9-.26,2.78-.34,.88-.08,1.56-.12,2.02-.12,1.49,0,2.61,.29,3.33,.88s1.09,1.46,1.09,2.63v6.13h-14.17v-4.13c0-.67-.08-1.36-.24-2.09-.16-.73-.45-1.41-.85-2.04-.4-.63-.97-1.14-1.7-1.53-.73-.39-1.66-.58-2.79-.58h-5.32l.91-1.75c.2-.38,.41-.76,.63-1.13,.22-.38,.5-.83,.82-1.35,.32-.52,.75-1.18,1.27-1.97l-1.75-1.05c-.52,.77-.95,1.43-1.3,1.97-.34,.54-.63,1.02-.86,1.43-.23,.42-.46,.82-.67,1.22l-1.16,2.24,1.54,2.32h5.89c.77,0,1.42,.16,1.93,.47,.51,.32,.9,.79,1.16,1.43,.26,.64,.39,1.45,.39,2.42v4.13h-15.66v-11.58h-5.59c-1.57,0-2.79,.24-3.66,.72s-1.48,1.21-1.84,2.21-.53,2.27-.53,3.82,.18,2.82,.53,3.82,.96,1.74,1.84,2.21c.87,.48,2.09,.72,3.66,.72h3.48v.73c0,1.08-.34,1.9-1.03,2.47-.68,.57-1.77,.85-3.27,.85-.45,0-.99-.03-1.63-.08-.64-.05-1.44-.14-2.39-.27l-.32,1.7c.85,.18,1.62,.32,2.34,.42s1.38,.15,2.01,.15c1.33,0,2.47-.2,3.43-.61,.95-.41,1.69-1,2.2-1.79,.51-.79,.77-1.75,.77-2.86v-.7h34.05v-8.05c0-1.17-.27-2.16-.8-2.97Zm-38.84,9.1c-1.04,0-1.85-.13-2.42-.38s-.96-.72-1.17-1.42c-.22-.69-.32-1.71-.32-3.04s.11-2.34,.32-3.04c.22-.69,.61-1.17,1.17-1.42s1.37-.38,2.42-.38h3.48v9.67h-3.48Z"/></g><rect class="cls-4" x="354.49" y="27.12" width="3.86" height="65.07"/></svg>