<?xml version="1.0" encoding="UTF-8"?><svg id="Logo_3" xmlns="http://www.w3.org/2000/svg" xmlns:xlink="http://www.w3.org/1999/xlink" viewBox="0 0 295 172.9"><defs><style>.cls-1{fill:#26afc6;}.cls-2{fill:#00b6a1;}.cls-3{fill:#407fc1;}.cls-4{clip-path:url(#clippath-1);}.cls-5{fill:#085566;}.cls-6{clip-path:url(#clippath);}.cls-7{fill:none;}</style><clipPath id="clippath"><rect class="cls-7" x="8" y="5.9" width="278.7" height="101.3"/></clipPath><clipPath id="clippath-1"><rect class="cls-7" x="8.1" y="5.9" width="278.7" height="101.3"/></clipPath></defs><g class="cls-6"><g id="Group_3"><path id="Path_32" class="cls-5" d="M174.4,13.5c-9.2-.2-18.1,3.5-24.6,10.2-6.6,6.5-10.3,15.4-10.1,24.6-.2,9.3,3.5,18.2,10.2,24.6,6.4,6.6,15.3,10.3,24.6,10.2,7.1,.1,14.1-2,19.9-6.2v18.4c0,4.2,3.4,7.6,7.6,7.6h.1c4,0,7.3-3.3,7.3-7.3V48.2c.2-9.3-3.5-18.2-10.2-24.6-6.6-6.6-15.6-10.3-24.8-10.1m14.1,48.8c-3.7,3.7-8.8,5.8-14.1,5.8-5.3,.1-10.3-2-14-5.8-3.7-3.7-5.8-8.8-5.8-14.1-.1-5.3,2-10.4,5.8-14.1,3.7-3.7,8.8-5.8,14.1-5.8,5.3-.1,10.4,2,14,5.8,3.7,3.7,5.8,8.8,5.8,14.1,.1,5.3-2,10.4-5.8,14.1"/><path id="Path_33" class="cls-5" d="M279.6,23.4h-.4c-4.2,0-7.7,3.4-7.7,7.7v34.9c.1,5.5-2.1,10.7-5.9,14.6-3.1,3.2-7.2,5.2-11.6,5.6-7.1,.7-14-2.3-18.3-7.9-2.6-3.4-3.9-7.6-3.9-11.8V30.7c0-4-3.3-7.3-7.3-7.3-4.2,0-7.6,3.4-7.7,7.6v35.6c-.2,9.3,3.5,18.2,10.2,24.6,6.4,6.6,15.3,10.3,24.6,10.1,9.2,.2,18.1-3.5,24.6-10.2,6.6-6.5,10.3-15.4,10.1-24.6V30.3c.2-3.9-2.9-6.9-6.7-6.9"/><path id="Path_34" class="cls-2" d="M286.7,30.4c0,4.2-3.4,7.5-7.5,7.5s-7.5-3.4-7.5-7.5,3.4-7.5,7.5-7.5c2,0,3.9,.8,5.3,2.2,1.4,1.4,2.2,3.3,2.2,5.3"/><path id="Path_35" class="cls-3" d="M209.5,95.1c0,4.2-3.4,7.5-7.5,7.5s-7.5-3.4-7.5-7.5,3.4-7.5,7.5-7.5c2,0,3.9,.8,5.3,2.2,1.4,1.3,2.2,3.3,2.2,5.3"/><path id="Path_36" class="cls-5" d="M121.7,23.7c-6.4-6.6-15.3-10.3-24.6-10.1-9.2-.1-18.1,3.6-24.6,10.2-6.6,6.5-10.3,15.4-10.1,24.6v26.4c-.5,4.5-2.6,8.6-5.7,11.8-3.1,3.2-7.2,5.2-11.6,5.6-7.1,.7-14-2.3-18.3-7.9-2.6-3.4-3.9-7.6-3.9-11.8v-27.5c0-4-3.3-7.3-7.3-7.3-4.2,0-7.6,3.4-7.6,7.6v27.2c-.2,9.3,3.5,18.2,10.2,24.6,6.4,6.6,15.3,10.3,24.6,10.1,9.2,.2,18.1-3.5,24.6-10.2,6.6-6.5,10.3-15.4,10.1-24.6v-26.9c.7-4.8,3.1-9.2,6.8-12.3,3.1-2.7,6.9-4.3,11-4.7,6.8-.7,13.5,2.2,17.6,7.6,2.7,3.4,4.2,7.7,4.1,12.1v26.4c0,3.4,2.1,6.5,5.2,7.8,1,.4,2.1,.6,3.2,.6,3.5,0,6.4-2.9,6.4-6.4h0v-28.4c.3-9.1-3.4-18.1-10.1-24.5"/><path id="Path_37" class="cls-2" d="M15.4,37.4c-4.1,0-7.4,3.4-7.4,7.5s3.4,7.4,7.5,7.4,7.4-3.4,7.4-7.5c0-1.9-.8-3.8-2.2-5.2-1.3-1.4-3.3-2.2-5.3-2.2"/><path id="Path_38" class="cls-5" d="M249.5,24.8c5.2,0,9.4-4.2,9.4-9.4s-4.2-9.4-9.4-9.4-9.4,4.2-9.4,9.4h0c0,5.1,4.2,9.4,9.4,9.4"/></g></g><g><path class="cls-1" d="M60.21,130.64c-.11-.05-.27-.09-.46-.11-.2-.02-.43-.04-.7-.04-.31,0-.56,.01-.75,.04-.19,.02-.35,.06-.46,.11-.12,.05-.2,.11-.25,.18-.05,.07-.07,.15-.07,.23v12.34c0,.93,0,1.89,0,2.89s.02,1.97,.04,2.89h-.02c-.27-.55-.55-1.1-.82-1.64-.28-.54-.56-1.1-.84-1.66s-.58-1.13-.88-1.71c-.31-.58-.62-1.17-.95-1.78l-5.33-9.98c-.19-.36-.38-.67-.55-.91-.18-.24-.36-.43-.54-.56-.19-.13-.4-.23-.63-.29-.24-.06-.53-.09-.88-.09h-1.49c-.31,0-.61,.1-.87,.3-.27,.2-.4,.53-.4,1v20.99c0,.08,.03,.16,.07,.24,.05,.08,.13,.13,.24,.18s.26,.08,.45,.11c.19,.03,.44,.04,.73,.04s.54-.01,.73-.04,.35-.06,.46-.11c.12-.04,.2-.1,.25-.18,.05-.08,.07-.16,.07-.24v-13.73c0-.87,0-1.74-.02-2.62s-.03-1.74-.05-2.58h.04c.32,.69,.66,1.4,1.03,2.14,.37,.73,.73,1.43,1.1,2.1l6.94,12.94c.24,.46,.46,.83,.67,1.12s.42,.52,.64,.69c.21,.17,.44,.29,.67,.35s.51,.1,.83,.1h1c.16,0,.32-.02,.47-.07,.16-.05,.3-.12,.43-.23,.13-.11,.23-.24,.31-.4,.08-.16,.12-.36,.12-.6v-20.99c0-.08-.02-.16-.07-.23-.05-.07-.13-.13-.24-.18Z"/><path class="cls-1" d="M83.26,132.25c-.15-.15-.43-.35-.83-.59s-.9-.46-1.49-.67-1.27-.38-2.03-.54-1.58-.23-2.44-.23c-1.69,0-3.23,.28-4.61,.85s-2.58,1.37-3.57,2.4-1.76,2.28-2.3,3.74-.82,3.1-.82,4.9,.25,3.3,.76,4.71,1.23,2.61,2.19,3.62,2.12,1.78,3.51,2.33,2.95,.82,4.71,.82c.57,0,1.15-.04,1.74-.11s1.17-.18,1.74-.32,1.13-.31,1.67-.51,.98-.38,1.32-.55,.56-.37,.67-.59,.16-.49,.16-.79v-8.67c0-.21-.03-.4-.09-.56s-.14-.29-.25-.39-.22-.16-.35-.21-.26-.07-.39-.07h-7.22c-.11,0-.19,.02-.26,.07s-.13,.12-.18,.22-.09,.23-.11,.39-.04,.35-.04,.57c0,.42,.05,.73,.15,.93s.25,.3,.45,.3h5.27v6.63c-.62,.34-1.29,.59-2.01,.76s-1.43,.25-2.14,.25c-1.18,0-2.27-.2-3.26-.6s-1.84-.98-2.56-1.76-1.27-1.72-1.68-2.85-.61-2.41-.61-3.87c0-1.3,.18-2.51,.55-3.62s.9-2.07,1.59-2.88,1.54-1.44,2.53-1.9,2.12-.69,3.38-.69c1.05,0,1.97,.11,2.73,.33s1.43,.47,1.98,.74,.99,.52,1.32,.74,.56,.33,.7,.33c.08,0,.16-.02,.23-.07s.13-.13,.18-.24,.08-.25,.11-.42,.04-.37,.04-.59c0-.38-.03-.66-.09-.86s-.16-.38-.32-.53Z"/><path class="cls-1" d="M105.89,133.17c-.83-.97-1.86-1.7-3.1-2.21s-2.7-.76-4.38-.76-3.25,.28-4.55,.83-2.38,1.35-3.25,2.37-1.52,2.27-1.95,3.74-.65,3.09-.65,4.89,.2,3.53,.6,4.97,1,2.65,1.82,3.62,1.85,1.71,3.09,2.22,2.73,.76,4.44,.76,3.25-.28,4.55-.83,2.38-1.35,3.24-2.39,1.51-2.29,1.94-3.77,.65-3.13,.65-4.97-.2-3.47-.61-4.9-1.02-2.62-1.85-3.59Zm-1.1,12.19c-.23,1.1-.63,2.07-1.18,2.91s-1.28,1.5-2.18,2-2.01,.74-3.34,.74-2.44-.23-3.33-.68-1.59-1.08-2.12-1.9c-.53-.81-.9-1.78-1.12-2.91-.22-1.12-.33-2.36-.33-3.69,0-1.21,.12-2.36,.36-3.45,.24-1.1,.64-2.05,1.19-2.87,.56-.82,1.28-1.48,2.17-1.97s1.99-.74,3.3-.74,2.41,.23,3.3,.69c.89,.46,1.6,1.09,2.13,1.91s.91,1.78,1.14,2.88c.23,1.11,.34,2.31,.34,3.59s-.12,2.4-.35,3.5Z"/><path class="cls-1" d="M122.25,130.28h-.65v27c0,.46,.14,.81,.43,1.06s.59,.38,.9,.38h.68v-27.18c0-.41-.14-.72-.43-.94-.29-.22-.6-.32-.94-.32Z"/><path class="cls-1" d="M149.98,160.2c-.5,0-.93,.17-1.28,.5s-.52,.74-.52,1.22,.17,.89,.52,1.22c.35,.34,.77,.5,1.28,.5,.46,0,.86-.17,1.21-.5,.35-.34,.52-.74,.52-1.22s-.17-.89-.52-1.22-.75-.5-1.21-.5Z"/><path class="cls-1" d="M145.84,160.2c-.48,0-.89,.17-1.24,.5s-.52,.74-.52,1.22,.17,.89,.52,1.22c.35,.34,.76,.5,1.24,.5s.89-.17,1.22-.5c.34-.34,.5-.74,.5-1.22s-.17-.89-.5-1.22-.74-.5-1.22-.5Z"/><path class="cls-1" d="M191.64,155.48c-.48,0-.89,.17-1.24,.5-.35,.34-.52,.74-.52,1.22s.17,.89,.52,1.22c.35,.33,.76,.5,1.24,.5s.89-.17,1.22-.5c.34-.34,.5-.74,.5-1.22s-.17-.89-.5-1.22c-.34-.34-.74-.5-1.22-.5Z"/><path class="cls-1" d="M195.56,146.34v-2.92c0-.86-.15-1.48-.45-1.85-.3-.37-.86-.56-1.67-.56h-.97v6.55c-.05,.98-.3,1.68-.77,2.09-.47,.41-1.12,.61-1.96,.61h-3.96c-.1-1.46-.31-2.93-.65-4.39s-.85-2.78-1.55-3.94c-.7-1.16-1.6-2.11-2.7-2.84-1.1-.73-2.48-1.1-4.14-1.1-1.08,0-2,.12-2.75,.36-.76,.24-1.37,.55-1.84,.94s-.81,.82-1.03,1.31c-.21,.49-.32,.99-.32,1.49v1.26c.29-.43,.67-.82,1.15-1.15,.43-.26,.98-.52,1.64-.76s1.49-.36,2.5-.36c1.2,0,2.21,.33,3.02,.99s1.48,1.46,1.98,2.41,.87,1.95,1.1,3.01c.23,1.06,.37,1.98,.41,2.77h-16.74v-12.28h-3.1c-2.11,0-3.82,.25-5.11,.76-1.3,.5-2.32,1.17-3.06,2s-1.27,1.76-1.58,2.81c-.31,1.04-.53,2.12-.65,3.22s-.2,2.18-.23,3.22c-.04,1.04-.16,1.98-.38,2.81-.22,.83-.58,1.49-1.1,2s-1.3,.76-2.36,.76c-1.58-.02-2.83-.21-3.74-.56-.91-.35-1.6-.82-2.07-1.42s-.77-1.29-.9-2.07c-.13-.78-.2-1.6-.2-2.47,0-.48,.07-.99,.22-1.53s.35-1.06,.61-1.55c.26-.49,.57-.94,.92-1.33,.35-.4,.73-.69,1.13-.88v-.11l-1.62-.14c-.72,0-1.34,.16-1.85,.47-.52,.31-.94,.74-1.28,1.28s-.58,1.16-.74,1.85c-.16,.7-.23,1.44-.23,2.23,0,1.32,.17,2.54,.5,3.65,.34,1.12,.88,2.08,1.64,2.9,.76,.82,1.74,1.45,2.95,1.91,1.21,.46,2.69,.68,4.45,.68,1.63,0,2.91-.25,3.83-.74,.92-.49,1.61-1.15,2.07-1.96,.46-.82,.75-1.74,.88-2.77s.24-2.09,.32-3.17,.2-2.14,.36-3.17c.16-1.03,.48-1.96,.97-2.77,.49-.82,1.23-1.47,2.21-1.96,.98-.49,2.33-.74,4.03-.74v12.1h27.76c.98-.07,1.8-.31,2.45-.72,.65-.41,1.16-.93,1.55-1.57,.38-.64,.65-1.36,.81-2.16,.16-.8,.23-1.64,.23-2.5Z"/><path class="cls-1" d="M200.28,140.98h-.97v9.14c0,1.18,.01,2.21,.04,3.1s-.05,1.63-.23,2.21c-.18,.59-.52,1.03-1.01,1.31s-1.24,.43-2.25,.43c-.14,0-.29,0-.43-.02-.14-.01-.29-.03-.43-.05v.83c0,.53,.23,.94,.68,1.22,.46,.29,1.06,.43,1.8,.43s1.38-.13,1.98-.38c.6-.25,1.12-.59,1.55-1.01s.77-.91,1.03-1.46c.25-.55,.38-1.13,.38-1.73v-11.63c0-.86-.15-1.48-.45-1.85s-.86-.56-1.67-.56Z"/><path class="cls-1" d="M231.92,155.48c-.5,0-.93,.17-1.28,.5-.35,.34-.52,.74-.52,1.22s.17,.89,.52,1.22c.35,.33,.77,.5,1.28,.5,.46,0,.86-.17,1.21-.5,.35-.34,.52-.74,.52-1.22s-.17-.89-.52-1.22c-.35-.34-.75-.5-1.21-.5Z"/><path class="cls-1" d="M227.78,155.48c-.48,0-.89,.17-1.24,.5-.35,.34-.52,.74-.52,1.22s.17,.89,.52,1.22c.35,.33,.76,.5,1.24,.5s.89-.17,1.22-.5c.34-.34,.5-.74,.5-1.22s-.17-.89-.5-1.22-.74-.5-1.22-.5Z"/><path class="cls-1" d="M244.81,135.54c.5,0,.92-.17,1.26-.5,.34-.34,.5-.76,.5-1.26s-.17-.89-.5-1.22c-.34-.34-.76-.5-1.26-.5s-.89,.17-1.22,.52c-.34,.35-.5,.76-.5,1.24s.17,.89,.5,1.22c.33,.34,.74,.5,1.22,.5Z"/><path class="cls-1" d="M243.04,150.26c-.55-.84-.95-1.64-1.21-2.39s-.38-1.46-.38-2.11c0-.7,.11-1.32,.34-1.87,.23-.55,.53-1.02,.9-1.4s.81-.68,1.31-.9,1.03-.32,1.58-.32c.67,0,1.29,.14,1.85,.41,.56,.28,1.05,.62,1.46,1.04,.41,.42,.74,.88,1.01,1.37,.26,.49,.43,.97,.5,1.42l.72-1.04c.24-.36,.36-.85,.36-1.48,0-.36-.11-.81-.32-1.35-.22-.54-.56-1.06-1.04-1.55-.48-.49-1.11-.91-1.89-1.26-.78-.35-1.73-.52-2.86-.52-.96,0-1.87,.19-2.74,.58-.86,.38-1.61,.91-2.25,1.58-.64,.67-1.14,1.47-1.51,2.39-.37,.92-.56,1.91-.56,2.97,0,.7,.08,1.42,.25,2.16,.17,.74,.46,1.5,.86,2.27h-4.86c-.84,0-1.49-.19-1.96-.58-.47-.38-.73-1.03-.77-1.94v-4.32c0-.86-.15-1.48-.45-1.85s-.86-.56-1.67-.56h-.97v6.55c-.05,.98-.31,1.68-.77,2.09s-1.12,.61-1.96,.61h-2.02c-.65,0-1.19-.11-1.62-.32v-6.55c0-.86-.15-1.48-.45-1.85-.3-.37-.86-.56-1.67-.56h-.97v9.14c0,1.18,0,2.21,.02,3.1s-.08,1.63-.27,2.21c-.19,.59-.53,1.03-1.01,1.33s-1.21,.45-2.2,.45c-.14,0-.29,0-.43-.02-.14-.01-.29-.03-.43-.05v.83c0,.53,.23,.94,.68,1.22s1.06,.43,1.8,.43,1.37-.13,1.94-.38c.58-.25,1.07-.59,1.48-1.01,.41-.42,.73-.91,.95-1.46,.23-.55,.34-1.13,.34-1.73v-1.58s.02-.14,.07-.29c.29,.07,.61,.11,.97,.11h3.6c1.44-.07,2.6-.53,3.49-1.37,.84,.84,2,1.3,3.49,1.37h16.52c.86,0,1.48-.15,1.84-.45,.36-.3,.54-.86,.54-1.67v-.9h-9.65Z"/></g><g class="cls-4"><g id="Group_3-2"><path id="Path_32-2" class="cls-5" d="M174.5,13.5c-9.2-.2-18.1,3.5-24.6,10.2-6.6,6.5-10.3,15.4-10.1,24.6-.2,9.3,3.5,18.2,10.2,24.6,6.4,6.6,15.3,10.3,24.6,10.2,7.1,.1,14.1-2,19.9-6.2v18.4c0,4.2,3.4,7.6,7.6,7.6h.1c4,0,7.3-3.3,7.3-7.3V48.2c.2-9.3-3.5-18.2-10.2-24.6-6.6-6.6-15.6-10.3-24.8-10.1m14.1,48.8c-3.7,3.7-8.8,5.8-14.1,5.8-5.3,.1-10.3-2-14-5.8-3.7-3.7-5.8-8.8-5.8-14.1-.1-5.3,2-10.4,5.8-14.1,3.7-3.7,8.8-5.8,14.1-5.8,5.3-.1,10.4,2,14,5.8,3.7,3.7,5.8,8.8,5.8,14.1,.1,5.3-2,10.4-5.8,14.1"/><path id="Path_33-2" class="cls-5" d="M279.7,23.3h-.4c-4.2,0-7.7,3.4-7.7,7.7v34.9c.1,5.5-2.1,10.7-5.9,14.6-3.1,3.2-7.2,5.2-11.6,5.6-7.1,.7-14-2.3-18.3-7.9-2.6-3.4-3.9-7.6-3.9-11.8V30.6c0-4-3.3-7.3-7.3-7.3-4.2,0-7.6,3.4-7.7,7.6v35.6c-.2,9.3,3.5,18.2,10.2,24.6,6.4,6.6,15.3,10.3,24.6,10.1,9.2,.2,18.1-3.5,24.6-10.2,6.6-6.5,10.3-15.4,10.1-24.6V30.2c.2-3.8-2.9-6.8-6.7-6.9"/><path id="Path_34-2" class="cls-2" d="M286.8,30.4c0,4.2-3.4,7.5-7.5,7.5s-7.5-3.4-7.5-7.5,3.4-7.5,7.5-7.5c2,0,3.9,.8,5.3,2.2,1.4,1.4,2.2,3.3,2.2,5.3"/><path id="Path_35-2" class="cls-3" d="M209.6,95c0,4.2-3.4,7.5-7.5,7.5s-7.5-3.4-7.5-7.5,3.4-7.5,7.5-7.5c2,0,3.9,.8,5.3,2.2,1.4,1.4,2.2,3.4,2.2,5.3"/><path id="Path_36-2" class="cls-5" d="M121.8,23.7c-6.4-6.6-15.3-10.3-24.6-10.1-9.2-.1-18.1,3.6-24.6,10.2-6.6,6.4-10.2,15.3-10.1,24.6v26.4c-.5,4.5-2.6,8.6-5.7,11.8-3.1,3.2-7.2,5.2-11.6,5.6-7.1,.7-14-2.3-18.3-7.9-2.6-3.4-3.9-7.6-3.9-11.8v-27.5c0-4-3.3-7.3-7.3-7.3-4.2,0-7.6,3.4-7.6,7.6v27.2c-.1,9.2,3.6,18.1,10.2,24.6,6.4,6.6,15.3,10.3,24.6,10.1,9.2,.2,18.1-3.5,24.6-10.2,6.6-6.5,10.3-15.4,10.1-24.6v-26.9c.7-4.8,3.1-9.2,6.8-12.3,3.1-2.7,6.9-4.3,11-4.7,6.8-.7,13.5,2.2,17.6,7.6,2.7,3.4,4.2,7.7,4.1,12.1v26.4c0,3.4,2.1,6.5,5.2,7.8,1,.4,2.1,.6,3.2,.6,3.5,0,6.4-2.9,6.4-6.4h0v-28.4c.3-9.1-3.4-18.1-10.1-24.5"/><path id="Path_37-2" class="cls-2" d="M15.5,37.4c-4.1,0-7.4,3.4-7.4,7.5s3.4,7.4,7.5,7.4,7.4-3.4,7.4-7.5c0-1.9-.8-3.8-2.2-5.2-1.3-1.4-3.3-2.2-5.3-2.2"/><path id="Path_38-2" class="cls-5" d="M249.6,24.8c5.2,0,9.4-4.2,9.4-9.4s-4.2-9.4-9.4-9.4-9.4,4.2-9.4,9.4h0c0,5.1,4.2,9.4,9.4,9.4"/></g></g></svg>