<?xml version="1.0" encoding="UTF-8"?><svg id="Logo_3" xmlns="http://www.w3.org/2000/svg" xmlns:xlink="http://www.w3.org/1999/xlink" viewBox="0 0 295 172.9"><defs><style>.cls-1{fill:#bf9030;}.cls-2{fill:#00b6a1;}.cls-3{fill:#407fc1;}.cls-4{fill:#085566;}.cls-5{clip-path:url(#clippath);}.cls-6{fill:none;}</style><clipPath id="clippath"><rect class="cls-6" x="8.1" y="5.9" width="278.7" height="101.3"/></clipPath></defs><g class="cls-5"><g id="Group_3"><path id="Path_32" class="cls-4" d="M174.5,13.5c-9.2-.2-18.1,3.5-24.6,10.2-6.6,6.5-10.3,15.4-10.1,24.6-.2,9.3,3.5,18.2,10.2,24.6,6.4,6.6,15.3,10.3,24.6,10.2,7.1,.1,14.1-2,19.9-6.2v18.4c0,4.2,3.4,7.6,7.6,7.6h.1c4,0,7.3-3.3,7.3-7.3V48.2c.2-9.3-3.5-18.2-10.2-24.6-6.6-6.6-15.6-10.3-24.8-10.1m14.1,48.8c-3.7,3.7-8.8,5.8-14.1,5.8-5.3,.1-10.3-2-14-5.8-3.7-3.7-5.8-8.8-5.8-14.1-.1-5.3,2-10.4,5.8-14.1,3.7-3.7,8.8-5.8,14.1-5.8,5.3-.1,10.4,2,14,5.8,3.7,3.7,5.8,8.8,5.8,14.1,.1,5.3-2,10.4-5.8,14.1"/><path id="Path_33" class="cls-4" d="M279.7,23.3h-.4c-4.2,0-7.7,3.4-7.7,7.7v34.9c.1,5.5-2.1,10.7-5.9,14.6-3.1,3.2-7.2,5.2-11.6,5.6-7.1,.7-14-2.3-18.3-7.9-2.6-3.4-3.9-7.6-3.9-11.8V30.6c0-4-3.3-7.3-7.3-7.3-4.2,0-7.6,3.4-7.7,7.6v35.6c-.2,9.3,3.5,18.2,10.2,24.6,6.4,6.6,15.3,10.3,24.6,10.1,9.2,.2,18.1-3.5,24.6-10.2,6.6-6.5,10.3-15.4,10.1-24.6V30.2c.2-3.8-2.9-6.8-6.7-6.9"/><path id="Path_34" class="cls-2" d="M286.8,30.4c0,4.2-3.4,7.5-7.5,7.5s-7.5-3.4-7.5-7.5,3.4-7.5,7.5-7.5c2,0,3.9,.8,5.3,2.2,1.4,1.4,2.2,3.3,2.2,5.3"/><path id="Path_35" class="cls-3" d="M209.6,95c0,4.2-3.4,7.5-7.5,7.5s-7.5-3.4-7.5-7.5,3.4-7.5,7.5-7.5c2,0,3.9,.8,5.3,2.2,1.4,1.4,2.2,3.4,2.2,5.3"/><path id="Path_36" class="cls-4" d="M121.8,23.7c-6.4-6.6-15.3-10.3-24.6-10.1-9.2-.1-18.1,3.6-24.6,10.2-6.6,6.4-10.2,15.3-10.1,24.6v26.4c-.5,4.5-2.6,8.6-5.7,11.8-3.1,3.2-7.2,5.2-11.6,5.6-7.1,.7-14-2.3-18.3-7.9-2.6-3.4-3.9-7.6-3.9-11.8v-27.5c0-4-3.3-7.3-7.3-7.3-4.2,0-7.6,3.4-7.6,7.6v27.2c-.1,9.2,3.6,18.1,10.2,24.6,6.4,6.6,15.3,10.3,24.6,10.1,9.2,.2,18.1-3.5,24.6-10.2,6.6-6.5,10.3-15.4,10.1-24.6v-26.9c.7-4.8,3.1-9.2,6.8-12.3,3.1-2.7,6.9-4.3,11-4.7,6.8-.7,13.5,2.2,17.6,7.6,2.7,3.4,4.2,7.7,4.1,12.1v26.4c0,3.4,2.1,6.5,5.2,7.8,1,.4,2.1,.6,3.2,.6,3.5,0,6.4-2.9,6.4-6.4h0v-28.4c.3-9.1-3.4-18.1-10.1-24.5"/><path id="Path_37" class="cls-2" d="M15.5,37.4c-4.1,0-7.4,3.4-7.4,7.5s3.4,7.4,7.5,7.4,7.4-3.4,7.4-7.5c0-1.9-.8-3.8-2.2-5.2-1.3-1.4-3.3-2.2-5.3-2.2"/><path id="Path_38" class="cls-4" d="M249.6,24.8c5.2,0,9.4-4.2,9.4-9.4s-4.2-9.4-9.4-9.4-9.4,4.2-9.4,9.4h0c0,5.1,4.2,9.4,9.4,9.4"/></g></g><g><path class="cls-1" d="M74.96,132.24c-.15-.15-.43-.35-.83-.59s-.9-.46-1.49-.67-1.27-.38-2.03-.54-1.58-.23-2.44-.23c-1.69,0-3.23,.28-4.61,.85s-2.58,1.37-3.57,2.4-1.76,2.28-2.3,3.74-.82,3.1-.82,4.9,.25,3.3,.76,4.71,1.23,2.61,2.19,3.62,2.12,1.78,3.51,2.33,2.95,.82,4.71,.82c.57,0,1.15-.04,1.74-.11s1.17-.18,1.74-.32,1.13-.31,1.67-.51,.98-.38,1.32-.55,.56-.37,.67-.59,.16-.49,.16-.79v-8.67c0-.21-.03-.4-.09-.56s-.14-.29-.25-.39-.22-.16-.35-.21-.26-.07-.39-.07h-7.22c-.11,0-.19,.02-.26,.07s-.13,.12-.18,.22-.09,.23-.11,.39-.04,.35-.04,.57c0,.42,.05,.73,.15,.93s.25,.3,.45,.3h5.27v6.63c-.62,.34-1.29,.59-2.01,.76s-1.43,.25-2.14,.25c-1.18,0-2.27-.2-3.26-.6s-1.84-.98-2.56-1.76-1.27-1.72-1.68-2.85-.61-2.41-.61-3.87c0-1.3,.18-2.51,.55-3.62s.9-2.07,1.59-2.88,1.54-1.44,2.53-1.9,2.12-.69,3.38-.69c1.05,0,1.97,.11,2.73,.33s1.43,.47,1.98,.74,.99,.52,1.32,.74,.56,.33,.7,.33c.08,0,.16-.02,.23-.07s.13-.13,.18-.24,.08-.25,.11-.42,.04-.37,.04-.59c0-.38-.03-.66-.09-.86s-.16-.38-.32-.53Z"/><path class="cls-1" d="M97.59,133.17c-.83-.97-1.86-1.7-3.1-2.21s-2.7-.76-4.38-.76-3.25,.28-4.55,.83-2.38,1.35-3.25,2.37-1.52,2.27-1.95,3.74-.65,3.09-.65,4.89,.2,3.53,.6,4.97,1,2.65,1.82,3.62,1.85,1.71,3.09,2.22,2.73,.76,4.44,.76,3.25-.28,4.55-.83,2.38-1.35,3.24-2.39,1.51-2.29,1.94-3.77,.65-3.13,.65-4.97-.2-3.47-.61-4.9-1.02-2.62-1.85-3.59Zm-1.1,12.19c-.23,1.1-.63,2.07-1.18,2.91-.55,.84-1.28,1.5-2.18,2-.9,.49-2.01,.74-3.34,.74s-2.44-.23-3.33-.68-1.59-1.08-2.12-1.9-.9-1.78-1.12-2.91c-.22-1.12-.33-2.36-.33-3.69,0-1.21,.12-2.36,.36-3.45,.24-1.1,.64-2.05,1.19-2.87,.56-.82,1.28-1.48,2.17-1.97s1.99-.74,3.3-.74,2.41,.23,3.3,.69,1.6,1.09,2.13,1.91c.53,.81,.91,1.78,1.14,2.88,.23,1.11,.34,2.31,.34,3.59s-.12,2.4-.35,3.5Z"/><path class="cls-1" d="M120.64,130.48c-.21-.03-.5-.04-.86-.04s-.63,0-.84,.03-.38,.05-.49,.1-.2,.11-.25,.19-.09,.19-.12,.32l-6.35,19.11h-.02l-6.52-19.14c-.05-.12-.1-.21-.15-.29s-.13-.14-.24-.18-.25-.08-.45-.1-.45-.03-.78-.03c-.4,0-.71,.01-.95,.04s-.4,.08-.51,.16-.16,.2-.15,.36,.06,.37,.15,.62l7.44,21.13c.04,.09,.07,.17,.11,.24s.1,.12,.17,.17,.16,.08,.25,.11,.22,.06,.36,.08,.31,.04,.5,.04,.42,0,.68,0c.34,0,.62,0,.85-.03s.42-.05,.56-.1,.26-.11,.34-.19,.15-.19,.19-.32l7.42-21.13c.09-.26,.15-.47,.17-.62s-.01-.28-.09-.36-.22-.14-.43-.17Z"/><path class="cls-1" d="M135.07,130.28h-.65v27c0,.46,.14,.81,.43,1.06s.59,.38,.9,.38h.68v-27.18c0-.41-.14-.72-.43-.94-.29-.22-.6-.32-.94-.32Z"/><path class="cls-1" d="M159.58,135.54c.46,0,.86-.17,1.21-.5,.35-.34,.52-.74,.52-1.22s-.17-.89-.52-1.22c-.35-.34-.75-.5-1.21-.5-.5,0-.93,.17-1.28,.5-.35,.34-.52,.74-.52,1.22s.17,.89,.52,1.22,.77,.5,1.28,.5Z"/><path class="cls-1" d="M155.08,135.54c.48,0,.89-.17,1.22-.5s.5-.74,.5-1.22-.17-.89-.5-1.22c-.34-.34-.74-.5-1.22-.5s-.89,.17-1.24,.5c-.35,.34-.52,.74-.52,1.22s.17,.89,.52,1.22c.35,.34,.76,.5,1.24,.5Z"/><path class="cls-1" d="M183.16,140.11c-.58-.65-1.27-1.15-2.07-1.49-.8-.35-1.7-.52-2.68-.52-2.11,0-3.78,.7-5,2.09-1.22,1.39-1.84,3.32-1.84,5.8,0,.77-.04,1.42-.13,1.96s-.26,.98-.54,1.33c-.28,.35-.65,.6-1.13,.76-.48,.16-1.12,.23-1.91,.23h-4.1v-4.93c0-1.1-.16-2.11-.49-3.01-.32-.9-.77-1.67-1.35-2.32-.58-.65-1.27-1.15-2.09-1.49-.82-.35-1.72-.52-2.7-.52-2.11,0-3.78,.7-5,2.09-1.22,1.39-1.84,3.32-1.84,5.8,0,1.63,.36,2.93,1.08,3.91,.72,.97,1.62,1.72,2.72,2.25,1.09,.53,2.28,.87,3.56,1.03,1.28,.16,2.48,.23,3.58,.23h6.37c.1,.02,.19,.04,.29,.04,2.52,0,4.33-.74,5.44-2.23,.62,.7,1.36,1.25,2.21,1.66,.85,.41,1.81,.61,2.86,.61,2.02,0,3.62-.7,4.81-2.11,1.19-1.4,1.78-3.35,1.78-5.85,0-1.08-.16-2.07-.49-2.97-.32-.9-.77-1.67-1.35-2.32Zm-25.29,10.01c-.95-.1-1.77-.31-2.47-.63s-1.24-.82-1.64-1.48c-.4-.66-.59-1.54-.59-2.65,0-1.42,.33-2.54,.99-3.37,.66-.83,1.54-1.24,2.65-1.24s1.94,.25,2.52,.74c.58,.49,.98,1.17,1.22,2.03,.24,.86,.37,1.87,.38,3.02,.01,1.15,.02,2.39,.02,3.71-1.1,0-2.13-.05-3.08-.14Zm23.33-.94c-.59,.84-1.43,1.26-2.54,1.26-1.32,0-2.33-.45-3.04-1.35-.71-.9-1.06-2.11-1.06-3.62,0-1.39,.32-2.48,.97-3.28,.65-.79,1.51-1.19,2.59-1.19,1.3,0,2.28,.41,2.95,1.24s1.01,2.06,1.01,3.69c0,1.32-.29,2.4-.88,3.24Z"/><path class="cls-1" d="M237.56,147.29c-.26-1.67-.74-3.19-1.42-4.57-.68-1.38-1.61-2.51-2.79-3.4s-2.68-1.33-4.5-1.33c-1.08,0-2,.12-2.75,.36-.76,.24-1.37,.55-1.84,.94s-.81,.82-1.03,1.31c-.22,.49-.32,.99-.32,1.49v1.26c.29-.43,.67-.82,1.15-1.15,.43-.26,.98-.52,1.64-.76,.66-.24,1.49-.36,2.5-.36,1.2,0,2.21,.33,3.02,.99,.82,.66,1.48,1.46,1.98,2.41s.87,1.95,1.1,3.01c.23,1.06,.37,1.98,.41,2.77h-16.13c0-1.13-.11-2.3-.32-3.51s-.61-2.35-1.17-3.42c-.56-1.07-1.34-2-2.34-2.81-1-.8-2.29-1.35-3.87-1.64l9.65-7.2c.36-.29,.54-.67,.54-1.15,0-.38-.11-.72-.32-1.01l-.86-1.15-13.46,10.01c-.67,.5-1.01,1.06-1.01,1.66-.02,.38,.13,.79,.47,1.22l.61,.83c.36-.12,.69-.2,.99-.23s.62-.05,.95-.05c1.46,0,2.64,.29,3.53,.86,.89,.58,1.57,1.3,2.05,2.16s.8,1.79,.97,2.77c.17,.98,.28,1.87,.32,2.66h-14.29s0-.07-.02-.13c-.01-.06-.02-.25-.02-.56v-4.25c0-1.1-.16-2.11-.49-3.01-.32-.9-.77-1.67-1.35-2.32-.58-.65-1.27-1.15-2.09-1.49-.82-.35-1.72-.52-2.7-.52-2.11,0-3.78,.7-5,2.09-1.22,1.39-1.84,3.32-1.84,5.8,0,1.56,.33,2.81,.99,3.76,.66,.95,1.49,1.69,2.5,2.21,1.01,.53,2.12,.89,3.33,1.08,1.21,.19,2.37,.31,3.47,.36-.12,.55-.4,1.04-.83,1.46-.43,.42-.96,.77-1.58,1.04-.62,.28-1.31,.49-2.07,.63-.76,.14-1.52,.22-2.29,.22-.31,0-.62-.01-.92-.04-.3-.02-.59-.06-.88-.11v1.44c0,.62,.29,1.06,.86,1.3,.58,.24,1.28,.36,2.12,.36,1.15,0,2.22-.17,3.2-.5s1.85-.79,2.59-1.35c.74-.56,1.36-1.23,1.84-2,.48-.77,.8-1.58,.97-2.45h31.46c1.01,0,1.85,.11,2.52,.34,.67,.23,1.25,.5,1.73,.81,.5,.34,.91,.72,1.22,1.15,.05-.53,.09-1.08,.13-1.66,.04-.58,.05-1.18,.05-1.8,0-1.56-.13-3.17-.4-4.84Zm-42.46,2.83c-.95-.1-1.77-.31-2.47-.63-.7-.32-1.24-.82-1.64-1.48-.4-.66-.59-1.54-.59-2.65,0-1.42,.33-2.54,.99-3.37s1.54-1.24,2.65-1.24,1.94,.25,2.52,.74c.58,.49,.98,1.17,1.22,2.03s.37,1.87,.38,3.02c.01,1.15,.02,2.39,.02,3.71-1.1,0-2.13-.05-3.08-.14Z"/></g></svg>