<?xml version="1.0" encoding="UTF-8"?><svg id="Logo_3" xmlns="http://www.w3.org/2000/svg" xmlns:xlink="http://www.w3.org/1999/xlink" viewBox="0 0 295 172.9"><defs><style>.cls-1{fill:#00b6a1;}.cls-2{fill:#407fc1;}.cls-3{clip-path:url(#clippath-1);}.cls-4{fill:#8e8e8e;}.cls-5{fill:#085566;}.cls-6{clip-path:url(#clippath);}.cls-7{fill:none;}</style><clipPath id="clippath"><rect class="cls-7" x="8.1" y="5.9" width="278.7" height="101.3"/></clipPath><clipPath id="clippath-1"><rect class="cls-7" x="8.1" y="5.9" width="278.7" height="101.3"/></clipPath></defs><g class="cls-6"><g id="Group_3"><path id="Path_32" class="cls-5" d="M174.4,13.5c-9.2-.2-18.1,3.5-24.6,10.2-6.6,6.5-10.3,15.4-10.1,24.6-.2,9.3,3.5,18.2,10.2,24.6,6.4,6.6,15.3,10.3,24.6,10.2,7.1,.1,14.1-2,19.9-6.2v18.4c0,4.2,3.4,7.6,7.6,7.6h.1c4,0,7.3-3.3,7.3-7.3V48.2c.2-9.3-3.5-18.2-10.2-24.6-6.6-6.6-15.5-10.3-24.8-10.1m14.1,48.8c-3.7,3.7-8.8,5.8-14.1,5.8-5.3,.1-10.3-2-14-5.8-3.7-3.7-5.8-8.8-5.8-14.1-.1-5.3,2-10.4,5.8-14.1,3.7-3.7,8.8-5.8,14.1-5.8,5.3-.1,10.4,2,14,5.8,3.7,3.7,5.8,8.8,5.8,14.1,.1,5.3-2,10.4-5.8,14.1"/><path id="Path_33" class="cls-5" d="M279.7,23.3h-.4c-4.2,0-7.7,3.4-7.7,7.7v34.9c.1,5.5-2.1,10.7-5.9,14.6-3.1,3.2-7.2,5.2-11.6,5.6-7.1,.7-14-2.3-18.3-7.9-2.6-3.4-3.9-7.6-3.9-11.8V30.6c0-4-3.3-7.3-7.3-7.3-4.2,0-7.6,3.4-7.7,7.6v35.6c-.2,9.3,3.5,18.2,10.2,24.6,6.4,6.6,15.3,10.3,24.6,10.1,9.2,.2,18.1-3.5,24.6-10.2,6.6-6.5,10.3-15.4,10.1-24.6V30.2c.1-3.8-2.9-6.8-6.7-6.9"/><path id="Path_34" class="cls-1" d="M286.8,30.4c0,4.2-3.4,7.5-7.5,7.5s-7.5-3.4-7.5-7.5,3.4-7.5,7.5-7.5c2,0,3.9,.8,5.3,2.2,1.4,1.4,2.2,3.3,2.2,5.3"/><path id="Path_35" class="cls-2" d="M209.5,95c0,4.2-3.4,7.5-7.5,7.5s-7.5-3.4-7.5-7.5,3.4-7.5,7.5-7.5c2,0,3.9,.8,5.3,2.2,1.4,1.4,2.2,3.4,2.2,5.3"/><path id="Path_36" class="cls-5" d="M121.8,23.7c-6.4-6.6-15.3-10.3-24.6-10.1-9.2-.1-18.1,3.6-24.6,10.2-6.6,6.5-10.3,15.4-10.1,24.6v26.4c-.5,4.5-2.6,8.6-5.7,11.8-3.1,3.2-7.2,5.2-11.6,5.6-7.1,.7-14-2.3-18.3-7.9-2.6-3.4-3.9-7.6-3.9-11.8v-27.5c0-4-3.3-7.3-7.3-7.3-4.2,0-7.6,3.4-7.6,7.6v27.2c-.2,9.3,3.5,18.2,10.2,24.6,6.4,6.6,15.3,10.3,24.6,10.1,9.2,.2,18.1-3.5,24.6-10.2,6.6-6.5,10.3-15.4,10.1-24.6v-26.9c.7-4.8,3.1-9.2,6.8-12.3,3.1-2.7,6.9-4.3,11-4.7,6.8-.7,13.5,2.2,17.6,7.6,2.7,3.4,4.2,7.7,4.1,12.1v26.4c0,3.4,2.1,6.5,5.2,7.8,1,.4,2.1,.6,3.2,.6,3.5,0,6.4-2.9,6.4-6.4h0v-28.4c.2-9.1-3.5-18.1-10.1-24.5"/><path id="Path_37" class="cls-1" d="M15.5,37.4c-4.1,0-7.4,3.4-7.4,7.5s3.4,7.4,7.5,7.4,7.4-3.4,7.4-7.5c0-1.9-.8-3.8-2.2-5.2-1.4-1.4-3.3-2.2-5.3-2.2"/><path id="Path_38" class="cls-5" d="M249.6,24.8c5.2,0,9.4-4.2,9.4-9.4s-4.2-9.4-9.4-9.4-9.4,4.2-9.4,9.4h0c-.1,5.1,4.2,9.4,9.4,9.4"/></g></g><g><path class="cls-4" d="M49.23,142.95c-.4-.48-.88-.88-1.42-1.19s-1.12-.52-1.74-.64c.49-.21,.93-.48,1.31-.81s.7-.7,.95-1.12,.44-.87,.57-1.36,.19-1.01,.19-1.55c0-.9-.15-1.71-.44-2.43s-.73-1.32-1.31-1.81-1.3-.87-2.17-1.12-1.98-.39-3.34-.39h-5.17c-.27,0-.52,.09-.76,.27s-.36,.5-.36,.96v20.29c0,.46,.12,.78,.36,.96s.5,.27,.76,.27h5.94c.86,0,1.61-.06,2.28-.18s1.28-.31,1.86-.55,1.1-.55,1.56-.91,.86-.79,1.19-1.27,.58-1.02,.76-1.63,.27-1.26,.27-1.98c0-.77-.12-1.48-.35-2.13s-.55-1.21-.96-1.69Zm-10.68-9.95h3.12c.87,0,1.56,.08,2.09,.25s.95,.4,1.28,.71,.57,.69,.72,1.13c.15,.45,.23,.94,.23,1.49,0,.49-.07,.97-.22,1.43-.15,.46-.38,.87-.69,1.21s-.71,.62-1.19,.83-1.11,.31-1.89,.31h-3.44v-7.37Zm8.47,15.61c-.22,.48-.53,.88-.92,1.2s-.84,.57-1.36,.73-1.12,.25-1.81,.25h-4.39v-8.02h3.61c.95,0,1.73,.09,2.36,.27,.63,.18,1.15,.45,1.56,.8,.42,.35,.73,.79,.95,1.3,.22,.52,.33,1.11,.33,1.79,0,.63-.11,1.19-.33,1.67Z"/><path class="cls-4" d="M68.03,136.61c-.11-.05-.25-.09-.44-.11s-.42-.03-.7-.03-.53,0-.71,.03-.33,.05-.45,.11-.2,.11-.24,.18-.06,.14-.06,.24v11.06c-.81,1-1.57,1.75-2.29,2.27s-1.44,.77-2.17,.77c-.56,0-1.05-.11-1.48-.33s-.77-.52-1.05-.91-.48-.87-.62-1.42-.2-1.3-.2-2.22v-9.21c0-.09-.02-.17-.07-.24s-.13-.12-.24-.18-.26-.09-.45-.11-.42-.03-.7-.03-.52,0-.7,.03-.34,.05-.46,.11-.2,.11-.24,.18-.06,.14-.06,.24v9.6c0,1.15,.1,2.12,.29,2.93s.51,1.51,.96,2.11,1.03,1.08,1.75,1.43,1.61,.53,2.66,.53c.9,0,1.79-.23,2.67-.69s1.77-1.18,2.67-2.18v2.09c0,.09,.02,.17,.05,.24s.1,.12,.2,.17,.23,.08,.4,.11,.39,.04,.66,.04c.25,0,.45-.01,.62-.04s.31-.06,.41-.11,.18-.1,.22-.17,.06-.14,.06-.24v-15.82c0-.09-.03-.17-.08-.24s-.13-.12-.24-.18Z"/><path class="cls-4" d="M82.39,145.52c-.38-.35-.81-.65-1.29-.9s-.98-.47-1.48-.67-.99-.39-1.47-.58-.91-.4-1.28-.63-.68-.51-.91-.82-.35-.69-.35-1.15c0-.33,.06-.63,.18-.91s.3-.52,.54-.73,.55-.36,.92-.47,.81-.17,1.3-.17c.55,0,1.04,.06,1.47,.19s.8,.27,1.12,.41,.57,.28,.77,.41,.35,.19,.46,.19c.07,0,.13-.02,.19-.06s.11-.11,.15-.2,.07-.21,.09-.36,.03-.32,.03-.52c0-.19,0-.35-.03-.47s-.04-.24-.05-.33-.05-.17-.09-.24-.12-.15-.25-.25-.3-.2-.54-.33-.53-.24-.87-.34-.72-.19-1.14-.26-.84-.11-1.27-.11c-.96,0-1.8,.13-2.52,.39s-1.32,.6-1.8,1.03-.84,.93-1.08,1.49-.36,1.16-.36,1.78c0,.7,.11,1.31,.34,1.81s.53,.94,.91,1.3,.8,.67,1.27,.92,.96,.48,1.46,.68,.98,.39,1.45,.57,.89,.39,1.27,.62,.68,.5,.91,.81,.34,.68,.34,1.12-.08,.81-.24,1.12-.38,.58-.68,.78-.64,.36-1.04,.47-.84,.16-1.34,.16c-.66,0-1.24-.08-1.74-.24s-.94-.33-1.31-.52-.68-.36-.93-.52-.44-.24-.57-.24c-.08,0-.16,.02-.22,.06s-.11,.11-.15,.2-.06,.22-.09,.37-.04,.34-.04,.56c0,.36,.03,.65,.09,.86s.15,.38,.28,.49,.33,.25,.62,.4,.62,.29,1.03,.42,.86,.25,1.37,.33,1.05,.13,1.61,.13c.91,0,1.75-.11,2.51-.33s1.42-.55,1.97-.98,.98-.97,1.27-1.6,.45-1.35,.45-2.16c0-.68-.11-1.27-.34-1.76s-.53-.91-.91-1.27Z"/><path class="cls-4" d="M90.39,136.62c-.11-.05-.25-.08-.44-.11s-.43-.04-.72-.04-.52,.01-.7,.04-.34,.06-.45,.11-.19,.11-.23,.18-.06,.15-.06,.23v15.82c0,.09,.02,.17,.06,.24s.12,.12,.23,.17,.26,.08,.45,.11,.42,.04,.7,.04,.53-.01,.72-.04,.33-.06,.44-.11,.18-.1,.23-.17,.07-.14,.07-.24v-15.82c0-.08-.02-.16-.07-.23s-.12-.13-.23-.18Z"/><path class="cls-4" d="M89.25,129.96c-.69,0-1.17,.12-1.42,.37s-.39,.71-.39,1.39,.13,1.12,.38,1.36,.72,.36,1.4,.36,1.17-.12,1.42-.37,.39-.71,.39-1.39-.13-1.12-.38-1.36-.72-.36-1.4-.36Z"/><path class="cls-4" d="M108.43,138.2c-.45-.6-1.03-1.08-1.75-1.43s-1.61-.54-2.66-.54c-.9,0-1.8,.23-2.68,.69s-1.77,1.19-2.66,2.19v-2.09c0-.09-.02-.17-.06-.24s-.11-.12-.2-.18-.23-.09-.4-.11-.38-.03-.64-.03-.49,0-.65,.03-.3,.05-.4,.11-.18,.11-.21,.18-.05,.14-.05,.24v15.82c0,.09,.02,.17,.06,.24s.12,.12,.23,.17,.26,.08,.45,.11,.42,.04,.7,.04,.53-.01,.72-.04,.33-.06,.44-.11,.18-.1,.23-.17,.07-.14,.07-.24v-11.06c.8-1,1.56-1.75,2.29-2.27s1.45-.77,2.18-.77c.56,0,1.06,.11,1.49,.32s.78,.52,1.05,.91,.47,.87,.62,1.42,.21,1.28,.21,2.18v9.26c0,.09,.02,.17,.07,.24s.12,.12,.23,.17,.25,.08,.44,.11,.43,.04,.72,.04,.52-.01,.7-.04,.33-.06,.44-.11,.18-.1,.23-.17,.07-.14,.07-.24v-9.65c0-1.12-.1-2.09-.29-2.89s-.51-1.5-.96-2.1Z"/><path class="cls-4" d="M126.83,138.44c-.56-.67-1.28-1.21-2.15-1.61s-1.93-.6-3.17-.6c-1.16,0-2.21,.2-3.15,.61s-1.74,.98-2.4,1.74-1.17,1.68-1.52,2.76-.53,2.31-.53,3.67c0,1.43,.17,2.68,.51,3.76s.84,1.97,1.51,2.69,1.49,1.25,2.47,1.62,2.12,.54,3.42,.54c.75,0,1.46-.06,2.12-.17s1.25-.24,1.75-.38,.91-.28,1.23-.43,.51-.25,.57-.32,.12-.13,.16-.2,.07-.15,.09-.24,.03-.19,.04-.3,.02-.24,.02-.4c0-.21,0-.39-.03-.54s-.04-.26-.08-.34-.08-.14-.15-.18c-.06-.04-.14-.06-.22-.06-.14,0-.35,.06-.63,.18-.28,.12-.63,.26-1.06,.41s-.94,.29-1.53,.41-1.26,.18-2.01,.18c-.95,0-1.76-.13-2.42-.4-.66-.27-1.2-.66-1.61-1.16s-.71-1.11-.88-1.81-.26-1.49-.26-2.37h10.42c.29,0,.56-.1,.79-.29s.34-.52,.34-.98v-.53c0-1.03-.13-2-.4-2.91s-.68-1.7-1.24-2.37Zm-9.91,4.95c.02-.64,.13-1.26,.34-1.85,.2-.59,.48-1.11,.85-1.56s.82-.8,1.36-1.07c.54-.27,1.17-.4,1.89-.4,1.4,0,2.46,.43,3.17,1.3s1.05,2.06,1.02,3.59h-8.63Z"/><path class="cls-4" d="M141.56,145.52c-.38-.35-.81-.65-1.29-.9s-.98-.47-1.48-.67-.99-.39-1.47-.58-.91-.4-1.28-.63-.68-.51-.91-.82-.35-.69-.35-1.15c0-.33,.06-.63,.18-.91s.3-.52,.54-.73,.55-.36,.92-.47,.81-.17,1.3-.17c.55,0,1.04,.06,1.47,.19s.8,.27,1.12,.41,.57,.28,.77,.41,.35,.19,.46,.19c.07,0,.13-.02,.19-.06s.11-.11,.15-.2,.07-.21,.09-.36,.03-.32,.03-.52c0-.19,0-.35-.03-.47s-.04-.24-.05-.33-.05-.17-.09-.24-.12-.15-.25-.25-.3-.2-.54-.33-.53-.24-.87-.34-.72-.19-1.14-.26-.84-.11-1.27-.11c-.96,0-1.8,.13-2.52,.39s-1.32,.6-1.8,1.03-.84,.93-1.08,1.49-.36,1.16-.36,1.78c0,.7,.11,1.31,.34,1.81s.53,.94,.91,1.3,.8,.67,1.27,.92,.96,.48,1.46,.68,.98,.39,1.45,.57,.89,.39,1.27,.62,.68,.5,.91,.81,.34,.68,.34,1.12-.08,.81-.24,1.12-.38,.58-.68,.78-.64,.36-1.04,.47-.84,.16-1.34,.16c-.66,0-1.24-.08-1.74-.24s-.94-.33-1.31-.52-.68-.36-.93-.52-.44-.24-.57-.24c-.08,0-.16,.02-.22,.06s-.11,.11-.15,.2-.06,.22-.09,.37-.04,.34-.04,.56c0,.36,.03,.65,.09,.86s.15,.38,.28,.49,.33,.25,.62,.4,.62,.29,1.03,.42,.86,.25,1.37,.33,1.05,.13,1.61,.13c.91,0,1.75-.11,2.51-.33s1.42-.55,1.97-.98,.98-.97,1.27-1.6,.45-1.35,.45-2.16c0-.68-.11-1.27-.34-1.76s-.53-.91-.91-1.27Z"/><path class="cls-4" d="M155.64,145.52c-.38-.35-.81-.65-1.29-.9s-.98-.47-1.48-.67-.99-.39-1.47-.58-.91-.4-1.28-.63-.68-.51-.91-.82-.35-.69-.35-1.15c0-.33,.06-.63,.18-.91s.3-.52,.54-.73,.55-.36,.92-.47,.81-.17,1.3-.17c.55,0,1.04,.06,1.47,.19s.8,.27,1.12,.41,.57,.28,.77,.41,.35,.19,.46,.19c.07,0,.13-.02,.19-.06s.11-.11,.15-.2,.07-.21,.09-.36,.03-.32,.03-.52c0-.19,0-.35-.03-.47s-.04-.24-.05-.33-.05-.17-.09-.24-.12-.15-.25-.25-.3-.2-.54-.33-.53-.24-.87-.34-.72-.19-1.14-.26-.84-.11-1.27-.11c-.96,0-1.8,.13-2.52,.39s-1.32,.6-1.8,1.03-.84,.93-1.08,1.49-.36,1.16-.36,1.78c0,.7,.11,1.31,.34,1.81s.53,.94,.91,1.3,.8,.67,1.27,.92,.96,.48,1.46,.68,.98,.39,1.45,.57,.89,.39,1.27,.62,.68,.5,.91,.81,.34,.68,.34,1.12-.08,.81-.24,1.12-.38,.58-.68,.78-.64,.36-1.04,.47-.84,.16-1.34,.16c-.66,0-1.24-.08-1.74-.24s-.94-.33-1.31-.52-.68-.36-.93-.52-.44-.24-.57-.24c-.08,0-.16,.02-.22,.06s-.11,.11-.15,.2-.06,.22-.09,.37-.04,.34-.04,.56c0,.36,.03,.65,.09,.86s.15,.38,.28,.49,.33,.25,.62,.4,.62,.29,1.03,.42,.86,.25,1.37,.33,1.05,.13,1.61,.13c.91,0,1.75-.11,2.51-.33s1.42-.55,1.97-.98,.98-.97,1.27-1.6,.45-1.35,.45-2.16c0-.68-.11-1.27-.34-1.76s-.53-.91-.91-1.27Z"/><path class="cls-4" d="M170.56,130.28h-.65v27c0,.46,.14,.81,.43,1.06s.59,.38,.9,.38h.68v-27.18c0-.41-.14-.72-.43-.94-.29-.22-.6-.32-.94-.32Z"/><path class="cls-4" d="M204.16,131.58h-.97v16.07c0,.56-.05,1.24-.14,2.02-.1,.78-.27,1.61-.52,2.5-.25,.89-.62,1.71-1.12,2.47-.49,.76-1.12,1.38-1.89,1.87-.77,.49-1.74,.74-2.92,.74-1.3,0-2.39-.23-3.28-.68-.89-.46-1.6-1.04-2.14-1.75-.54-.71-.93-1.5-1.17-2.38-.24-.88-.36-1.73-.36-2.57,0-.48,.07-.97,.2-1.48,.13-.5,.31-.99,.54-1.46,.23-.47,.51-.88,.85-1.24,.34-.36,.71-.62,1.12-.79v-.14l-1.26-.11c-1.46,0-2.54,.51-3.22,1.53-.68,1.02-1.03,2.33-1.03,3.94,0,1.27,.19,2.52,.56,3.74,.37,1.22,.97,2.32,1.78,3.28,.82,.96,1.85,1.73,3.11,2.32,1.26,.59,2.78,.88,4.55,.88,1.68,0,3.08-.33,4.19-.99,1.12-.66,2.02-1.49,2.72-2.5,.7-1.01,1.22-2.11,1.57-3.31s.59-2.35,.74-3.46c.14-1.1,.22-2.08,.22-2.92v-13.18c0-.86-.15-1.48-.45-1.85-.3-.37-.86-.56-1.67-.56Z"/><path class="cls-4" d="M241.62,147.87c-.25-.76-.38-1.46-.38-2.11,0-.7,.11-1.32,.34-1.87,.23-.55,.53-1.02,.9-1.4s.81-.68,1.31-.9,1.03-.32,1.58-.32c.67,0,1.29,.14,1.85,.41,.56,.28,1.05,.62,1.46,1.04,.41,.42,.74,.88,1.01,1.37,.26,.49,.43,.97,.5,1.42l.72-1.04c.24-.36,.36-.85,.36-1.48,0-.36-.11-.81-.32-1.35-.22-.54-.56-1.06-1.04-1.55-.48-.49-1.11-.91-1.89-1.26-.78-.35-1.73-.52-2.86-.52-.96,0-1.87,.19-2.74,.58-.86,.38-1.62,.91-2.25,1.58-.64,.67-1.14,1.47-1.51,2.39s-.56,1.91-.56,2.97c0,.7,.08,1.42,.25,2.16,.17,.74,.46,1.5,.86,2.27h-3.78c-.79,0-1.43-.08-1.91-.23-.48-.16-.86-.41-1.13-.76s-.46-.79-.54-1.33-.13-1.19-.13-1.96c0-1.22-.16-2.33-.49-3.31-.32-.98-.77-1.81-1.35-2.48s-1.27-1.19-2.07-1.55c-.8-.36-1.7-.54-2.68-.54-2.11,0-3.78,.7-5,2.09-1.22,1.39-1.84,3.32-1.84,5.8,0,.77-.04,1.42-.13,1.96s-.26,.98-.54,1.33c-.28,.35-.65,.6-1.13,.76-.4,.13-.92,.2-1.55,.22-.82-.02-1.45-.24-1.89-.66-.47-.44-.7-1.17-.7-2.18v-13.43c0-.86-.15-1.48-.45-1.85-.3-.37-.86-.56-1.67-.56h-.97v15.98c0,1.68,.43,3.04,1.28,4.07,.82,.99,2.02,1.53,3.58,1.63v.02h.22c.1,.02,.19,.04,.29,.04,.32,0,.63-.01,.92-.04h.01c2.04-.17,3.54-.9,4.5-2.2,.62,.7,1.36,1.25,2.21,1.66,.85,.41,1.8,.61,2.86,.61,2.06,0,3.68-.73,4.86-2.2,.62,.84,1.4,1.4,2.32,1.69,.6,.19,1.32,.31,2.14,.37v.06h15.62c.86,0,1.48-.15,1.84-.45,.36-.3,.54-.86,.54-1.67v-.9h-9.65c-.55-.84-.95-1.64-1.21-2.39Zm-13.72,1.31c-.59,.84-1.43,1.26-2.54,1.26-1.32,0-2.33-.45-3.04-1.35-.71-.9-1.06-2.11-1.06-3.62,0-1.39,.32-2.48,.97-3.28,.65-.79,1.51-1.19,2.59-1.19,1.3,0,2.28,.41,2.95,1.24s1.01,2.06,1.01,3.69c0,1.32-.29,2.4-.88,3.24Z"/><path class="cls-4" d="M258.2,128.95c-.19-.14-.31-.34-.36-.58-.05-.24-.07-.49-.07-.76,0-.62,.11-1.01,.34-1.17s.44-.23,.63-.23c.05,0,.14,.01,.29,.04,.14,.02,.3,.08,.47,.18,.17,.1,.34,.25,.52,.45,.18,.2,.34,.49,.49,.85,0-.19,.06-.38,.18-.56s.18-.38,.18-.59c-.12-.46-.37-.81-.74-1.06-.37-.25-.8-.38-1.28-.38-.72,0-1.3,.24-1.73,.72-.43,.48-.65,1.1-.65,1.87,0,.19,0,.37,.02,.54s.05,.32,.13,.47l.11,.22h-1.3v.58c0,.17,.07,.32,.2,.47,.13,.14,.31,.22,.52,.22h4.36c.24,0,.43-.07,.56-.22s.2-.3,.2-.47v-.58h-3.06Z"/><path class="cls-4" d="M258.41,131.58h-1.44v19.55c0,.77,.18,1.32,.54,1.66s.83,.5,1.4,.5h1.08v-20.23c0-.43-.17-.79-.5-1.06-.34-.28-.7-.41-1.08-.41Z"/></g><g class="cls-3"><g id="Group_3-2"><path id="Path_32-2" class="cls-5" d="M174.5,13.5c-9.2-.2-18.1,3.5-24.6,10.2-6.6,6.5-10.3,15.4-10.1,24.6-.2,9.3,3.5,18.2,10.2,24.6,6.4,6.6,15.3,10.3,24.6,10.2,7.1,.1,14.1-2,19.9-6.2v18.4c0,4.2,3.4,7.6,7.6,7.6h.1c4,0,7.3-3.3,7.3-7.3V48.2c.2-9.3-3.5-18.2-10.2-24.6-6.6-6.6-15.6-10.3-24.8-10.1m14.1,48.8c-3.7,3.7-8.8,5.8-14.1,5.8-5.3,.1-10.3-2-14-5.8-3.7-3.7-5.8-8.8-5.8-14.1-.1-5.3,2-10.4,5.8-14.1,3.7-3.7,8.8-5.8,14.1-5.8,5.3-.1,10.4,2,14,5.8,3.7,3.7,5.8,8.8,5.8,14.1,.1,5.3-2,10.4-5.8,14.1"/><path id="Path_33-2" class="cls-5" d="M279.7,23.3h-.4c-4.2,0-7.7,3.4-7.7,7.7v34.9c.1,5.5-2.1,10.7-5.9,14.6-3.1,3.2-7.2,5.2-11.6,5.6-7.1,.7-14-2.3-18.3-7.9-2.6-3.4-3.9-7.6-3.9-11.8V30.6c0-4-3.3-7.3-7.3-7.3-4.2,0-7.6,3.4-7.7,7.6v35.6c-.2,9.3,3.5,18.2,10.2,24.6,6.4,6.6,15.3,10.3,24.6,10.1,9.2,.2,18.1-3.5,24.6-10.2,6.6-6.5,10.3-15.4,10.1-24.6V30.2c.2-3.8-2.9-6.8-6.7-6.9"/><path id="Path_34-2" class="cls-1" d="M286.8,30.4c0,4.2-3.4,7.5-7.5,7.5s-7.5-3.4-7.5-7.5,3.4-7.5,7.5-7.5c2,0,3.9,.8,5.3,2.2,1.4,1.4,2.2,3.3,2.2,5.3"/><path id="Path_35-2" class="cls-2" d="M209.6,95c0,4.2-3.4,7.5-7.5,7.5s-7.5-3.4-7.5-7.5,3.4-7.5,7.5-7.5c2,0,3.9,.8,5.3,2.2,1.4,1.4,2.2,3.4,2.2,5.3"/><path id="Path_36-2" class="cls-5" d="M121.8,23.7c-6.4-6.6-15.3-10.3-24.6-10.1-9.2-.1-18.1,3.6-24.6,10.2-6.6,6.4-10.2,15.3-10.1,24.6v26.4c-.5,4.5-2.6,8.6-5.7,11.8-3.1,3.2-7.2,5.2-11.6,5.6-7.1,.7-14-2.3-18.3-7.9-2.6-3.4-3.9-7.6-3.9-11.8v-27.5c0-4-3.3-7.3-7.3-7.3-4.2,0-7.6,3.4-7.6,7.6v27.2c-.1,9.2,3.6,18.1,10.2,24.6,6.4,6.6,15.3,10.3,24.6,10.1,9.2,.2,18.1-3.5,24.6-10.2,6.6-6.5,10.3-15.4,10.1-24.6v-26.9c.7-4.8,3.1-9.2,6.8-12.3,3.1-2.7,6.9-4.3,11-4.7,6.8-.7,13.5,2.2,17.6,7.6,2.7,3.4,4.2,7.7,4.1,12.1v26.4c0,3.4,2.1,6.5,5.2,7.8,1,.4,2.1,.6,3.2,.6,3.5,0,6.4-2.9,6.4-6.4h0v-28.4c.3-9.1-3.4-18.1-10.1-24.5"/><path id="Path_37-2" class="cls-1" d="M15.5,37.4c-4.1,0-7.4,3.4-7.4,7.5s3.4,7.4,7.5,7.4,7.4-3.4,7.4-7.5c0-1.9-.8-3.8-2.2-5.2-1.3-1.4-3.3-2.2-5.3-2.2"/><path id="Path_38-2" class="cls-5" d="M249.6,24.8c5.2,0,9.4-4.2,9.4-9.4s-4.2-9.4-9.4-9.4-9.4,4.2-9.4,9.4h0c0,5.1,4.2,9.4,9.4,9.4"/></g></g></svg>