<?xml version="1.0" encoding="UTF-8"?><svg id="Logo_3" xmlns="http://www.w3.org/2000/svg" xmlns:xlink="http://www.w3.org/1999/xlink" viewBox="0 0 294.95 107.21"><defs><style>.cls-1{fill:#fff;}.cls-2{fill:#00b6a1;}.cls-3{fill:#407fc1;}.cls-4{clip-path:url(#clippath);}.cls-5{fill:none;}</style><clipPath id="clippath"><rect class="cls-5" width="294.95" height="107.21"/></clipPath></defs><g class="cls-4"><g id="Group_3"><path id="Path_32" class="cls-1" d="M176.07,8.01c-9.79-.16-19.2,3.74-26,10.78-7.01,6.84-10.9,16.27-10.73,26.06-.16,9.79,3.73,19.22,10.77,26.03,6.82,7.02,16.24,10.91,26.03,10.74,7.52,.13,14.89-2.15,21.02-6.51v19.5c0,4.43,3.58,8.03,8.02,8.04,.02,0,.04,0,.06,0,4.26-.03,7.7-3.5,7.69-7.76l-.05-50.11c.16-9.79-3.74-19.22-10.77-26.03-6.82-7.02-16.25-10.91-26.04-10.74m14.92,51.67c-3.94,3.95-9.29,6.17-14.87,6.19-5.58,.09-10.95-2.13-14.84-6.14-3.95-3.95-6.18-9.3-6.19-14.89-.09-5.6,2.13-10.99,6.15-14.89,3.95-3.94,9.29-6.15,14.87-6.16,5.59-.08,10.96,2.15,14.84,6.16,3.94,3.95,6.15,9.31,6.15,14.89,.08,5.58-2.13,10.94-6.13,14.83"/><path id="Path_33" class="cls-1" d="M287.43,18.47h-.4c-4.49,0-8.12,3.65-8.11,8.14l.04,36.96c.06,5.79-2.2,11.36-6.26,15.48-3.28,3.35-7.63,5.45-12.3,5.93-7.47,.77-14.8-2.4-19.35-8.36-2.73-3.6-4.18-8.01-4.1-12.52l-.04-37.9c0-4.25-3.44-7.69-7.69-7.7-4.46-.01-8.08,3.59-8.1,8.04,0,.02,0,.04,0,.06l.04,37.52c-.16,9.8,3.73,19.22,10.76,26.05,6.82,7.02,16.24,10.91,26.02,10.74,9.79,.16,19.2-3.74,26.01-10.78,7.02-6.83,10.9-16.27,10.72-26.06l-.04-38.35c0-3.99-3.23-7.22-7.22-7.23"/><path id="Path_34" class="cls-2" d="M294.95,25.95c0,4.4-3.55,7.97-7.95,7.98-4.4,0-7.97-3.55-7.98-7.95s3.55-7.97,7.95-7.98c2.12,0,4.15,.83,5.64,2.33,1.49,1.49,2.33,3.52,2.34,5.63"/><path id="Path_35" class="cls-3" d="M213.19,94.34c0,4.4-3.56,7.96-7.95,7.96s-7.96-3.56-7.96-7.95c0-4.4,3.56-7.96,7.95-7.96,2.11,0,4.14,.84,5.63,2.33,1.49,1.49,2.33,3.52,2.33,5.63"/><path id="Path_36" class="cls-1" d="M120.35,18.83c-6.81-7.03-16.24-10.92-26.03-10.74-9.78-.14-19.19,3.76-26.01,10.78-7.01,6.84-10.9,16.27-10.74,26.07l.02,27.93c-.58,4.72-2.71,9.12-6.06,12.49-3.28,3.35-7.64,5.45-12.31,5.93-7.47,.76-14.79-2.41-19.35-8.37-2.73-3.6-4.17-8-4.1-12.52l-.03-29.12c0-4.25-3.44-7.69-7.69-7.7-4.46,.01-8.06,3.63-8.06,8.09l.03,28.75c-.16,9.79,3.74,19.21,10.77,26.03,6.82,7.02,16.24,10.91,26.03,10.74,9.78,.16,19.2-3.74,26-10.78,7.02-6.84,10.9-16.27,10.73-26.06l-.03-28.47c.69-5.08,3.25-9.71,7.17-13.01,3.24-2.85,7.31-4.58,11.61-4.93,7.19-.75,14.25,2.3,18.64,8.04,2.9,3.64,4.45,8.18,4.39,12.83v27.91c0,3.63,2.19,6.91,5.55,8.3,1.09,.45,2.26,.68,3.44,.68,3.75,0,6.78-3.05,6.78-6.79h0l-.03-30.03c.2-9.8-3.68-19.25-10.72-26.08"/><path id="Path_37" class="cls-2" d="M7.87,33.36c-4.34,.03-7.82,3.57-7.79,7.91,.03,4.34,3.57,7.82,7.91,7.79,4.34-.03,7.82-3.57,7.79-7.91-.01-2.06-.84-4.04-2.3-5.49-1.47-1.51-3.5-2.34-5.61-2.3"/><path id="Path_38" class="cls-1" d="M255.55,19.97c5.51,0,9.99-4.46,9.99-9.98,0-5.51-4.46-9.99-9.98-9.99-5.51,0-9.99,4.46-9.99,9.98h0c0,5.52,4.46,9.99,9.97,9.99"/></g></g></svg>