<?xml version="1.0" encoding="UTF-8"?><svg id="Layer_1" xmlns="http://www.w3.org/2000/svg" viewBox="0 0 335.5 186"><defs><style>.cls-1,.cls-2{fill:#fff;}.cls-3{font-size:41.81px;}.cls-3,.cls-4{fill:#72d6c3;}.cls-3,.cls-5{font-family:RB-Regular, RB;}.cls-2{font-size:64.56px;}.cls-6{font-family:RB-Bold, RB;}.cls-7{fill:#5aa0e5;}.cls-8{fill:#26757f;}.cls-9{fill:#3c7fcc;}.cls-10{fill:#36b8a0;}</style></defs><path class="cls-7" d="M324.73,119.69l-3.04,22.59c-.28,2.06-1.63,3.82-3.55,4.61l-71.8,29.78c-1.27,.53-2.68,.59-3.99,.18h0c-3.99-1.25-5.4-6.17-2.7-9.35l50.22-59.05c1.47-1.72,3.79-2.44,5.98-1.85l24.62,6.69c2.83,.77,4.64,3.51,4.25,6.41Z"/><path class="cls-9" d="M269.87,74.67l13.12,21.96c1.06,1.78,.96,4.01-.26,5.68l-49.3,67.71c-1.14,1.56-3.06,2.36-4.97,2.06h0c-3.28-.51-5.23-3.95-3.99-7.03l36.17-89.67c1.6-3.95,7.03-4.38,9.21-.72Z"/><path class="cls-4" d="M256.33,59.43l-36.21,110.54c-.43,1.32-1.78,2.12-3.14,1.86h0c-1.36-.26-2.33-1.48-2.26-2.86l6.17-122.67c.08-1.58,1.46-2.77,3.03-2.62l18.17,1.74c1.68,.16,3.25,.9,4.44,2.09l9.12,9.1c.74,.74,1,1.83,.68,2.82Z"/><path class="cls-10" d="M211.05,168.81l.95-126.83c0-.97-.45-1.88-1.22-2.46l-20.54-15.33c-2.17-1.62-5.21,.18-4.84,2.86l19.59,142.16c.22,1.57,1.6,2.71,3.18,2.63h0c1.61-.08,2.87-1.41,2.89-3.02Z"/><path class="cls-8" d="M203.11,174.18L175.91,17.06c-.16-.93-.87-1.68-1.79-1.88l-16.07-3.58c-.56-.12-1.14-.04-1.64,.24l-14.14,7.83c-1.01,.56-1.46,1.78-1.06,2.87l57.4,152.87c.63,1.67,2.82,2.05,3.97,.69h0c.45-.53,.64-1.23,.52-1.91Z"/><path class="cls-1" d="M188.24,166.43h0c-.08-.08-.15-.17-.21-.27L121.68,60.19c-.58-.92-.87-2-.83-3.09l.41-13.03c.05-1.57,1.06-2.95,2.55-3.47l12.61-2.62c1.54-.32,3.1,.51,3.69,1.97l50.6,124.86c.62,1.52-1.3,2.79-2.46,1.63Z"/><text class="cls-2" transform="translate(-8.49 120.17)"><tspan class="cls-5" x="0" y="0"> </tspan><tspan class="cls-6" x="14.07" y="0">ىون</tspan></text><text class="cls-3" transform="translate(10.72 172.08)"><tspan x="0" y="0">Nawa</tspan></text></svg>