<svg xmlns="http://www.w3.org/2000/svg" width="658.503" height="498.134" viewBox="0 0 658.503 498.134">
  <path id="Path_799" data-name="Path 799" d="M938.973,261.38a184.779,184.779,0,0,0-260.973.2,178.6,178.6,0,0,0-53.842,130.736l.117,140.1a107.512,107.512,0,0,1-30.393,62.656,100.785,100.785,0,0,1-61.718,29.763A108.407,108.407,0,0,1,435.1,582.859a101.234,101.234,0,0,1-20.566-62.78l-.151-146.029a38.62,38.62,0,0,0-38.57-38.618A40.528,40.528,0,0,0,335.4,376.009l.157,144.193A184.134,184.134,0,0,0,520.1,704.6,184.1,184.1,0,0,0,704.292,519.847l-.137-142.769a103.5,103.5,0,0,1,35.968-65.231,100.677,100.677,0,0,1,58.232-24.716,103.983,103.983,0,0,1,93.474,40.33,101.511,101.511,0,0,1,22.018,64.354V531.8a44.979,44.979,0,0,0,45.063,45.021A34.027,34.027,0,0,0,992.9,542.761v-.041l-.158-150.555a177.274,177.274,0,0,0-53.76-130.777" transform="translate(-334.895 -206.998)" fill="none" stroke="#085566" stroke-miterlimit="10" stroke-width="1"/>
</svg>
