<svg xmlns="http://www.w3.org/2000/svg" xmlns:xlink="http://www.w3.org/1999/xlink" width="154.58" height="65.648" viewBox="0 0 154.58 65.648">
  <defs>
    <clipPath id="clip-path">
      <rect id="Rectangle_3" data-name="Rectangle 3" width="154.58" height="56.119" fill="none"/>
    </clipPath>
  </defs>
  <g id="Group_75" data-name="Group 75" transform="translate(-1006 -576)">
    <path id="Path_804" data-name="Path 804" d="M-9.976-7.9V0L-19.16.016A3.5,3.5,0,0,1-21.8-.96a3.681,3.681,0,0,1-.944-2.672,4.45,4.45,0,0,1,.408-1.952,5.006,5.006,0,0,1,1.192-1.552l1.632,1.152a3.914,3.914,0,0,0-.864,1.128,2.762,2.762,0,0,0-.272,1.208,1.733,1.733,0,0,0,.44,1.256,1.665,1.665,0,0,0,1.256.456h6.88V-7.9Zm-4.857-1.132a.968.968,0,0,1-.731-.305,1.058,1.058,0,0,1-.291-.76,1.052,1.052,0,0,1,.291-.767.98.98,0,0,1,.731-.3,1,1,0,0,1,.746.3,1.052,1.052,0,0,1,.291.767,1.044,1.044,0,0,1-.3.76A.991.991,0,0,1-14.833-9.036Zm-2.576,0a.968.968,0,0,1-.731-.305,1.058,1.058,0,0,1-.291-.76,1.052,1.052,0,0,1,.291-.767.98.98,0,0,1,.731-.3,1,1,0,0,1,.746.3,1.052,1.052,0,0,1,.291.767,1.044,1.044,0,0,1-.3.76A.991.991,0,0,1-17.409-9.036Zm13.849,7.1q.32,0,.32.96Q-3.24,0-3.56,0H-7.512V-11.92h2.08v9.984ZM.088-7.344A4.274,4.274,0,0,1,2.5-5.448a6.537,6.537,0,0,1,.88,3.512V0H-3.56q-.32,0-.32-.976,0-.96.32-.96H1.288v-.128A4.068,4.068,0,0,0,.536-4.688a2.6,2.6,0,0,0-2.144-.928l-1.3-1.36L1.3-11.248l1.312,1.36ZM22.616-7.92v4.528A3.557,3.557,0,0,1,21.808-.84a3.356,3.356,0,0,1-2.52.84A3.652,3.652,0,0,1,16.84-.752,3.7,3.7,0,0,1,14.36,0q-3.408,0-3.44-3.328a5.536,5.536,0,0,1-1.408.176,5.282,5.282,0,0,1-1.456-.192V-.128A3.8,3.8,0,0,1,7.1,2.616a3.588,3.588,0,0,1-2.64,1.032l-.3-1.936a1.77,1.77,0,0,0,1.384-.376A2.035,2.035,0,0,0,5.96-.128V-7.9h2.1V-5.28a5.282,5.282,0,0,0,1.456.192,5.536,5.536,0,0,0,1.408-.176V-7.12H13v3.7a2.942,2.942,0,0,0,.112.936.7.7,0,0,0,.392.432,2.3,2.3,0,0,0,.856.12,2.3,2.3,0,0,0,.856-.12.7.7,0,0,0,.392-.432,2.942,2.942,0,0,0,.112-.936v-3.7h2.1v3.728a5.377,5.377,0,0,1-.128,1.2,2.612,2.612,0,0,0,1.28.256,2.657,2.657,0,0,0,.96-.136.8.8,0,0,0,.464-.448,2.425,2.425,0,0,0,.128-.888V-7.92ZM16.76-13.28a.893.893,0,0,1,.68.28,1,1,0,0,1,.264.712.968.968,0,0,1-.264.7.906.906,0,0,1-.68.272.906.906,0,0,1-.68-.272.968.968,0,0,1-.264-.7A1,1,0,0,1,16.08-13,.893.893,0,0,1,16.76-13.28Zm-1.28,2.192a1.009,1.009,0,0,1,.744.3,1.029,1.029,0,0,1,.3.76,1.056,1.056,0,0,1-.3.768,1,1,0,0,1-.744.3.951.951,0,0,1-.72-.3,1.072,1.072,0,0,1-.288-.768,1.051,1.051,0,0,1,.288-.752A.951.951,0,0,1,15.48-11.088Zm2.576,0a1.009,1.009,0,0,1,.744.3,1.029,1.029,0,0,1,.3.76,1.056,1.056,0,0,1-.3.768,1,1,0,0,1-.744.3.951.951,0,0,1-.72-.3,1.072,1.072,0,0,1-.288-.768,1.051,1.051,0,0,1,.288-.752A.951.951,0,0,1,18.056-11.088Z" transform="translate(1073 638)" fill="#fff"/>
    <g id="Logo_3" transform="translate(1006 576)">
      <g id="Group_3" data-name="Group 3" clip-path="url(#clip-path)">
        <path id="Path_32" data-name="Path 32" d="M54.656,2.033A18.537,18.537,0,0,0,41.027,7.676a18.6,18.6,0,0,0-5.62,13.643A18.536,18.536,0,0,0,41.05,34.945a18.577,18.577,0,0,0,13.639,5.622A18.48,18.48,0,0,0,65.7,37.158V47.368a4.206,4.206,0,0,0,4.234,4.207,4.056,4.056,0,0,0,4.032-4.061l-.027-26.23A18.537,18.537,0,0,0,68.3,7.655,18.584,18.584,0,0,0,54.656,2.033m7.817,27.045a11.047,11.047,0,0,1-7.792,3.238A10.611,10.611,0,0,1,46.905,29.1a11.039,11.039,0,0,1-3.242-7.792,10.6,10.6,0,0,1,3.226-7.792A11.056,11.056,0,0,1,54.681,10.3a10.614,10.614,0,0,1,7.777,3.226,11.047,11.047,0,0,1,3.226,7.792,10.614,10.614,0,0,1-3.211,7.765" transform="translate(37.618 2.16)" fill="#fff"/>
        <path id="Path_33" data-name="Path 33" d="M90.942,4.689h-.21a4.257,4.257,0,0,0-4.251,4.259L86.5,28.294a11.38,11.38,0,0,1-3.279,8.1A10.527,10.527,0,0,1,76.777,39.5a11.32,11.32,0,0,1-10.143-4.379,10.531,10.531,0,0,1-2.151-6.554L64.462,8.729a4.031,4.031,0,0,0-4.03-4.03A4.224,4.224,0,0,0,56.19,8.942l.021,19.641a18.552,18.552,0,0,0,5.643,13.631,19.324,19.324,0,0,0,27.272-.023,18.543,18.543,0,0,0,5.618-13.641L94.725,8.476a3.8,3.8,0,0,0-3.783-3.787" transform="translate(59.699 4.981)" fill="#fff"/>
        <path id="Path_34" data-name="Path 34" d="M79.246,8.731a4.172,4.172,0,1,1-1.225-2.945,4.176,4.176,0,0,1,1.225,2.945" transform="translate(75.334 4.852)" fill="#00b6a1"/>
        <path id="Path_35" data-name="Path 35" d="M58.469,26.089a4.169,4.169,0,1,1-1.223-2.945,4.161,4.161,0,0,1,1.223,2.945" transform="translate(53.259 23.294)" fill="#407fc1"/>
        <path id="Path_36" data-name="Path 36" d="M63.074,7.675a18.508,18.508,0,0,0-13.641-5.62A18.663,18.663,0,0,0,35.8,7.7a18.63,18.63,0,0,0-5.626,13.647l.012,14.621a11.218,11.218,0,0,1-3.176,6.54,10.538,10.538,0,0,1-6.449,3.106,11.334,11.334,0,0,1-10.143-4.381A10.557,10.557,0,0,1,8.27,34.677L8.254,19.435a4.031,4.031,0,0,0-4.03-4.03,4.234,4.234,0,0,0-3.9,2.617A4.218,4.218,0,0,0,0,19.639L.016,34.687A18.541,18.541,0,0,0,5.659,48.316,18.569,18.569,0,0,0,19.3,53.936a18.547,18.547,0,0,0,13.629-5.641,18.577,18.577,0,0,0,5.62-13.643l-.014-14.9A10.8,10.8,0,0,1,42.3,12.943a10.523,10.523,0,0,1,6.082-2.58,10.873,10.873,0,0,1,9.768,4.209,10.585,10.585,0,0,1,2.3,6.717V35.9a4.7,4.7,0,0,0,4.709,4.7,3.553,3.553,0,0,0,3.552-3.56l-.017-15.714A18.49,18.49,0,0,0,63.074,7.675" transform="translate(0 2.183)" fill="#fff"/>
        <path id="Path_37" data-name="Path 37" d="M4.1,8.468a4.112,4.112,0,1,0,2.939,1.2A3.989,3.989,0,0,0,4.1,8.468" transform="translate(0.025 8.995)" fill="#00b6a1"/>
        <path id="Path_38" data-name="Path 38" d="M67.631,10.452A5.226,5.226,0,1,0,62.4,5.226a5.228,5.228,0,0,0,5.226,5.226" transform="translate(66.302 0)" fill="#fff"/>
      </g>
    </g>
  </g>
</svg>
