<svg xmlns="http://www.w3.org/2000/svg" xmlns:xlink="http://www.w3.org/1999/xlink" width="154.58" height="66.037" viewBox="0 0 154.58 66.037">
  <defs>
    <clipPath id="clip-path">
      <rect id="Rectangle_3" data-name="Rectangle 3" width="154.58" height="56.119" fill="none"/>
    </clipPath>
  </defs>
  <g id="Group_87" data-name="Group 87" transform="translate(-1006 -275.627)">
    <path id="Path_802" data-name="Path 802" d="M-14.84-1.936q.32,0,.32.96,0,.976-.32.976H-15.3A3.113,3.113,0,0,1-18.04-1.136a6.238,6.238,0,0,1-2.64.624,4.349,4.349,0,0,1-2.128-.536A4.158,4.158,0,0,1-24.36-2.5a3.767,3.767,0,0,1-.576-2.04,3.779,3.779,0,0,1,.576-2.032A4.121,4.121,0,0,1-22.8-8.04a4.394,4.394,0,0,1,2.136-.536,6.208,6.208,0,0,1,2.048.368v-.336h2.1v5.136a1.685,1.685,0,0,0,.3,1.136,1.478,1.478,0,0,0,1.12.336Zm-5.776-.512A4.01,4.01,0,0,0-18.6-3.04a2.759,2.759,0,0,1-.016-.352V-6.08a3.792,3.792,0,0,0-.976-.416,3.885,3.885,0,0,0-1.024-.144,2.3,2.3,0,0,0-1.12.28,2.132,2.132,0,0,0-.808.76,1.973,1.973,0,0,0-.3,1.056,1.973,1.973,0,0,0,.3,1.056,2.132,2.132,0,0,0,.808.76A2.3,2.3,0,0,0-20.616-2.448Zm1.255-7.308a.968.968,0,0,1-.731-.305,1.058,1.058,0,0,1-.291-.76,1.052,1.052,0,0,1,.291-.767.98.98,0,0,1,.731-.3,1,1,0,0,1,.746.3,1.052,1.052,0,0,1,.291.767,1.044,1.044,0,0,1-.3.76A.991.991,0,0,1-19.361-9.756Zm-2.576,0a.968.968,0,0,1-.731-.305,1.058,1.058,0,0,1-.291-.76,1.052,1.052,0,0,1,.291-.767.98.98,0,0,1,.731-.3,1,1,0,0,1,.746.3,1.052,1.052,0,0,1,.291.767,1.044,1.044,0,0,1-.3.76A.991.991,0,0,1-21.937-9.756ZM-9.72-8.56A4.024,4.024,0,0,1-7.088-7.552,6.643,6.643,0,0,1-5.2-4.816,9.221,9.221,0,0,1-4.6-1.04a10.836,10.836,0,0,1-2.392.776A11.7,11.7,0,0,1-9.32,0a7.209,7.209,0,0,1-3.024-.672A3.027,3.027,0,0,1-14.36,0h-.48q-.32,0-.32-.976,0-.96.32-.96h.224a1.155,1.155,0,0,0,.776-.24,1.194,1.194,0,0,0,.36-.752l.048-.416a16.7,16.7,0,0,1,.456-2.32A5.112,5.112,0,0,1-11.9-7.648,2.716,2.716,0,0,1-9.72-8.56ZM-11.4-2.432a5.485,5.485,0,0,0,1.04.376,4.479,4.479,0,0,0,1.056.12,9.207,9.207,0,0,0,2.56-.4,6.963,6.963,0,0,0-.576-2.12A4.964,4.964,0,0,0-8.384-6.024a1.82,1.82,0,0,0-1.24-.584,1.094,1.094,0,0,0-.976.568,3.737,3.737,0,0,0-.488,1.288q-.136.72-.248,1.728-.016.208-.032.352T-11.4-2.432Zm18.032.5q.32,0,.32.96,0,.976-.32.976H4.872A3.657,3.657,0,0,1,3.84,2.68a3.788,3.788,0,0,1-2.712.984L.824,1.7a3,3,0,0,0,.352.016,1.6,1.6,0,0,0,1.2-.4A1.905,1.905,0,0,0,2.776,0H1.08A4.747,4.747,0,0,1-1.168-.544a4.269,4.269,0,0,1-1.64-1.5,3.829,3.829,0,0,1-.608-2.1,3.869,3.869,0,0,1,.608-2.112,4.371,4.371,0,0,1,1.64-1.52,4.638,4.638,0,0,1,2.248-.56,5.871,5.871,0,0,1,1.872.328,6.952,6.952,0,0,1,1.76.872l.16.064v5.136ZM-1.32-4.144a2.1,2.1,0,0,0,.312,1.128,2.177,2.177,0,0,0,.864.792,2.675,2.675,0,0,0,1.256.288H2.776V-5.984A3.831,3.831,0,0,0,1.112-6.4a2.56,2.56,0,0,0-1.256.3,2.274,2.274,0,0,0-.864.816A2.141,2.141,0,0,0-1.32-4.144ZM15.608-1.936q.32,0,.32.96,0,.976-.32.976H6.632q-.32,0-.32-.976,0-.96.32-.96H11.48v-.128a4.068,4.068,0,0,0-.752-2.624,2.6,2.6,0,0,0-2.144-.928l-1.3-1.36L11.5-11.248l1.312,1.36L10.28-7.344a4.274,4.274,0,0,1,2.416,1.9,6.537,6.537,0,0,1,.88,3.512Zm9.12,0L24.424,0H15.608q-.32,0-.32-.976,0-.96.32-.96h6.384V-4.048a2.417,2.417,0,0,0-.752-1.864,2.828,2.828,0,0,0-2-.7,4.279,4.279,0,0,0-2.576.864l-.912-1.792A6.294,6.294,0,0,1,19.24-8.56a5.315,5.315,0,0,1,2.5.576,4.3,4.3,0,0,1,1.728,1.608,4.41,4.41,0,0,1,.624,2.328v2.112Z" transform="translate(1073 338)" fill="#00b6a1"/>
    <g id="Logo_3" transform="translate(1006 275.627)">
      <g id="Group_3" data-name="Group 3" clip-path="url(#clip-path)">
        <path id="Path_32" data-name="Path 32" d="M54.656,2.033A18.537,18.537,0,0,0,41.027,7.676a18.6,18.6,0,0,0-5.62,13.643A18.536,18.536,0,0,0,41.05,34.945a18.577,18.577,0,0,0,13.639,5.622A18.48,18.48,0,0,0,65.7,37.158V47.368a4.206,4.206,0,0,0,4.234,4.207,4.056,4.056,0,0,0,4.032-4.061l-.027-26.23A18.537,18.537,0,0,0,68.3,7.655,18.584,18.584,0,0,0,54.656,2.033m7.817,27.045a11.047,11.047,0,0,1-7.792,3.238A10.611,10.611,0,0,1,46.905,29.1a11.039,11.039,0,0,1-3.242-7.792,10.6,10.6,0,0,1,3.226-7.792A11.056,11.056,0,0,1,54.681,10.3a10.614,10.614,0,0,1,7.777,3.226,11.047,11.047,0,0,1,3.226,7.792,10.614,10.614,0,0,1-3.211,7.765" transform="translate(37.618 2.16)" fill="#085566"/>
        <path id="Path_33" data-name="Path 33" d="M90.942,4.689h-.21a4.257,4.257,0,0,0-4.251,4.259L86.5,28.294a11.38,11.38,0,0,1-3.279,8.1A10.527,10.527,0,0,1,76.777,39.5a11.32,11.32,0,0,1-10.143-4.379,10.531,10.531,0,0,1-2.151-6.554L64.462,8.729a4.031,4.031,0,0,0-4.03-4.03A4.224,4.224,0,0,0,56.19,8.942l.021,19.641a18.552,18.552,0,0,0,5.643,13.631,19.324,19.324,0,0,0,27.272-.023,18.543,18.543,0,0,0,5.618-13.641L94.725,8.476a3.8,3.8,0,0,0-3.783-3.787" transform="translate(59.699 4.981)" fill="#085566"/>
        <path id="Path_34" data-name="Path 34" d="M79.246,8.731a4.172,4.172,0,1,1-1.225-2.945,4.176,4.176,0,0,1,1.225,2.945" transform="translate(75.334 4.852)" fill="#00b6a1"/>
        <path id="Path_35" data-name="Path 35" d="M58.469,26.089a4.169,4.169,0,1,1-1.223-2.945,4.161,4.161,0,0,1,1.223,2.945" transform="translate(53.259 23.294)" fill="#407fc1"/>
        <path id="Path_36" data-name="Path 36" d="M63.074,7.675a18.508,18.508,0,0,0-13.641-5.62A18.663,18.663,0,0,0,35.8,7.7a18.63,18.63,0,0,0-5.626,13.647l.012,14.621a11.218,11.218,0,0,1-3.176,6.54,10.538,10.538,0,0,1-6.449,3.106,11.334,11.334,0,0,1-10.143-4.381A10.557,10.557,0,0,1,8.27,34.677L8.254,19.435a4.031,4.031,0,0,0-4.03-4.03,4.234,4.234,0,0,0-3.9,2.617A4.218,4.218,0,0,0,0,19.639L.016,34.687A18.541,18.541,0,0,0,5.659,48.316,18.569,18.569,0,0,0,19.3,53.936a18.547,18.547,0,0,0,13.629-5.641,18.577,18.577,0,0,0,5.62-13.643l-.014-14.9A10.8,10.8,0,0,1,42.3,12.943a10.523,10.523,0,0,1,6.082-2.58,10.873,10.873,0,0,1,9.768,4.209,10.585,10.585,0,0,1,2.3,6.717V35.9a4.7,4.7,0,0,0,4.709,4.7,3.553,3.553,0,0,0,3.552-3.56l-.017-15.714A18.49,18.49,0,0,0,63.074,7.675" transform="translate(0 2.183)" fill="#085566"/>
        <path id="Path_37" data-name="Path 37" d="M4.1,8.468a4.112,4.112,0,1,0,2.939,1.2A3.989,3.989,0,0,0,4.1,8.468" transform="translate(0.025 8.995)" fill="#00b6a1"/>
        <path id="Path_38" data-name="Path 38" d="M67.631,10.452A5.226,5.226,0,1,0,62.4,5.226a5.228,5.228,0,0,0,5.226,5.226" transform="translate(66.302 0)" fill="#085566"/>
      </g>
    </g>
  </g>
</svg>
