<svg xmlns="http://www.w3.org/2000/svg" xmlns:xlink="http://www.w3.org/1999/xlink" width="154.582" height="65.648" viewBox="0 0 154.582 65.648">
  <defs>
    <clipPath id="clip-path">
      <rect id="Rectangle_1" data-name="Rectangle 1" width="154.582" height="56.746" transform="translate(0 0)" fill="none"/>
    </clipPath>
  </defs>
  <g id="Group_71" data-name="Group 71" transform="translate(-1006 -301)">
    <path id="Path_801" data-name="Path 801" d="M-14.456-9.456A8.113,8.113,0,0,1-11.08-7.864,7.956,7.956,0,0,1-8.832-4.952,9.76,9.76,0,0,1-7.976-1.04,13.771,13.771,0,0,1-13.5,0a15.474,15.474,0,0,1-3.1-.3v-2a12.825,12.825,0,0,0,3.12.368,12.5,12.5,0,0,0,3.28-.416A6.967,6.967,0,0,0-11.784-5.76,5.614,5.614,0,0,0-14.9-7.568Zm8.64-2.464h2.08V0h-2.08Zm8.4,9.984q.32,0,.32.96Q2.9,0,2.584,0H.856A3.7,3.7,0,0,1-.136,2.648a3.612,3.612,0,0,1-2.608,1l-.3-1.936a1.77,1.77,0,0,0,1.384-.376A2.035,2.035,0,0,0-1.24-.128V-7.9h2.1v5.968Zm5.744-6.4a7.656,7.656,0,0,1,3.44.944V0H2.584q-.32,0-.32-.976,0-.96.32-.96h1.84a3.9,3.9,0,0,1-.608-2.128A4.032,4.032,0,0,1,4.424-6.24a4.328,4.328,0,0,1,1.64-1.536A4.67,4.67,0,0,1,8.328-8.336ZM5.912-4.08A2.134,2.134,0,0,0,6.384-2.7a2.181,2.181,0,0,0,1.272.76H9.672V-6.16A3.839,3.839,0,0,0,8.344-6.4,2.426,2.426,0,0,0,6.6-5.744,2.2,2.2,0,0,0,5.912-4.08Zm2.432-5.6a1.091,1.091,0,0,1-.824-.344,1.192,1.192,0,0,1-.328-.856,1.185,1.185,0,0,1,.328-.864,1.1,1.1,0,0,1,.824-.336,1.123,1.123,0,0,1,.84.336,1.185,1.185,0,0,1,.328.864,1.176,1.176,0,0,1-.336.856A1.117,1.117,0,0,1,8.344-9.68Zm5.44-2.24h2.08V0h-2.08Zm2.784-2v1.2H13.08v-1.2h.32a1.583,1.583,0,0,1-.112-.608,1.51,1.51,0,0,1,.52-1.192,1.929,1.929,0,0,1,1.32-.456,3.14,3.14,0,0,1,.68.08,2.683,2.683,0,0,1,.616.208l-.512,1.12a1.111,1.111,0,0,0-.352-.128,1.994,1.994,0,0,0-.416-.048.829.829,0,0,0-.528.152.449.449,0,0,0-.192.36.487.487,0,0,0,.144.344.541.541,0,0,0,.368.168Z" transform="translate(1073 363)" fill="#fff"/>
    <g id="Logo_1" transform="translate(1006 301)">
      <g id="Group_1" data-name="Group 1" transform="translate(0 0)" clip-path="url(#clip-path)">
        <path id="Path_1" data-name="Path 1" d="M91.469,4.2a19.527,19.527,0,1,0,11.159,35.611V50.152a4.261,4.261,0,0,0,4.26,4.262h0A4.107,4.107,0,0,0,111,50.307V23.733A19.5,19.5,0,0,0,91.537,4.2h-.068m7.892,27.414a11.2,11.2,0,0,1-7.9,3.271,10.754,10.754,0,0,1-7.876-3.261,11.2,11.2,0,0,1-3.277-7.9,10.75,10.75,0,0,1,3.265-7.88,11.2,11.2,0,0,1,7.9-3.273,10.757,10.757,0,0,1,7.879,3.264,11.2,11.2,0,0,1,3.274,7.9A10.75,10.75,0,0,1,99.36,31.62Z" fill="#fff"/>
        <path id="Path_2" data-name="Path 2" d="M111.07,50.235a4.225,4.225,0,1,1-4.225-4.225h0a4.225,4.225,0,0,1,4.224,4.225" fill="#2bb69f"/>
        <path id="Path_3" data-name="Path 3" d="M150.6,9.807h-.212a4.313,4.313,0,0,0-4.312,4.312v19.6a11.531,11.531,0,0,1-3.331,8.228,10.677,10.677,0,0,1-6.533,3.141,11.478,11.478,0,0,1-10.274-4.449A10.686,10.686,0,0,1,123.765,34V13.9a4.083,4.083,0,0,0-4.084-4.084A4.285,4.285,0,0,0,115.4,14.1V34a19.527,19.527,0,1,0,39.053.278c0-.092,0-.185,0-.278V13.649A3.846,3.846,0,0,0,150.6,9.807" fill="#fff"/>
        <path id="Path_4" data-name="Path 4" d="M154.582,13.786a4.225,4.225,0,1,1-4.226-4.224h0a4.225,4.225,0,0,1,4.225,4.224" fill="#3c7ccc"/>
        <path id="Path_5" data-name="Path 5" d="M63.923,9.916A19.527,19.527,0,0,0,30.579,23.733V38.546a11.355,11.355,0,0,1-3.225,6.622,10.674,10.674,0,0,1-6.533,3.141,11.474,11.474,0,0,1-10.273-4.448,10.692,10.692,0,0,1-2.179-6.643V21.776a4.083,4.083,0,0,0-4.084-4.084A4.284,4.284,0,0,0,0,21.977V37.219A19.54,19.54,0,0,0,33.344,51.036a18.823,18.823,0,0,0,5.709-13.817v-15.1a10.883,10.883,0,0,1,3.827-6.9,10.655,10.655,0,0,1,6.166-2.607,11.018,11.018,0,0,1,9.893,4.276,10.726,10.726,0,0,1,2.324,6.8v14.8a4.765,4.765,0,0,0,4.765,4.765,3.6,3.6,0,0,0,3.6-3.6V23.733a18.825,18.825,0,0,0-5.7-13.817" fill="#fff"/>
        <path id="Path_6" data-name="Path 6" d="M4.185,17.563a4.167,4.167,0,1,0,2.964,1.221,4.042,4.042,0,0,0-2.964-1.221" fill="#3c7ccc"/>
        <path id="Path_7" data-name="Path 7" d="M133.68,0a5.3,5.3,0,1,1-5.295,5.3A5.3,5.3,0,0,1,133.68,0" fill="#fff"/>
      </g>
    </g>
  </g>
</svg>
