<?xml version="1.0" encoding="UTF-8"?><svg id="Layer_1" xmlns="http://www.w3.org/2000/svg" viewBox="0 0 286.14 77.36"><defs><style>.cls-1{fill:#015363;}.cls-2{fill:#72d6c3;}.cls-3{fill:#5aa0e5;}.cls-4{fill:#aaa;}.cls-5{fill:#afafaf;}.cls-6{fill:#26757f;}.cls-7{fill:#3c7fcc;}.cls-8{fill:#36b8a0;}</style></defs><g><path class="cls-4" d="M157.95,26.91c-.6-.47-1.19-.86-1.74-1.16-.56-.3-1.32-.66-2.3-1.09-1.66-.76-2.73-1.28-3.2-1.57-.48-.29-.71-.59-.71-.93,1.09-.29,2.33-.43,3.7-.43s2.97,.19,4.77,.57l.25-.11v-5.31c-1.4-.45-2.9-.68-4.49-.68-2.68,0-5.1,.57-7.26,1.71-.93,1.69-1.39,3.38-1.39,5.09,0,1.26,.4,2.29,1.21,3.08,.81,.8,2.03,1.55,3.67,2.26,2.92,1.28,4.51,2.2,4.77,2.74-2.14,.81-4.81,1.21-8.01,1.21s-5.52-.52-7.01-1.57c-1.5-1.04-2.24-2.69-2.24-4.95,0-1.26,.24-2.66,.71-4.2l-.25-.25-3.88,.75c-.67,1.64-1,3.51-1,5.63,0,3.25,1.09,5.75,3.26,7.49,2.17,1.75,5.18,2.62,9.03,2.62,2.47,0,4.86-.3,7.17-.91,2.31-.6,4.23-1.36,5.75-2.26,.62-1.47,.93-2.88,.93-4.24,0-.74-.14-1.39-.41-1.96s-.71-1.09-1.32-1.57v.04Z"/><polygon class="cls-4" points="191.01 12.85 187.94 9.14 183.92 12.45 187.05 16.16 191.01 12.85"/><path class="cls-4" d="M185.31,28.8h-6.48c-.19-1.99-.58-3.82-1.17-5.47-.59-1.65-1.47-3.04-2.62-4.18s-2.47-1.71-3.97-1.71c-1.83,0-3.51,1.07-5.04,3.2-1.53,2.14-2.62,4.88-3.26,8.22,1.31,1.54,2.94,2.8,4.91,3.76s4.15,1.56,6.55,1.8c-.24,1.07-.72,1.82-1.44,2.24-.72,.43-1.79,.64-3.19,.64-1.8,0-3.67-.3-5.59-.89l-.32,.28,.57,4.7c1.71,.78,3.32,1.17,4.84,1.17,5.46,0,8.65-2.69,9.58-8.08h11.61v-15.74h-4.98v10.06Zm-17.84-2.17c.38-1.09,.85-1.93,1.42-2.53,.57-.59,1.1-.89,1.6-.89,.9,0,1.69,.49,2.37,1.48,.68,.98,1.14,2.34,1.41,4.08-2.78-.17-5.04-.88-6.8-2.14h0Z"/></g><g><path class="cls-4" d="M147.04,58.68c0,1.29,.05,2.41,.14,3.34l-.14,.02c-.23-.51-.82-1.5-1.77-2.97l-6.32-9.5h-2.33v16.14h2.14v-9.08c0-1.18-.04-2.29-.12-3.32l.14-.02c.31,.68,.9,1.67,1.77,2.97l6.32,9.45h2.33v-16.14h-2.17v9.11h0Z"/><path class="cls-4" d="M161.43,58.18c0-1.52-.34-2.59-1.01-3.22-.68-.62-1.76-.93-3.25-.93-1.35,0-2.81,.22-4.38,.67v1.96l.16,.09c1.49-.45,2.77-.67,3.85-.67,.81,0,1.42,.19,1.82,.56,.4,.38,.6,1,.6,1.88v.81c-2.64,.06-4.8,.31-6.46,.74-.45,.85-.67,1.71-.67,2.61,0,1.08,.34,1.91,1.03,2.5,.68,.59,1.65,.89,2.89,.89s2.4-.37,3.41-1.11c.08,.28,.17,.53,.28,.76h2.21l.09-.21c-.38-.85-.58-1.76-.58-2.74v-4.59h0Zm-2.21,5.3c-.95,.54-1.87,.81-2.74,.81-1.48,0-2.21-.63-2.21-1.89,0-.42,.08-.81,.25-1.18,1.21-.21,2.78-.36,4.7-.44v2.7h0Z"/><polygon class="cls-4" points="175.88 63.48 173.46 54.32 170.58 54.32 168.02 63.48 165.58 54.32 163.11 54.32 166.36 65.71 169.36 65.71 171.8 56.91 174.2 65.71 177.31 65.71 180.73 54.32 178.44 54.32 175.88 63.48"/><path class="cls-4" d="M190.82,62.76v-4.59c0-1.52-.34-2.59-1.01-3.22-.68-.62-1.76-.93-3.25-.93-1.35,0-2.81,.22-4.38,.67v1.96l.16,.09c1.49-.45,2.77-.67,3.85-.67,.81,0,1.42,.19,1.82,.56,.4,.38,.6,1,.6,1.88v.81c-2.64,.06-4.8,.31-6.46,.74-.45,.85-.67,1.71-.67,2.61,0,1.08,.34,1.91,1.03,2.5,.68,.59,1.65,.89,2.89,.89s2.4-.37,3.41-1.11c.08,.28,.17,.53,.28,.76h2.21l.09-.21c-.38-.85-.58-1.76-.58-2.74h0Zm-2.21,.71c-.95,.54-1.87,.81-2.74,.81-1.48,0-2.21-.63-2.21-1.89,0-.42,.08-.81,.25-1.18,1.21-.21,2.78-.36,4.7-.44v2.7h0Z"/></g><rect class="cls-5" x="117.8" y="5.92" width="3.86" height="65.07"/><g><path class="cls-3" d="M275.4,46.95l-1.12,8.31c-.1,.76-.6,1.4-1.31,1.7l-26.41,10.95c-.47,.19-.99,.22-1.47,.07h0c-1.47-.46-1.99-2.27-.99-3.44l18.48-21.72c.54-.63,1.4-.9,2.2-.68l9.06,2.46c1.04,.28,1.71,1.29,1.56,2.36Z"/><path class="cls-7" d="M255.22,30.39l4.83,8.08c.39,.65,.35,1.48-.09,2.09l-18.14,24.91c-.42,.58-1.12,.87-1.83,.76h0c-1.21-.19-1.92-1.45-1.47-2.59l13.31-32.99c.59-1.45,2.59-1.61,3.39-.26Z"/><path class="cls-2" d="M250.24,24.78l-13.32,40.66c-.16,.49-.65,.78-1.16,.68h0c-.5-.09-.86-.54-.83-1.05l2.27-45.13c.03-.58,.54-1.02,1.12-.96l6.68,.64c.62,.06,1.2,.33,1.63,.77l3.36,3.35c.27,.27,.37,.67,.25,1.04Z"/><path class="cls-8" d="M233.58,65.02l.35-46.66c0-.36-.16-.69-.45-.91l-7.56-5.64c-.8-.59-1.92,.07-1.78,1.05l7.21,52.3c.08,.58,.59,1,1.17,.97h0c.59-.03,1.06-.52,1.06-1.11Z"/><path class="cls-6" d="M230.66,66.99l-10-57.8c-.06-.34-.32-.62-.66-.69l-5.91-1.32c-.21-.05-.42-.01-.6,.09l-5.2,2.88c-.37,.21-.54,.66-.39,1.05l21.12,56.24c.23,.61,1.04,.75,1.46,.25h0c.16-.19,.23-.45,.19-.7Z"/><path class="cls-1" d="M225.18,64.15h0s-.06-.06-.08-.1l-24.41-38.99c-.21-.34-.32-.73-.31-1.14l.15-4.79c.02-.58,.39-1.09,.94-1.28l4.64-.97c.57-.12,1.14,.19,1.36,.72l18.62,45.93c.23,.56-.48,1.03-.9,.6Z"/></g><g><rect class="cls-5" x="12.4" y="50.16" width="2.35" height="16.14"/><path class="cls-5" d="M24.57,54.59c-1.23,0-2.48,.4-3.76,1.2l-.21-.88h-1.98v11.39h2.31v-8.46c.97-.75,1.98-1.13,3.04-1.13,1.46,0,2.19,.67,2.19,2.01v7.58h2.31v-8.05c0-2.44-1.3-3.67-3.9-3.67Z"/><path class="cls-5" d="M41.27,49.01h-2.31v6.02c-.78-.29-1.71-.44-2.77-.44-1.31,0-2.52,.29-3.64,.88-.4,.63-.73,1.45-.98,2.47s-.38,2.06-.38,3.14c0,1.83,.41,3.22,1.22,4.16,.81,.95,1.99,1.42,3.53,1.42,1.18,0,2.27-.35,3.25-1.04,.05,.15,.13,.38,.25,.69h2.28l.09-.21c-.37-.89-.55-1.82-.55-2.79v-14.29Zm-2.31,14.82c-.83,.52-1.68,.78-2.54,.78-1.95,0-2.93-1.26-2.93-3.78,0-1.37,.21-2.64,.65-3.83,.68-.26,1.39-.39,2.14-.39,1.03,0,1.92,.16,2.67,.48v6.73Z"/><polygon class="cls-5" points="44.75 51.38 46.52 53.13 48.27 51.38 46.52 49.6 44.75 51.38"/><rect class="cls-5" x="45.37" y="54.91" width="2.31" height="11.39"/><polygon class="cls-5" points="54.96 64.18 52.03 54.91 49.57 54.91 53.37 66.3 56.37 66.3 60.47 54.91 58.19 54.91 54.96 64.18"/><rect class="cls-5" x="62.22" y="54.91" width="2.31" height="11.39"/><polygon class="cls-5" points="61.6 51.38 63.38 53.13 65.13 51.38 63.38 49.6 61.6 51.38"/><path class="cls-5" d="M77.39,49.01h-2.31v6.02c-.78-.29-1.71-.44-2.77-.44-1.31,0-2.52,.29-3.64,.88-.4,.63-.73,1.45-.98,2.47s-.38,2.06-.38,3.14c0,1.83,.41,3.22,1.22,4.16,.81,.95,1.99,1.42,3.53,1.42,1.18,0,2.27-.35,3.25-1.04,.05,.15,.13,.38,.25,.69h2.28l.09-.21c-.37-.89-.55-1.82-.55-2.79v-14.29Zm-2.31,14.82c-.83,.52-1.68,.78-2.54,.78-1.95,0-2.93-1.26-2.93-3.78,0-1.37,.21-2.64,.65-3.83,.68-.26,1.39-.39,2.14-.39,1.03,0,1.92,.16,2.67,.48v6.73Z"/><path class="cls-5" d="M88.97,63.39c-.97,.75-1.98,1.13-3.04,1.13-1.46,0-2.19-.68-2.19-2.03v-7.59h-2.31v8.05c0,2.46,1.3,3.69,3.9,3.69,1.25,0,2.51-.42,3.78-1.25l.18,.9h1.98v-11.39h-2.31v8.48Z"/><path class="cls-5" d="M103.31,58.76c0-1.52-.34-2.59-1.01-3.22-.68-.62-1.76-.93-3.25-.93-1.35,0-2.81,.22-4.38,.67v1.96l.16,.09c1.49-.45,2.77-.67,3.85-.67,.81,0,1.42,.19,1.82,.56,.4,.38,.6,1,.6,1.88v.81c-2.64,.06-4.8,.31-6.46,.74-.45,.85-.67,1.71-.67,2.61,0,1.08,.34,1.91,1.03,2.5,.68,.59,1.65,.89,2.89,.89s2.4-.37,3.41-1.11c.08,.28,.17,.53,.28,.76h2.21l.09-.21c-.38-.85-.58-1.76-.58-2.74v-4.59Zm-2.21,5.3c-.95,.54-1.87,.81-2.74,.81-1.48,0-2.21-.63-2.21-1.89,0-.42,.08-.81,.25-1.18,1.21-.21,2.78-.36,4.7-.44v2.7Z"/><rect class="cls-5" x="106.65" y="49.01" width="2.31" height="17.29"/></g><g><path class="cls-5" d="M48.93,21.1c-1.03-.45-2.26-.67-3.7-.67h-2.19v1.92h2.19c1.17,0,2.1,.17,2.79,.5,.69,.33,1.19,.89,1.5,1.66,.31,.77,.46,1.83,.46,3.16v4.35h-8.34v1.92h10.45v-6.26c0-1.82-.27-3.25-.81-4.31-.54-1.05-1.32-1.8-2.35-2.25Z"/><rect class="cls-5" x="55.65" y="14.57" width="2.08" height="19.36"/><rect class="cls-5" x="96.23" y="15.56" width="2.11" height="2.43"/><path class="cls-5" d="M93.22,21.14c-.87,.48-1.48,1.21-1.84,2.21s-.53,2.27-.53,3.82,.18,2.78,.53,3.69c.17,.45,.41,.83,.71,1.15h-27.13v-11.58h-2.11v13.93c0,1.13-.26,2.02-.78,2.66-.52,.64-1.21,.96-2.05,.96-.16,0-.35-.01-.57-.04-.22-.03-.45-.05-.7-.07l-.24,1.92c.25,.02,.51,.04,.77,.07,.26,.03,.51,.04,.74,.04,.97,0,1.83-.23,2.56-.69,.74-.46,1.32-1.11,1.74-1.94,.42-.84,.63-1.81,.63-2.9v-.43h37.5v-13.5h-5.59c-1.57,0-2.79,.24-3.66,.72Zm1.24,10.49c-.57-.25-.96-.72-1.17-1.42-.22-.69-.32-1.71-.32-3.04s.11-2.34,.32-3.04c.22-.69,.61-1.17,1.17-1.42s1.37-.38,2.42-.38h3.48v9.67h-3.48c-1.04,0-1.85-.13-2.42-.38Z"/><rect class="cls-5" x="106.57" y="14.57" width="2.08" height="19.36"/><path class="cls-5" d="M107.19,11.35s-.01-.02-.01-.03c-.1-.22-.15-.44-.15-.68,0-.38,.12-.68,.36-.92,.24-.23,.57-.35,.99-.35,.14,0,.28,.01,.42,.04,.14,.03,.27,.09,.42,.18l.7-1.21c-.22-.14-.47-.26-.76-.34-.29-.08-.58-.12-.86-.12-.5,0-.97,.12-1.4,.35-.43,.23-.78,.56-1.04,.97-.26,.41-.39,.88-.39,1.4,0,.24,.04,.47,.11,.7h-.62v1.43h5.32v-1.43h-3.08Z"/></g></svg>