<?xml version="1.0" encoding="UTF-8"?><svg id="Logo_3" xmlns="http://www.w3.org/2000/svg" xmlns:xlink="http://www.w3.org/1999/xlink" viewBox="0 0 295 172.9"><defs><style>.cls-1{fill:#00b6a1;}.cls-2{fill:#407fc1;}.cls-3{clip-path:url(#clippath-1);}.cls-4{fill:#085566;}.cls-5{fill:#702e93;}.cls-6{clip-path:url(#clippath);}.cls-7{fill:none;}</style><clipPath id="clippath"><rect class="cls-7" x="8" y="5.9" width="278.7" height="101.3"/></clipPath><clipPath id="clippath-1"><rect class="cls-7" x="8.1" y="5.9" width="278.7" height="101.3"/></clipPath></defs><g class="cls-6"><g id="Group_3"><path id="Path_32" class="cls-4" d="M174.3,13.5c-9.2-.2-18.1,3.5-24.6,10.2-6.6,6.5-10.3,15.4-10.1,24.6-.2,9.3,3.5,18.2,10.2,24.6,6.4,6.6,15.3,10.3,24.6,10.2,7.1,.1,14.1-2,19.9-6.2v18.4c0,4.2,3.4,7.6,7.6,7.6h.1c4,0,7.3-3.3,7.3-7.3V48.2c.2-9.3-3.5-18.2-10.2-24.6-6.6-6.6-15.5-10.3-24.8-10.1m14.1,48.8c-3.7,3.7-8.8,5.8-14.1,5.8-5.3,.1-10.3-2-14-5.8-3.7-3.7-5.8-8.8-5.8-14.1-.1-5.3,2-10.4,5.8-14.1,3.7-3.7,8.8-5.8,14.1-5.8,5.3-.1,10.4,2,14,5.8,3.7,3.7,5.8,8.8,5.8,14.1,.1,5.3-2,10.4-5.8,14.1"/><path id="Path_33" class="cls-4" d="M279.6,23.4h-.4c-4.2,0-7.7,3.4-7.7,7.7v34.9c.1,5.5-2.1,10.7-5.9,14.6-3.1,3.2-7.2,5.2-11.6,5.6-7.1,.7-14-2.3-18.3-7.9-2.6-3.4-3.9-7.6-3.9-11.8V30.7c0-4-3.3-7.3-7.3-7.3-4.2,0-7.6,3.4-7.7,7.6v35.6c-.2,9.3,3.5,18.2,10.2,24.6,6.4,6.6,15.3,10.3,24.6,10.1,9.2,.2,18.1-3.5,24.6-10.2,6.6-6.5,10.3-15.4,10.1-24.6V30.3c.1-3.9-2.9-6.9-6.7-6.9"/><path id="Path_34" class="cls-1" d="M286.7,30.4c0,4.2-3.4,7.5-7.5,7.5s-7.5-3.4-7.5-7.5,3.4-7.5,7.5-7.5c2,0,3.9,.8,5.3,2.2,1.4,1.4,2.2,3.3,2.2,5.3"/><path id="Path_35" class="cls-2" d="M209.4,95.1c0,4.2-3.4,7.5-7.5,7.5s-7.5-3.4-7.5-7.5,3.4-7.5,7.5-7.5c2,0,3.9,.8,5.3,2.2,1.4,1.3,2.2,3.3,2.2,5.3"/><path id="Path_36" class="cls-4" d="M121.7,23.7c-6.4-6.6-15.3-10.3-24.6-10.1-9.2-.1-18.1,3.6-24.6,10.2-6.6,6.5-10.3,15.4-10.1,24.6v26.4c-.5,4.5-2.6,8.6-5.7,11.8-3.1,3.2-7.2,5.2-11.6,5.6-7.1,.7-14-2.3-18.3-7.9-2.6-3.4-3.9-7.6-3.9-11.8v-27.5c0-4-3.3-7.3-7.3-7.3-4.2,0-7.6,3.4-7.6,7.6v27.2c-.2,9.3,3.5,18.2,10.2,24.6,6.4,6.6,15.3,10.3,24.6,10.1,9.2,.2,18.1-3.5,24.6-10.2,6.6-6.5,10.3-15.4,10.1-24.6v-26.9c.7-4.8,3.1-9.2,6.8-12.3,3.1-2.7,6.9-4.3,11-4.7,6.8-.7,13.5,2.2,17.6,7.6,2.7,3.4,4.2,7.7,4.1,12.1v26.4c0,3.4,2.1,6.5,5.2,7.8,1,.4,2.1,.6,3.2,.6,3.5,0,6.4-2.9,6.4-6.4h0v-28.4c.2-9.1-3.5-18.1-10.1-24.5"/><path id="Path_37" class="cls-1" d="M15.4,37.4c-4.1,0-7.4,3.4-7.4,7.5s3.4,7.4,7.5,7.4,7.4-3.4,7.4-7.5c0-1.9-.8-3.8-2.2-5.2s-3.3-2.2-5.3-2.2"/><path id="Path_38" class="cls-4" d="M249.5,24.8c5.2,0,9.4-4.2,9.4-9.4s-4.2-9.4-9.4-9.4-9.4,4.2-9.4,9.4h0c-.1,5.1,4.2,9.4,9.4,9.4"/></g></g><g><path class="cls-5" d="M34.9,130.59c-.12-.04-.27-.08-.47-.11s-.44-.04-.73-.04c-.27,0-.5,.01-.7,.04s-.35,.06-.47,.11-.21,.1-.26,.17-.08,.15-.08,.25v21.83c0,.09,.02,.18,.07,.25s.13,.13,.25,.17,.28,.08,.47,.11,.44,.04,.72,.04,.54-.01,.73-.04,.35-.06,.47-.11,.2-.1,.25-.17,.07-.15,.07-.25v-21.83c0-.09-.02-.18-.07-.25s-.13-.13-.25-.17Z"/><path class="cls-5" d="M53.31,138.21c-.45-.6-1.03-1.08-1.75-1.43s-1.61-.54-2.66-.54c-.9,0-1.8,.23-2.68,.69s-1.77,1.19-2.66,2.19v-2.09c0-.09-.02-.17-.06-.24s-.11-.12-.2-.18-.23-.09-.4-.11-.38-.03-.64-.03-.49,0-.65,.03-.3,.05-.4,.11-.18,.11-.21,.18-.05,.14-.05,.24v15.82c0,.09,.02,.17,.06,.24s.12,.12,.23,.17,.26,.08,.45,.11,.42,.04,.7,.04,.53-.01,.72-.04,.33-.06,.44-.11,.18-.1,.23-.17,.07-.14,.07-.24v-11.06c.8-1,1.56-1.75,2.29-2.27s1.45-.77,2.18-.77c.56,0,1.06,.11,1.48,.32s.78,.52,1.05,.91,.47,.87,.62,1.42,.21,1.28,.21,2.18v9.26c0,.09,.02,.17,.07,.24s.12,.12,.23,.17,.25,.08,.44,.11,.43,.04,.72,.04,.52-.01,.7-.04,.33-.06,.44-.11,.18-.1,.23-.17,.07-.14,.07-.24v-9.65c0-1.12-.1-2.09-.29-2.89s-.51-1.5-.96-2.1Z"/><path class="cls-5" d="M73.08,129.02c-.11-.04-.25-.08-.44-.11s-.43-.04-.72-.04-.51,.01-.7,.04-.33,.06-.45,.11-.2,.1-.24,.18-.06,.16-.06,.24v9.19c-.75-.79-1.51-1.38-2.28-1.78s-1.61-.61-2.54-.61c-1.11,0-2.1,.21-2.95,.62s-1.56,1.01-2.13,1.78-1.01,1.71-1.3,2.8-.44,2.32-.44,3.68c0,1.15,.12,2.24,.35,3.28s.61,1.94,1.12,2.71,1.18,1.38,2,1.83,1.81,.68,2.97,.68c1.07,0,2.05-.25,2.94-.76s1.76-1.21,2.59-2.11v2.09c0,.09,.02,.18,.07,.25s.12,.13,.23,.17,.24,.07,.4,.1,.37,.04,.62,.04,.43-.01,.6-.04,.29-.06,.39-.1,.17-.1,.21-.17,.06-.15,.06-.25v-23.41c0-.08-.03-.16-.08-.24s-.13-.13-.24-.18Zm-2.6,19.03c-.46,.57-.89,1.06-1.3,1.45s-.8,.71-1.18,.96-.74,.42-1.1,.53-.73,.16-1.12,.16c-.76,0-1.39-.18-1.9-.54s-.91-.83-1.21-1.42-.52-1.27-.64-2.03-.18-1.54-.18-2.34c0-.75,.07-1.49,.22-2.21s.38-1.38,.7-1.95,.74-1.04,1.26-1.39,1.14-.53,1.88-.53c.8,0,1.56,.25,2.29,.76s1.49,1.25,2.28,2.22v6.33Z"/><path class="cls-5" d="M80.22,129.96c-.69,0-1.17,.12-1.42,.37s-.39,.71-.39,1.39,.12,1.12,.38,1.36,.72,.36,1.4,.36,1.17-.12,1.42-.37,.39-.71,.39-1.39-.13-1.12-.38-1.36-.72-.36-1.4-.36Z"/><path class="cls-5" d="M81.36,136.62c-.11-.05-.25-.08-.44-.11s-.43-.04-.72-.04-.52,.01-.7,.04-.34,.06-.45,.11-.19,.11-.23,.18-.06,.15-.06,.23v15.82c0,.09,.02,.17,.06,.24s.12,.12,.23,.17,.26,.08,.45,.11,.42,.04,.7,.04,.53-.01,.72-.04,.33-.06,.44-.11,.18-.1,.23-.17,.07-.14,.07-.24v-15.82c0-.08-.02-.16-.07-.23s-.12-.13-.23-.18Z"/><path class="cls-5" d="M99.72,136.59c-.1-.05-.24-.08-.41-.09s-.4-.02-.67-.02c-.32,0-.57,0-.77,.03s-.35,.05-.46,.1-.2,.11-.25,.18-.1,.16-.12,.26l-4.41,13.04-.05,.21-.07-.21-4.46-13.04c-.05-.11-.1-.19-.15-.26s-.13-.13-.25-.18-.27-.08-.47-.1-.48-.03-.82-.03c-.27,0-.5,0-.68,.02s-.33,.04-.44,.08-.19,.1-.24,.17-.07,.15-.07,.25c0,.04,0,.08,0,.13s.02,.13,.05,.24,.07,.23,.12,.37l5.38,15.03c.05,.12,.11,.22,.19,.3s.2,.15,.34,.19,.34,.08,.57,.11,.53,.04,.88,.04,.64,0,.88-.03,.43-.05,.58-.1,.27-.11,.34-.19,.14-.19,.19-.32l5.4-15.03c.02-.08,.04-.16,.06-.23s.03-.13,.04-.19,.02-.11,.03-.17,0-.1,0-.15c0-.09-.02-.17-.06-.24s-.11-.12-.21-.17Z"/><path class="cls-5" d="M104.74,129.96c-.69,0-1.17,.12-1.42,.37s-.39,.71-.39,1.39,.12,1.12,.38,1.36,.72,.36,1.4,.36,1.17-.12,1.42-.37,.39-.71,.39-1.39-.13-1.12-.38-1.36-.72-.36-1.4-.36Z"/><path class="cls-5" d="M105.88,136.62c-.11-.05-.25-.08-.44-.11s-.43-.04-.72-.04-.52,.01-.7,.04-.34,.06-.45,.11-.19,.11-.23,.18-.06,.15-.06,.23v15.82c0,.09,.02,.17,.06,.24s.12,.12,.23,.17,.26,.08,.45,.11,.42,.04,.7,.04,.53-.01,.72-.04,.33-.06,.44-.11,.18-.1,.23-.17,.07-.14,.07-.24v-15.82c0-.08-.02-.16-.07-.23s-.12-.13-.23-.18Z"/><path class="cls-5" d="M124.78,129.02c-.11-.04-.25-.08-.44-.11s-.43-.04-.72-.04-.51,.01-.7,.04-.33,.06-.45,.11-.2,.1-.24,.18-.06,.16-.06,.24v9.19c-.75-.79-1.51-1.38-2.28-1.78s-1.61-.61-2.54-.61c-1.11,0-2.1,.21-2.95,.62s-1.56,1.01-2.13,1.78-1.01,1.71-1.3,2.8-.44,2.32-.44,3.68c0,1.15,.12,2.24,.35,3.28s.61,1.94,1.12,2.71,1.18,1.38,2,1.83,1.81,.68,2.97,.68c1.07,0,2.05-.25,2.94-.76s1.76-1.21,2.59-2.11v2.09c0,.09,.02,.18,.07,.25s.12,.13,.23,.17,.24,.07,.4,.1,.37,.04,.62,.04,.43-.01,.6-.04,.29-.06,.39-.1,.17-.1,.21-.17,.06-.15,.06-.25v-23.41c0-.08-.03-.16-.08-.24s-.13-.13-.24-.18Zm-2.6,19.03c-.46,.57-.89,1.06-1.3,1.45s-.8,.71-1.18,.96-.74,.42-1.1,.53-.73,.16-1.12,.16c-.76,0-1.39-.18-1.9-.54s-.91-.83-1.21-1.42-.52-1.27-.64-2.03-.18-1.54-.18-2.34c0-.75,.07-1.49,.22-2.21s.38-1.38,.7-1.95,.74-1.04,1.26-1.39,1.14-.53,1.88-.53c.8,0,1.56,.25,2.29,.76s1.49,1.25,2.28,2.22v6.33Z"/><path class="cls-5" d="M143.7,136.62c-.11-.05-.25-.09-.44-.11s-.42-.03-.7-.03-.53,0-.71,.03-.33,.05-.45,.11-.2,.11-.24,.18-.06,.14-.06,.24v11.06c-.81,1-1.57,1.75-2.29,2.27s-1.44,.77-2.17,.77c-.56,0-1.05-.11-1.48-.33s-.77-.52-1.05-.91-.48-.87-.62-1.42-.2-1.3-.2-2.22v-9.21c0-.09-.02-.17-.07-.24s-.13-.12-.24-.18-.26-.09-.45-.11-.42-.03-.7-.03-.52,0-.7,.03-.34,.05-.46,.11-.2,.11-.24,.18-.06,.14-.06,.24v9.6c0,1.15,.1,2.12,.29,2.93s.51,1.51,.96,2.11,1.03,1.08,1.75,1.43,1.61,.53,2.66,.53c.9,0,1.79-.23,2.67-.69s1.77-1.18,2.67-2.18v2.09c0,.09,.02,.17,.05,.24s.1,.12,.2,.17,.23,.08,.4,.11,.39,.04,.66,.04c.25,0,.45-.01,.62-.04s.31-.06,.41-.11,.18-.1,.22-.17,.06-.14,.06-.24v-15.82c0-.09-.03-.17-.08-.24s-.13-.12-.24-.18Z"/><path class="cls-5" d="M159.88,137.76c-.49-.5-1.14-.88-1.93-1.13s-1.76-.39-2.9-.39c-.61,0-1.21,.06-1.81,.17s-1.15,.25-1.65,.42-.95,.36-1.34,.56-.66,.38-.82,.54-.26,.31-.3,.48-.06,.4-.06,.69c0,.18,.01,.34,.04,.48s.06,.27,.11,.36,.12,.16,.19,.21,.15,.07,.25,.07c.14,0,.35-.08,.64-.25s.64-.36,1.07-.56,.93-.39,1.49-.56,1.21-.25,1.93-.25c.67,0,1.23,.08,1.69,.24s.83,.39,1.12,.7,.5,.7,.62,1.17,.19,1.01,.19,1.62v1.23h-2.18c-1.23,0-2.34,.11-3.32,.33s-1.82,.54-2.5,.98-1.2,.98-1.56,1.63-.54,1.43-.54,2.32c0,.76,.13,1.44,.39,2.04s.63,1.1,1.11,1.51,1.05,.72,1.72,.94,1.43,.33,2.26,.33c.95,0,1.85-.21,2.7-.62s1.62-.98,2.31-1.72v1.58c0,.14,.04,.25,.12,.32s.21,.12,.39,.16,.43,.05,.73,.05,.56-.02,.72-.05,.29-.09,.39-.16,.14-.18,.14-.32v-10.67c0-.98-.11-1.85-.33-2.58s-.58-1.36-1.07-1.85Zm-1.48,11.24c-.71,.8-1.4,1.39-2.05,1.78s-1.36,.58-2.12,.58c-.94,0-1.67-.24-2.19-.73s-.78-1.14-.78-1.96c0-.48,.09-.91,.27-1.27s.47-.69,.85-.95,.87-.46,1.46-.6,1.28-.2,2.07-.2h2.48v3.36Z"/><path class="cls-5" d="M169.22,128.94c-.11-.05-.25-.08-.44-.11s-.43-.04-.72-.04-.52,.01-.7,.04-.34,.06-.45,.11-.19,.11-.23,.18-.06,.15-.06,.25v23.48c0,.09,.02,.17,.06,.24s.12,.12,.23,.17,.26,.08,.45,.11,.42,.04,.7,.04,.53-.01,.72-.04,.33-.06,.44-.11,.18-.1,.23-.17,.07-.14,.07-.24v-23.48c0-.09-.02-.18-.07-.25s-.12-.13-.23-.18Z"/><path class="cls-5" d="M184.41,130.28h-.65v27c0,.46,.14,.81,.43,1.06s.59,.38,.9,.38h.68v-27.18c0-.41-.14-.72-.43-.94-.29-.22-.6-.32-.94-.32Z"/><path class="cls-5" d="M212.25,144.79c-.36-.96-.81-1.85-1.35-2.68s-1.18-1.46-1.93-1.89c-.43-.31-.86-.54-1.28-.7s-.81-.28-1.17-.38c-.41-.07-.79-.12-1.15-.14-1.78,0-3,.64-3.67,1.91l-.5,.94c.14-.07,.3-.13,.47-.18,.17-.05,.37-.09,.59-.13,.23-.04,.49-.05,.77-.05,.36,0,.78,.04,1.26,.13s1.01,.25,1.58,.49c.67,.29,1.27,.76,1.78,1.4s.96,1.37,1.33,2.16,.67,1.6,.88,2.43c.22,.83,.34,1.55,.36,2.18h-10.62v1.44c0,.38,.14,.74,.41,1.08,.28,.34,.63,.5,1.06,.5h12.2v-3.02c0-.74-.08-1.6-.25-2.57-.17-.97-.43-1.94-.79-2.9Z"/><path class="cls-5" d="M218.33,131.58h-1.44v19.55c0,.77,.18,1.32,.54,1.66,.36,.34,.83,.5,1.4,.5h1.08v-20.23c0-.43-.17-.79-.5-1.06-.34-.28-.7-.41-1.08-.41Z"/><path class="cls-5" d="M240.62,135.54c.5,0,.92-.17,1.26-.5s.5-.76,.5-1.26-.17-.89-.5-1.22c-.34-.34-.76-.5-1.26-.5s-.89,.17-1.22,.52c-.34,.35-.5,.76-.5,1.24s.17,.89,.5,1.22c.33,.34,.74,.5,1.22,.5Z"/><path class="cls-5" d="M245.37,140c-.58-.65-1.27-1.15-2.09-1.49-.82-.35-1.72-.52-2.7-.52-2.11,0-3.78,.7-5,2.09-1.22,1.39-1.84,3.32-1.84,5.8,0,.96,.13,1.8,.38,2.52,.25,.72,.61,1.34,1.06,1.87h-6.12c-.65,0-1.19-.11-1.62-.32v-6.55c0-.86-.15-1.48-.45-1.85-.3-.37-.86-.56-1.67-.56h-.97v9.14c0,1.18,0,2.21,.02,3.1,.01,.89-.08,1.63-.27,2.21s-.53,1.03-1.01,1.33c-.48,.3-1.21,.45-2.2,.45-.14,0-.29,0-.43-.02-.14-.01-.29-.03-.43-.05v.83c0,.53,.23,.94,.68,1.22,.46,.29,1.06,.43,1.8,.43s1.37-.13,1.94-.38,1.07-.59,1.48-1.01c.41-.42,.73-.91,.95-1.46,.23-.55,.34-1.13,.34-1.73v-1.58s.02-.14,.07-.29c.29,.07,.61,.11,.97,.11h18.94v-7.96c0-1.1-.16-2.11-.49-3.01-.32-.9-.77-1.67-1.35-2.32Zm-4.05,10.12c-.95-.1-1.77-.31-2.47-.63-.7-.32-1.24-.82-1.64-1.48-.4-.66-.59-1.54-.59-2.65,0-1.42,.33-2.54,.99-3.37s1.54-1.24,2.65-1.24,1.94,.25,2.52,.74c.58,.49,.98,1.17,1.22,2.03,.24,.86,.37,1.87,.38,3.02,.01,1.15,.02,2.39,.02,3.71-1.1,0-2.13-.05-3.08-.14Z"/><path class="cls-5" d="M252.79,131.58h-1.44v19.55c0,.77,.18,1.32,.54,1.66s.83,.5,1.4,.5h1.08v-20.23c0-.43-.17-.79-.5-1.06-.34-.28-.7-.41-1.08-.41Z"/><path class="cls-5" d="M252.57,128.95c-.19-.14-.31-.34-.36-.58-.05-.24-.07-.49-.07-.76,0-.62,.11-1.01,.34-1.17,.23-.16,.44-.23,.63-.23,.05,0,.14,.01,.29,.04,.14,.02,.3,.08,.47,.18,.17,.1,.34,.25,.52,.45,.18,.2,.34,.49,.49,.85,0-.19,.06-.38,.18-.56s.18-.38,.18-.59c-.12-.46-.37-.81-.74-1.06-.37-.25-.8-.38-1.28-.38-.72,0-1.29,.24-1.73,.72-.43,.48-.65,1.1-.65,1.87,0,.19,0,.37,.02,.54s.05,.32,.13,.47l.11,.22h-1.3v.58c0,.17,.07,.32,.2,.47,.13,.14,.3,.22,.52,.22h4.36c.24,0,.43-.07,.56-.22,.13-.14,.2-.3,.2-.47v-.58h-3.06Z"/></g><g class="cls-3"><g id="Group_3-2"><path id="Path_32-2" class="cls-4" d="M174.5,13.5c-9.2-.2-18.1,3.5-24.6,10.2-6.6,6.5-10.3,15.4-10.1,24.6-.2,9.3,3.5,18.2,10.2,24.6,6.4,6.6,15.3,10.3,24.6,10.2,7.1,.1,14.1-2,19.9-6.2v18.4c0,4.2,3.4,7.6,7.6,7.6h.1c4,0,7.3-3.3,7.3-7.3V48.2c.2-9.3-3.5-18.2-10.2-24.6-6.6-6.6-15.6-10.3-24.8-10.1m14.1,48.8c-3.7,3.7-8.8,5.8-14.1,5.8-5.3,.1-10.3-2-14-5.8-3.7-3.7-5.8-8.8-5.8-14.1-.1-5.3,2-10.4,5.8-14.1,3.7-3.7,8.8-5.8,14.1-5.8,5.3-.1,10.4,2,14,5.8,3.7,3.7,5.8,8.8,5.8,14.1,.1,5.3-2,10.4-5.8,14.1"/><path id="Path_33-2" class="cls-4" d="M279.7,23.3h-.4c-4.2,0-7.7,3.4-7.7,7.7v34.9c.1,5.5-2.1,10.7-5.9,14.6-3.1,3.2-7.2,5.2-11.6,5.6-7.1,.7-14-2.3-18.3-7.9-2.6-3.4-3.9-7.6-3.9-11.8V30.6c0-4-3.3-7.3-7.3-7.3-4.2,0-7.6,3.4-7.7,7.6v35.6c-.2,9.3,3.5,18.2,10.2,24.6,6.4,6.6,15.3,10.3,24.6,10.1,9.2,.2,18.1-3.5,24.6-10.2,6.6-6.5,10.3-15.4,10.1-24.6V30.2c.2-3.8-2.9-6.8-6.7-6.9"/><path id="Path_34-2" class="cls-1" d="M286.8,30.4c0,4.2-3.4,7.5-7.5,7.5s-7.5-3.4-7.5-7.5,3.4-7.5,7.5-7.5c2,0,3.9,.8,5.3,2.2,1.4,1.4,2.2,3.3,2.2,5.3"/><path id="Path_35-2" class="cls-2" d="M209.6,95c0,4.2-3.4,7.5-7.5,7.5s-7.5-3.4-7.5-7.5,3.4-7.5,7.5-7.5c2,0,3.9,.8,5.3,2.2,1.4,1.4,2.2,3.4,2.2,5.3"/><path id="Path_36-2" class="cls-4" d="M121.8,23.7c-6.4-6.6-15.3-10.3-24.6-10.1-9.2-.1-18.1,3.6-24.6,10.2-6.6,6.4-10.2,15.3-10.1,24.6v26.4c-.5,4.5-2.6,8.6-5.7,11.8-3.1,3.2-7.2,5.2-11.6,5.6-7.1,.7-14-2.3-18.3-7.9-2.6-3.4-3.9-7.6-3.9-11.8v-27.5c0-4-3.3-7.3-7.3-7.3-4.2,0-7.6,3.4-7.6,7.6v27.2c-.1,9.2,3.6,18.1,10.2,24.6,6.4,6.6,15.3,10.3,24.6,10.1,9.2,.2,18.1-3.5,24.6-10.2,6.6-6.5,10.3-15.4,10.1-24.6v-26.9c.7-4.8,3.1-9.2,6.8-12.3,3.1-2.7,6.9-4.3,11-4.7,6.8-.7,13.5,2.2,17.6,7.6,2.7,3.4,4.2,7.7,4.1,12.1v26.4c0,3.4,2.1,6.5,5.2,7.8,1,.4,2.1,.6,3.2,.6,3.5,0,6.4-2.9,6.4-6.4h0v-28.4c.3-9.1-3.4-18.1-10.1-24.5"/><path id="Path_37-2" class="cls-1" d="M15.5,37.4c-4.1,0-7.4,3.4-7.4,7.5s3.4,7.4,7.5,7.4,7.4-3.4,7.4-7.5c0-1.9-.8-3.8-2.2-5.2-1.3-1.4-3.3-2.2-5.3-2.2"/><path id="Path_38-2" class="cls-4" d="M249.6,24.8c5.2,0,9.4-4.2,9.4-9.4s-4.2-9.4-9.4-9.4-9.4,4.2-9.4,9.4h0c0,5.1,4.2,9.4,9.4,9.4"/></g></g></svg>