<svg id="Logo_3" xmlns="http://www.w3.org/2000/svg" xmlns:xlink="http://www.w3.org/1999/xlink" width="294.95" height="107.21" viewBox="0 0 294.95 107.21">
  <defs>
    <clipPath id="clip-path">
      <rect id="Rectangle_3" data-name="Rectangle 3" width="294.95" height="107.21" fill="none"/>
    </clipPath>
  </defs>
  <g id="Group_3" data-name="Group 3" clip-path="url(#clip-path)">
    <path id="Path_32" data-name="Path 32" d="M72.135,2.033a35.349,35.349,0,0,0-26,10.78A35.55,35.55,0,0,0,35.407,38.877,35.433,35.433,0,0,0,46.174,64.909,35.425,35.425,0,0,0,72.2,75.65a35.232,35.232,0,0,0,21.018-6.513v19.5a8.027,8.027,0,0,0,8.079,8.038,7.744,7.744,0,0,0,7.693-7.758l-.051-50.11A35.436,35.436,0,0,0,98.171,12.774,35.439,35.439,0,0,0,72.135,2.033M87.05,53.7a21.065,21.065,0,0,1-14.868,6.186,20.235,20.235,0,0,1-14.836-6.135A21.1,21.1,0,0,1,51.16,38.865a20.262,20.262,0,0,1,6.155-14.886,21.083,21.083,0,0,1,14.868-6.162,20.24,20.24,0,0,1,14.84,6.162,21.118,21.118,0,0,1,6.155,14.886A20.29,20.29,0,0,1,87.05,53.7" transform="translate(103.93 5.976)" fill="#085566"/>
    <path id="Path_33" data-name="Path 33" d="M122.5,4.689h-.4a8.127,8.127,0,0,0-8.111,8.136l.043,36.958a21.755,21.755,0,0,1-6.257,15.477,20.076,20.076,0,0,1-12.3,5.934,21.588,21.588,0,0,1-19.354-8.365,20.135,20.135,0,0,1-4.1-12.522l-.039-37.9a7.7,7.7,0,0,0-7.69-7.7,8.068,8.068,0,0,0-8.095,8.1l.039,37.522A35.463,35.463,0,0,0,67,76.375,35.393,35.393,0,0,0,93.024,87.112a35.364,35.364,0,0,0,26.008-10.78,35.446,35.446,0,0,0,10.72-26.06l-.035-38.349A7.247,7.247,0,0,0,122.5,4.689" transform="translate(164.934 13.785)" fill="#085566"/>
    <path id="Path_34" data-name="Path 34" d="M86.82,12.522A7.966,7.966,0,1,1,84.482,6.9a7.985,7.985,0,0,1,2.338,5.626" transform="translate(208.13 13.427)" fill="#00b6a1"/>
    <path id="Path_35" data-name="Path 35" d="M66.043,29.88a7.959,7.959,0,1,1-2.334-5.626,7.957,7.957,0,0,1,2.334,5.626" transform="translate(147.144 64.461)" fill="#407fc1"/>
    <path id="Path_36" data-name="Path 36" d="M120.349,12.792A35.294,35.294,0,0,0,94.321,2.055,35.589,35.589,0,0,0,68.313,12.831,35.613,35.613,0,0,0,57.577,38.9L57.6,66.834a21.441,21.441,0,0,1-6.06,12.494,20.1,20.1,0,0,1-12.306,5.934,21.614,21.614,0,0,1-19.354-8.369,20.184,20.184,0,0,1-4.1-12.518l-.031-29.117a7.7,7.7,0,0,0-7.69-7.7A8.08,8.08,0,0,0,0,35.648L.031,64.4A35.442,35.442,0,0,0,10.8,90.431a35.409,35.409,0,0,0,26.028,10.737,35.367,35.367,0,0,0,26-10.776A35.511,35.511,0,0,0,73.555,64.328l-.028-28.467A20.637,20.637,0,0,1,80.7,22.855,20.066,20.066,0,0,1,92.31,17.926a20.735,20.735,0,0,1,18.638,8.042A20.238,20.238,0,0,1,115.339,38.8V66.712a8.981,8.981,0,0,0,5.549,8.3,8.933,8.933,0,0,0,3.436.678,6.785,6.785,0,0,0,6.777-6.8l-.031-30.02a35.346,35.346,0,0,0-10.72-26.076" transform="translate(0 6.041)" fill="#085566"/>
    <path id="Path_37" data-name="Path 37" d="M7.805,8.468a7.85,7.85,0,1,0,5.608,2.3,7.607,7.607,0,0,0-5.608-2.3" transform="translate(0.069 24.892)" fill="#00b6a1"/>
    <path id="Path_38" data-name="Path 38" d="M72.377,19.968A9.984,9.984,0,1,0,62.4,9.984a9.981,9.981,0,0,0,9.972,9.984" transform="translate(183.177 -0.001)" fill="#085566"/>
  </g>
</svg>
